<?xml version="1.0" encoding="utf-8"?><!-- Generator: Adobe Illustrator 15.0.0, SVG Export Plug-In . SVG Version: 6.00 Build 0)  --><!DOCTYPE svg PUBLIC "-//W3C//DTD SVG 1.1//EN" "http://www.w3.org/Graphics/SVG/1.1/DTD/svg11.dtd"><svg xmlns="http://www.w3.org/2000/svg" xmlns:xlink="http://www.w3.org/1999/xlink" version="1.1" x="0px" y="0px" width="528" height="528" viewBox="0 0 48 48" enable-background="new 0 0 48 48" xml:space="preserve">
<path fill="#3F51B5" d="M42,37c0,2.762-2.238,5-5,5H11c-2.762,0-5-2.238-5-5V11c0-2.762,2.238-5,5-5h26c2.762,0,5,2.238,5,5V37z"/>
<g>
	<circle fill="#FFFFFF" cx="21.5" cy="12.5" r="2.5"/>
	<path fill="#FFFFFF" d="M24,25.499C24,26.881,25.719,28,21.5,28l0,0c-1.381,0-2.5-1.119-2.5-2.501V18.5c0-1.381,1.119-2.5,2.5-2.5   l0,0c1.381,0,2.5,1.119,2.5,2.5V25.499z"/>
	<path fill="#FFFFFF" d="M31,26.5c0,0.828-0.672,1.5-1.5,1.5H22c-0.828,0-1.5-0.672-1.5-1.5l0,0c0-0.828,0.672-1.5,1.5-1.5h7.5   C30.328,25,31,25.672,31,26.5L31,26.5z"/>
	<path fill="#FFFFFF" d="M26.498,27C26.82,27.77,27,28.614,27,29.5c0,3.584-2.916,6.5-6.5,6.5S14,33.084,14,29.5   c0-3.414,2.649-6.218,6-6.475v-2c-4.453,0.261-8,3.957-8,8.475c0,4.687,3.813,8.5,8.5,8.5s8.5-3.813,8.5-8.5   c0-0.869-0.133-1.709-0.377-2.5H26.498z"/>
	<path fill="#FFFFFF" d="M33.084,34.668l-4.897-8.087c-0.321-0.449-0.217-1.074,0.232-1.395c0.449-0.319,2.047,0.104,2.368,0.552   l3.53,5.985l1.235-0.618c0.495-0.244,1.094-0.046,1.342,0.447c0.247,0.494,0.047,1.095-0.447,1.342L33.084,34.668z"/>
	<line fill="#FFFFFF" stroke="#FFFFFF" stroke-width="2" stroke-linecap="round" x1="23" y1="22" x2="28" y2="22"/>
</g>
</svg>