<?xml version="1.0" encoding="iso-8859-1"?><!-- Generator: Adobe Illustrator 20.0.0, SVG Export Plug-In . SVG Version: 6.00 Build 0)  --><svg xmlns="http://www.w3.org/2000/svg" xmlns:xlink="http://www.w3.org/1999/xlink" version="1.1" x="0px" y="0px" viewBox="0 0 48 48" style="enable-background:new 0 0 48 48;" xml:space="preserve" width="528" height="528">
<path style="fill:#B71C1C;" d="M29,5c0,0-1.966-1-5-1s-5,1-5,1l-3,8c0,0,3.997-4,8-4s8,4,8,4L29,5z"/>
<path style="fill:#E53935;" d="M29,5c0,0-1.374,19.625-20,29l2,11c17.447-10.496,21-30.043,21-32C31.187,8.66,29,5,29,5z"/>
<path style="fill:#B71C1C;" d="M22.838,34.343c1.46-1.91,2.701-3.847,3.753-5.737c-1.269-1.797-2.846-4.576-3.942-6.567  c-1.177,1.74-2.576,3.475-4.223,5.139C19.586,29.448,21.384,32.567,22.838,34.343z"/>
<path style="fill:#F44336;" d="M19,5c0,0,1.374,19.625,20,29l-2,11C19.553,34.504,16,14.957,16,13C16.813,8.66,19,5,19,5z"/>
</svg>