<?xml version="1.0" encoding="utf-8"?><!-- Generator: Adobe Illustrator 15.0.0, SVG Export Plug-In . SVG Version: 6.00 Build 0)  --><!DOCTYPE svg PUBLIC "-//W3C//DTD SVG 1.1//EN" "http://www.w3.org/Graphics/SVG/1.1/DTD/svg11.dtd"><svg xmlns="http://www.w3.org/2000/svg" xmlns:xlink="http://www.w3.org/1999/xlink" version="1.1" x="0px" y="0px" width="528" height="528" viewBox="0 0 48 48" enable-background="new 0 0 48 48" xml:space="preserve">
<g>
	<path fill="#FFB74D" d="M24,14c-4.418,0-8,3.582-8,8v8l3,2l1,14h4V35h4.857L29,32l3-2v-8C32,17.582,28.418,14,24,14z"/>
	<path fill="#FFB74D" d="M24,13c-2.758,0-5-2.243-5-5s2.242-5,5-5s5,2.243,5,5S26.758,13,24,13"/>
</g>
<polygon fill="#455A64" points="19,29 19,32 20,46 24,46 24,35 28.857,35 29,32 29,29 "/>
<path fill="#8BC34A" d="M16,22L16,22l3,2v7h10v-7l3-2l0,0c0-4.418-3.582-8-8-8S16,17.582,16,22"/>
<path fill="#FF9800" d="M24,13c-0.711,0-1.386-0.154-1.999-0.423V14c0,0-0.124,2,1.959,2s2.041-2,2.041-2v-1.424  C25.387,12.845,24.712,13,24,13z"/>
<path fill="#F1F8E9" d="M25.98,14.258C25.914,14.792,25.586,16,23.96,16c-1.623,0-1.903-1.204-1.949-1.74  c-0.671,0.172-1.31,0.423-1.9,0.752c0.124,0.561,0.384,1.229,0.937,1.816C21.549,17.363,22.463,18,23.96,18  c1.479,0,2.397-0.622,2.908-1.144c0.587-0.6,0.866-1.29,1.005-1.854C27.284,14.676,26.648,14.428,25.98,14.258z"/>
<path fill="#424242" d="M23.781,1C21.344,1.219,19,2.93,19,6.574V8l1,1V6l6.311-2.201L28,6v3l1-1V6.798C29,4.384,28.865,2.592,26,2  l-0.484-1H23.781z"/>
</svg>