<?xml version="1.0" encoding="utf-8"?><!-- Generator: Adobe Illustrator 15.0.0, SVG Export Plug-In . SVG Version: 6.00 Build 0)  --><!DOCTYPE svg PUBLIC "-//W3C//DTD SVG 1.1//EN" "http://www.w3.org/Graphics/SVG/1.1/DTD/svg11.dtd"><svg xmlns="http://www.w3.org/2000/svg" xmlns:xlink="http://www.w3.org/1999/xlink" version="1.1" x="0px" y="0px" width="528" height="528" viewBox="0 0 48 48" enable-background="new 0 0 48 48" xml:space="preserve">
<path fill="#FFE0B2" d="M17,36c0,0,0.313,1,1,1c0.823,0,9.098,0,12,0c0.624,0,1-1,1-1c4-12,5-29,5-29H12C12,7,12.865,24,17,36z"/>
<g>
	<rect x="12" y="3" fill="#F44336" width="24" height="4"/>
	<rect x="22" y="15" fill="#F44336" width="4" height="12"/>
	<rect x="18" y="19" fill="#F44336" width="12" height="4"/>
	<path fill="#F44336" d="M18,37v6c0,1.104,0.896,2,2,2h8c1.104,0,2-0.896,2-2v-6H18z"/>
</g>
<path fill="#FFCDD2" d="M22,41v-4h-2v4c0,1.104,0.896,2,2,2h2C22.896,43,22,42.104,22,41z"/>
<rect x="18" y="37" fill="#C62828" width="12" height="2"/>
<rect x="20" y="37" fill="#FF8A80" width="2" height="2"/>
</svg>