<?xml version="1.0" encoding="utf-8"?><!-- Generator: Adobe Illustrator 15.0.0, SVG Export Plug-In . SVG Version: 6.00 Build 0)  --><!DOCTYPE svg PUBLIC "-//W3C//DTD SVG 1.1//EN" "http://www.w3.org/Graphics/SVG/1.1/DTD/svg11.dtd"><svg xmlns="http://www.w3.org/2000/svg" xmlns:xlink="http://www.w3.org/1999/xlink" version="1.1" x="0px" y="0px" width="528" height="528" viewBox="0 0 48 48" enable-background="new 0 0 48 48" xml:space="preserve">
<g>
	<path fill="none" stroke="#3F51B5" stroke-width="3" stroke-linecap="square" stroke-linejoin="round" stroke-miterlimit="10" d="   M24.602,40.545c3.191,0,5.808-2.606,5.808-5.805c0-4.356,4.353-5.948,4.353-13.063c0-5.662-4.499-10.162-10.16-10.162   c-5.662,0-10.161,4.5-10.161,10.162"/>
	<path fill="none" stroke="#3F51B5" stroke-width="2" stroke-linecap="square" stroke-miterlimit="10" d="M37.209,14.584   c-1.161-2.031-2.763-3.622-4.646-4.93"/>
	<path fill="none" stroke="#3F51B5" stroke-width="2" stroke-linecap="square" stroke-miterlimit="10" d="M40.288,13.096   c-1.444-2.606-3.483-4.784-5.945-6.384"/>
	<path fill="none" stroke="#3F51B5" stroke-width="3" stroke-linecap="square" stroke-linejoin="round" stroke-miterlimit="10" d="   M18.793,21.677c0-3.192,2.616-5.809,5.809-5.809c3.191,0,5.808,2.616,5.808,5.809"/>
	<path fill="#3F51B5" d="M24.602,21.677c0.8,0,1.454,0.653,1.454,1.454c0,0.8-0.654,1.449-1.454,1.449   c-0.801,0-1.455-0.649-1.455-1.449C23.146,22.33,23.801,21.677,24.602,21.677z"/>
	<path fill="#3F51B5" d="M20.247,26.029c0.801,0,1.449,0.655,1.449,1.455c0,0.801-0.648,1.454-1.449,1.454s-1.454-0.653-1.454-1.454   C18.793,26.685,19.446,26.029,20.247,26.029z"/>
	<path fill="#3F51B5" d="M11.535,34.74c0.805,0,1.45,0.652,1.45,1.451s-0.646,1.454-1.45,1.454c-0.804,0-1.449-0.655-1.449-1.454   S10.731,34.74,11.535,34.74z"/>
	<path fill="#3F51B5" d="M7.176,39.1c0.81,0,1.455,0.646,1.455,1.445C8.631,41.35,7.985,42,7.176,42   c-0.798,0-1.443-0.65-1.443-1.455C5.732,39.745,6.378,39.1,7.176,39.1z"/>
	<polygon fill="#3F51B5" points="13.012,30.605 14.763,28.864 18.867,32.968 17.126,34.709  "/>
</g>
</svg>