<?xml version="1.0" encoding="utf-8"?><!-- Generator: Adobe Illustrator 15.0.0, SVG Export Plug-In . SVG Version: 6.00 Build 0)  --><!DOCTYPE svg PUBLIC "-//W3C//DTD SVG 1.1//EN" "http://www.w3.org/Graphics/SVG/1.1/DTD/svg11.dtd"><svg xmlns="http://www.w3.org/2000/svg" xmlns:xlink="http://www.w3.org/1999/xlink" version="1.1" x="0px" y="0px" width="528" height="528" viewBox="0 0 48 48" enable-background="new 0 0 48 48" xml:space="preserve">
<path fill="#455A64" d="M44,24c0,7.775-2.002,14-4.617,14H8.617C6.002,38,4,31.775,4,24s2.002-14,4.617-14h30.766  C41.998,10,44,16.225,44,24z"/>
<g>
	<path fill="#FFFFFF" d="M34.125,24c0-4.502-2.934-6-2.934-6h-1.469c0,0,2.938,1.498,2.938,6s-2.938,6-2.938,6h1.469   C31.191,30,34.125,28.502,34.125,24z"/>
	<path fill="#FFFFFF" d="M37.063,24c0-4.502-2.938-6-2.938-6h-1.464c0,0,2.936,1.498,2.936,6s-2.936,6-2.936,6h1.464   C34.125,30,37.063,28.502,37.063,24z"/>
	<path fill="#FFFFFF" d="M40,24c0-4.502-2.937-6-2.937-6h-1.467c0,0,2.932,1.498,2.932,6s-2.932,6-2.932,6h1.467   C37.063,30,40,28.502,40,24z"/>
	<path fill="#FFFFFF" d="M16.37,18L8,30h3.225l1.024-1.498H16V30h3V18H16.37z M16,26h-2.057L16,22.844V26z"/>
	<path fill="#FFFFFF" d="M24.959,18C23.933,18,21,18,21,18v12c0,0,2.933,0,3.959,0C26.868,30,30,28.652,30,24   C30,19.199,26.868,18,24.959,18z M24.959,27C24.52,27,24,27,24,27v-6c0,0,0.665,0,0.959,0C25.258,21,27,21.449,27,24   S25.403,27,24.959,27z"/>
</g>
</svg>