<?xml version="1.0" encoding="utf-8"?><!-- Generator: Adobe Illustrator 15.0.0, SVG Export Plug-In . SVG Version: 6.00 Build 0)  --><!DOCTYPE svg PUBLIC "-//W3C//DTD SVG 1.1//EN" "http://www.w3.org/Graphics/SVG/1.1/DTD/svg11.dtd"><svg xmlns="http://www.w3.org/2000/svg" xmlns:xlink="http://www.w3.org/1999/xlink" version="1.1" x="0px" y="0px" width="528" height="528" viewBox="0 0 48 48" enable-background="new 0 0 48 48" xml:space="preserve">
<path fill="#FFCC80" d="M18.1,43.499c0,0-4.112,0.18-8.771-4.48c-4.66-4.659-4.481-8.772-4.481-8.772L30.592,4.501  c0,0,4.111-0.181,8.771,4.48c4.66,4.66,4.481,8.772,4.481,8.772L18.1,43.499z"/>
<g>
	<path fill="#FFA726" d="M25.193,31.949c-0.763,0.76-1.997,0.76-2.758-0.001l-5.727-5.728c-0.762-0.763-0.762-1.996-0.001-2.759   l7.588-7.588c0.761-0.759,1.996-0.76,2.757,0.003l5.688,5.688c0.762,0.762,0.801,2.033,0.039,2.795L25.193,31.949z"/>
	<circle fill="#FFA726" cx="13.4" cy="29.429" r="1.5"/>
	<circle fill="#FFA726" cx="18.917" cy="34.946" r="1.5"/>
	<path fill="#FFA726" d="M14.46,36.007c-0.585,0.586-1.538,0.587-2.12,0.001c-0.587-0.586-0.586-1.539,0-2.121   c0.583-0.586,1.535-0.586,2.121,0C15.047,34.469,15.047,35.421,14.46,36.007z"/>
	<circle fill="#FFA726" cx="35.468" cy="18.395" r="1.5"/>
	<circle fill="#FFA726" cx="29.951" cy="12.877" r="1.5"/>
	<circle fill="#FFA726" cx="35.469" cy="12.877" r="1.5"/>
</g>
</svg>