<?xml version="1.0" encoding="utf-8"?><!-- Generator: Adobe Illustrator 15.0.0, SVG Export Plug-In . SVG Version: 6.00 Build 0)  --><!DOCTYPE svg PUBLIC "-//W3C//DTD SVG 1.1//EN" "http://www.w3.org/Graphics/SVG/1.1/DTD/svg11.dtd"><svg xmlns="http://www.w3.org/2000/svg" xmlns:xlink="http://www.w3.org/1999/xlink" version="1.1" x="0px" y="0px" width="528" height="528" viewBox="0 0 48 48" enable-background="new 0 0 48 48" xml:space="preserve">
<g>
	<path fill="#FFFFFF" d="M23.934,37.96c-10.332,0-18.468-10.902-18.81-11.366L4.69,26.003l0.432-0.592   C5.463,24.944,13.6,13.96,23.934,13.96c10.335,0,18.463,10.984,18.804,11.452l0.432,0.591l-0.434,0.59   C42.395,27.058,34.267,37.96,23.934,37.96z"/>
	<path fill="#CFD8DC" d="M23.934,14.96c9.945,0,17.996,11.041,17.996,11.041S33.879,36.96,23.934,36.96   c-9.944,0-18.004-10.959-18.004-10.959S13.989,14.96,23.934,14.96 M23.934,12.96c-10.836,0-19.266,11.377-19.619,11.862   L3.45,26.006l0.868,1.18c0.354,0.481,8.784,11.774,19.615,11.774c10.833,0,19.255-11.294,19.607-11.774l0.867-1.18l-0.862-1.183   C43.192,24.338,34.771,12.96,23.934,12.96L23.934,12.96z"/>
</g>
<path fill="#26C6DA" d="M14.935,25.954c0-4.971,4.034-8.994,9-8.994c4.968,0,9,4.023,9,8.994c0,4.977-4.032,9.006-9,9.006  C18.969,34.96,14.935,30.931,14.935,25.954z"/>
<path fill="#B2EBF2" d="M19.935,25.959c0-2.213,1.786-3.999,4-3.999c2.204,0,4,1.786,4,3.999c0,2.22-1.796,4.001-4,4.001  C21.721,29.96,19.935,28.179,19.935,25.959z"/>
<path fill="#546E7A" d="M5.959,25.96C6.484,25.26,14.328,15,23.934,15S41.376,25.259,41.9,25.959l4.957,0.001l-1.699-2.322  C44.779,23.121,35.771,11,23.934,11C12.098,11,3.081,23.12,2.703,23.636L1,25.96H5.959z"/>
<line fill="none" stroke="#37474F" stroke-width="4" stroke-linejoin="round" stroke-miterlimit="10" x1="5" y1="5" x2="43" y2="43"/>
</svg>