<?xml version="1.0" encoding="utf-8"?><!-- Generator: Adobe Illustrator 15.0.0, SVG Export Plug-In . SVG Version: 6.00 Build 0)  --><!DOCTYPE svg PUBLIC "-//W3C//DTD SVG 1.1//EN" "http://www.w3.org/Graphics/SVG/1.1/DTD/svg11.dtd"><svg xmlns="http://www.w3.org/2000/svg" xmlns:xlink="http://www.w3.org/1999/xlink" version="1.1" x="0px" y="0px" width="528" height="528" viewBox="0 0 48 48" enable-background="new 0 0 48 48" xml:space="preserve">
<g>
	<path fill="#FFB74D" d="M24,14c-2.206,0-4-1.794-4-4s1.794-4,4-4s4,1.794,4,4S26.206,14,24,14"/>
	<path fill="#FFB74D" d="M17,23v6l2.625,1.75L20.5,42h7l0.875-11.25L31,29v-6c0-3.865-3.135-7-7-7S17,19.135,17,23"/>
</g>
<rect x="6" y="14" fill="#455A64" width="36" height="21"/>
<path fill="#00E5FF" d="M19.8,33h8.4l0.175-2.25L31,29v-6c0-3.865-3.135-7-7-7s-7,3.135-7,7v6l2.625,1.75L19.8,33z"/>
</svg>