<?xml version="1.0" encoding="utf-8"?><!-- Generator: Adobe Illustrator 15.0.0, SVG Export Plug-In . SVG Version: 6.00 Build 0)  --><!DOCTYPE svg PUBLIC "-//W3C//DTD SVG 1.1//EN" "http://www.w3.org/Graphics/SVG/1.1/DTD/svg11.dtd"><svg xmlns="http://www.w3.org/2000/svg" xmlns:xlink="http://www.w3.org/1999/xlink" version="1.1" x="0px" y="0px" width="528" height="528" viewBox="0 0 48 48" enable-background="new 0 0 48 48" xml:space="preserve">
<g>
	<path fill="#CE9402" d="M2,14c8.458,1.208,12-7,15-7s3,3,3,3s0,3,4,3c0,0-0.667,4.708-5.125,5.531   c-0.965,0.178-1.778-0.407-1.778-0.407s-0.628,0.817-1.597,0.815s-1.501-0.7-1.501-0.7S13.438,19.125,12.344,19   s-1.353-1.033-1.353-1.033s-0.491,0.689-1.678,0.471s-1.328-1.134-1.328-1.134S7.188,17.938,6.188,17.5S5.01,16.135,5.01,16.135   s-1.176,0.49-2.072-0.26S2,14,2,14z"/>
	<path fill="#CE9402" d="M46,14c-8.459,1.208-12-7-15-7s-3,3-3,3s0,3-4,3c0,0,0.708,4.667,5.125,5.531   c0.963,0.188,1.778-0.407,1.778-0.407s0.628,0.817,1.597,0.815s1.501-0.7,1.501-0.7s0.562,0.886,1.655,0.761   s1.354-1.033,1.354-1.033s0.49,0.689,1.678,0.471s1.328-1.134,1.328-1.134s0.797,0.634,1.797,0.196s1.178-1.365,1.178-1.365   s1.176,0.49,2.072-0.26S46,14,46,14z"/>
	<rect x="23" y="8" fill="#CE9402" width="2" height="37"/>
</g>
<g>
	<path fill="none" stroke="#FFC107" stroke-width="2" d="M24,45c0-2-2-2-2-3s2-2,2-2s3-1,3-2s-3-2-3-2s-4-2-4-3s4-3,4-3s6-2,6-4   c0-1-1-2-6-4s-8-3.376-8-5s4-2,4-2"/>
	<path fill="none" stroke="#FFC107" stroke-width="2" d="M24,45c0-2,2-2,2-3s-2-2-2-2s-3-1-3-2s3-2,3-2s4-2,4-3s-4-3-4-3s-6-2-6-4   c0-1,1-2,6-4s8-3.376,8-5s-4-2-4-2"/>
	<ellipse fill="#FFC107" cx="20" cy="15.5" rx="2" ry="1.5"/>
	<ellipse fill="#FFC107" cx="28" cy="15.5" rx="2" ry="1.5"/>
	<circle fill="#FFC107" cx="24" cy="6" r="3"/>
</g>
</svg>