<?xml version="1.0" encoding="utf-8"?><!-- Generator: Adobe Illustrator 15.0.0, SVG Export Plug-In . SVG Version: 6.00 Build 0)  --><!DOCTYPE svg PUBLIC "-//W3C//DTD SVG 1.1//EN" "http://www.w3.org/Graphics/SVG/1.1/DTD/svg11.dtd"><svg xmlns="http://www.w3.org/2000/svg" xmlns:xlink="http://www.w3.org/1999/xlink" version="1.1" x="0px" y="0px" width="528" height="528" viewBox="0 0 48 48" enable-background="new 0 0 48 48" xml:space="preserve">
<path fill="#6A1B9A" d="M18,7c0,0,1-2,6-2s6,2,6,2s1,5-1,6c0,0-1.17-1-5-1s-5,1-5,1C17.094,12.469,18,7,18,7z"/>
<path fill="#AB47BC" d="M27.713,15.23c1.572-2.338,2.431-4.87,2.431-6.038C30.144,8.022,30,7,30,7s2.858,6.331,3.715,8.376  c0.857,2.047-0.286,4.824-1.429,6.577C31.143,23.708,15.855,43,15.855,43L10,38.03C10,38.03,26.142,17.568,27.713,15.23z"/>
<path fill="#BA68C8" d="M38,38.03L32.145,43c0,0-15.287-19.292-16.431-21.047c-1.143-1.753-2.286-4.53-1.429-6.577  C15.142,13.331,18,7,18,7s-0.144,1.022-0.144,2.192c0,1.168,0.858,3.7,2.431,6.038C21.858,17.568,38,38.03,38,38.03z"/>
<g>
	<path fill="#7B1FA2" d="M24,32.68c-1.727-2.197-3.453-4.402-4.89-6.251c-0.425,0.543-0.849,1.085-1.271,1.624   c1.464,1.883,3.185,4.078,4.887,6.244C23.148,33.763,23.573,33.222,24,32.68z"/>
	<path fill="#7B1FA2" d="M24,20.145c1.449,1.875,3.162,4.074,4.89,6.284c0.454-0.585,0.877-1.132,1.263-1.632   c-1.795-2.296-3.497-4.484-4.891-6.29C24.871,19.016,24.449,19.563,24,20.145z"/>
</g>
</svg>