<?xml version="1.0" encoding="utf-8"?><!-- Generator: Adobe Illustrator 15.0.0, SVG Export Plug-In . SVG Version: 6.00 Build 0)  --><!DOCTYPE svg PUBLIC "-//W3C//DTD SVG 1.1//EN" "http://www.w3.org/Graphics/SVG/1.1/DTD/svg11.dtd"><svg xmlns="http://www.w3.org/2000/svg" xmlns:xlink="http://www.w3.org/1999/xlink" version="1.1" x="0px" y="0px" width="528" height="528" viewBox="0 0 48 48" enable-background="new 0 0 48 48" xml:space="preserve">
<g>
	<path fill="#FFB74D" d="M16,22v3.002L19,25v7l1,14h8l1-14l3-2v-8c0-4.418-3.582-8-8-8S16,17.582,16,22"/>
	<path fill="#FFB74D" d="M24,13c-2.758,0-5-2.243-5-5s2.242-5,5-5s5,2.243,5,5S26.758,13,24,13"/>
</g>
<path fill="#2196F3" d="M16,22L16,22v3l3,0.001V40h10V24l3-2l0,0c0-4.418-3.582-8-8-8S16,17.582,16,22"/>
<path fill="#E3F2FD" d="M25.98,14.258C25.914,14.792,25.586,16,23.96,16c-1.623,0-1.903-1.204-1.949-1.74  c-0.671,0.172-1.31,0.423-1.9,0.752c0.124,0.561,0.384,1.229,0.937,1.816C21.549,17.363,22.463,18,23.96,18  c1.479,0,2.397-0.622,2.908-1.144c0.587-0.6,0.867-1.29,1.005-1.854C27.284,14.676,26.648,14.428,25.98,14.258z"/>
<path fill="#FF9800" d="M24,13c-0.711,0-1.386-0.154-1.999-0.423V14c0,0-0.124,2,1.959,2s2.041-2,2.041-2v-1.424  C25.387,12.845,24.712,13,24,13z"/>
<path fill="#424242" d="M23.781,1C21.344,1.219,19,2.93,19,6.574V8l1,1V6l6.31-2.201L28,6v3l1-1V6.798C29,4.384,28.865,2.592,26,2  l-0.485-1H23.781z"/>
<g>
	<path fill="#BBDEFB" d="M16,23v2c0,0,0,2,2,2s7,0,7,0s2,0,2-2s-2-2-2-2H16z"/>
	<rect x="16" y="21" fill="#BBDEFB" width="3" height="4"/>
</g>
</svg>