<?xml version="1.0" encoding="utf-8"?><!-- Generator: Adobe Illustrator 15.0.0, SVG Export Plug-In . SVG Version: 6.00 Build 0)  --><!DOCTYPE svg PUBLIC "-//W3C//DTD SVG 1.1//EN" "http://www.w3.org/Graphics/SVG/1.1/DTD/svg11.dtd"><svg xmlns="http://www.w3.org/2000/svg" xmlns:xlink="http://www.w3.org/1999/xlink" version="1.1" x="0px" y="0px" width="528" height="528" viewBox="0 0 48 48" enable-background="new 0 0 48 48" xml:space="preserve">
<g>
	<path fill="#FFB74D" d="M6,22v8l3,2l1,14h8l1-14l3-2v-8c0-4.418-3.582-8-8-8S6,17.582,6,22"/>
	<path fill="#FFB74D" d="M14,13c-2.758,0-5-2.243-5-5s2.242-5,5-5s5,2.243,5,5S16.758,13,14,13"/>
	<path fill="#FFB74D" d="M26,22v8l3,2l1,14h8l1-14l3-2v-8c0-4.418-3.582-8-8-8S26,17.582,26,22"/>
	<path fill="#FFB74D" d="M34,13c-2.758,0-5-2.243-5-5s2.242-5,5-5s5,2.243,5,5S36.758,13,34,13"/>
</g>
<g>
	<path fill="#2196F3" d="M6,22L6,22l3,2v16h10V24l3-2l0,0c0-4.418-3.582-8-8-8S6,17.582,6,22"/>
	<path fill="#2196F3" d="M26,22L26,22l3,2v16h10V24l3-2l0,0c0-4.418-3.582-8-8-8S26,17.582,26,22"/>
</g>
<g>
	<path fill="#E0F7FA" d="M15.98,14.258C15.914,14.792,15.586,16,13.96,16c-1.623,0-1.903-1.204-1.949-1.74   c-0.671,0.172-1.31,0.423-1.9,0.752c0.124,0.561,0.384,1.229,0.937,1.816C11.549,17.363,12.463,18,13.96,18   c1.479,0,2.397-0.622,2.908-1.144c0.587-0.6,0.867-1.29,1.005-1.854C17.284,14.676,16.648,14.428,15.98,14.258z"/>
	<path fill="#E0F7FA" d="M35.98,14.258C35.914,14.792,35.586,16,33.96,16c-1.623,0-1.903-1.204-1.949-1.74   c-0.671,0.172-1.31,0.423-1.9,0.752c0.124,0.561,0.384,1.229,0.937,1.816C31.549,17.363,32.463,18,33.96,18   c1.479,0,2.397-0.622,2.908-1.144c0.587-0.6,0.867-1.29,1.005-1.854C37.284,14.676,36.648,14.428,35.98,14.258z"/>
</g>
<g>
	<path fill="#FF9800" d="M14,13c-0.711,0-1.386-0.154-1.999-0.423V14c0,0-0.124,2,1.959,2s2.041-2,2.041-2v-1.424   C15.387,12.845,14.712,13,14,13z"/>
	<path fill="#FF9800" d="M34,13c-0.712,0-1.386-0.154-1.999-0.423V14c0,0-0.124,2,1.959,2s2.041-2,2.041-2v-1.424   C35.387,12.845,34.712,13,34,13z"/>
</g>
<g>
	<path fill="#424242" d="M13.781,1C11.344,1.219,9,2.93,9,6.574V8l1,1V6l6.31-2.201L18,6v3l1-1V6.798C19,4.384,18.865,2.592,16,2   l-0.485-1H13.781z"/>
	<path fill="#424242" d="M33.781,1C31.344,1.219,29,2.93,29,6.574V8l1,1V6l6.31-2.201L38,6v3l1-1V6.798C39,4.384,38.865,2.592,36,2   l-0.485-1H33.781z"/>
</g>
<g>
	<polygon fill="#0D47A1" points="33,27 26,33 26,21  "/>
	<rect x="16" y="25" fill="#0D47A1" width="12.438" height="4"/>
</g>
</svg>