<?xml version="1.0" encoding="utf-8"?><!-- Generator: Adobe Illustrator 15.0.0, SVG Export Plug-In . SVG Version: 6.00 Build 0)  --><!DOCTYPE svg PUBLIC "-//W3C//DTD SVG 1.1//EN" "http://www.w3.org/Graphics/SVG/1.1/DTD/svg11.dtd"><svg xmlns="http://www.w3.org/2000/svg" xmlns:xlink="http://www.w3.org/1999/xlink" version="1.1" x="0px" y="0px" width="528" height="528" viewBox="0 0 48 48" enable-background="new 0 0 48 48" xml:space="preserve">
<g>
	<path fill="#B3E5FC" d="M33,42.895H15V15c0-4.971,4.029-9,9-9l0,0c4.971,0,9,4.029,9,9V42.895z"/>
	<path fill="#B3E5FC" d="M26,10c0,1.104-0.896,2-2,2l0,0c-1.104,0-2-0.896-2-2V4c0-1.105,0.896-2,2-2l0,0c1.104,0,2,0.895,2,2V10z"/>
</g>
<path fill="#81D4FA" d="M35,44c0,1.104-0.896,2-2,2H15c-1.104,0-2-0.896-2-2l0,0c0-1.104,0.896-2,2-2h18C34.104,42,35,42.896,35,44  L35,44z"/>
<path fill="#FFFFFF" d="M25.92,28.399c0-3.399,0.51-4.95,1.024-6.039C27.33,21.833,28,20.594,28,19c0-2.272-2-5-4-5  c-2.208,0-4,2.728-4,5c0,1.979,0.928,3.674,2.262,4.484c0.82,0.78,1.738,1.551,1.738,5.311c0,2.089-0.96,3.062-0.96,4.861  C23.04,35.813,26,38,26,38s-1.04-2.102-1.04-4.127C24.96,31.615,25.92,31.172,25.92,28.399z"/>
</svg>