<?xml version="1.0" encoding="utf-8"?><!-- Generator: Adobe Illustrator 15.0.0, SVG Export Plug-In . SVG Version: 6.00 Build 0)  --><!DOCTYPE svg PUBLIC "-//W3C//DTD SVG 1.1//EN" "http://www.w3.org/Graphics/SVG/1.1/DTD/svg11.dtd"><svg xmlns="http://www.w3.org/2000/svg" xmlns:xlink="http://www.w3.org/1999/xlink" version="1.1" x="0px" y="0px" width="528" height="528" viewBox="0 0 48 48" enable-background="new 0 0 48 48" xml:space="preserve">
<g>
	<path fill="#B3E5FC" d="M33,43H15V15.105c0-4.971,4.029-9,9-9l0,0c4.971,0,9,4.029,9,9V43z"/>
	<path fill="#B3E5FC" d="M26,10c0,1.104-0.896,2-2,2l0,0c-1.104,0-2-0.896-2-2V4c0-1.105,0.896-2,2-2l0,0c1.104,0,2,0.895,2,2V10z"/>
</g>
<path fill="none" stroke="#E1F5FE" stroke-width="2" stroke-linecap="round" d="M18,34V15.404c0-3.314,2.688-6,6-6l0,0"/>
<path fill="#81D4FA" d="M35,44c0,1.104-0.896,2-2,2H15c-1.104,0-2-0.896-2-2l0,0c0-1.104,0.896-2,2-2h18C34.104,42,35,42.896,35,44  L35,44z"/>
</svg>