<?xml version="1.0" encoding="utf-8"?><!-- Generator: Adobe Illustrator 15.0.0, SVG Export Plug-In . SVG Version: 6.00 Build 0)  --><!DOCTYPE svg PUBLIC "-//W3C//DTD SVG 1.1//EN" "http://www.w3.org/Graphics/SVG/1.1/DTD/svg11.dtd"><svg xmlns="http://www.w3.org/2000/svg" xmlns:xlink="http://www.w3.org/1999/xlink" version="1.1" x="0px" y="0px" width="528" height="528" viewBox="0 0 48 48" enable-background="new 0 0 48 48" xml:space="preserve">
<g>
	<path fill="#6A1B9A" d="M32.322,9.042c-0.21,0.511-0.795,0.755-1.306,0.544l-1.85-0.762c-0.511-0.211-0.754-0.795-0.544-1.305l0,0   c0.211-0.511,0.795-0.755,1.306-0.545l1.85,0.762C32.289,7.947,32.532,8.531,32.322,9.042L32.322,9.042z"/>
	
		<rect x="28.521" y="8.093" transform="matrix(0.9247 0.3808 -0.3808 0.9247 6.2579 -10.4435)" fill="#6A1B9A" width="2" height="5"/>
	<path fill="#6A1B9A" d="M19.377,40.48c0.21-0.51-0.033-1.095-0.545-1.305l-1.849-0.762c-0.512-0.211-1.096,0.033-1.306,0.544l0,0   c-0.21,0.511,0.033,1.095,0.544,1.306l1.85,0.762C18.582,41.235,19.166,40.991,19.377,40.48L19.377,40.48z"/>
	
		<rect x="17.479" y="34.907" transform="matrix(0.9248 0.3804 -0.3804 0.9248 15.6181 -4.2172)" fill="#6A1B9A" width="2" height="5"/>
	<path fill="#6A1B9A" d="M9.042,15.678c0.511,0.21,0.755,0.795,0.544,1.306l-0.762,1.849c-0.21,0.512-0.795,0.754-1.306,0.545l0,0   c-0.51-0.211-0.754-0.795-0.544-1.307l0.762-1.849C7.947,15.711,8.532,15.468,9.042,15.678L9.042,15.678z"/>
	
		<rect x="9.592" y="15.978" transform="matrix(0.3808 -0.9247 0.9247 0.3808 -10.5275 21.2362)" fill="#6A1B9A" width="2" height="5.001"/>
	<path fill="#6A1B9A" d="M40.48,28.623c-0.51-0.209-1.095,0.033-1.305,0.545l-0.762,1.849c-0.211,0.511,0.033,1.096,0.544,1.306l0,0   c0.51,0.21,1.095-0.033,1.306-0.544l0.762-1.85C41.235,29.418,40.991,28.834,40.48,28.623L40.48,28.623z"/>
	
		<rect x="36.408" y="27.021" transform="matrix(0.381 -0.9246 0.9246 0.381 -4.1387 52.8614)" fill="#6A1B9A" width="1.999" height="5"/>
	<path fill="#6A1B9A" d="M7.539,28.691c0.509-0.212,1.095,0.027,1.308,0.538l0.769,1.847c0.213,0.51-0.029,1.096-0.538,1.309l0,0   c-0.51,0.211-1.095-0.029-1.308-0.539L7,30C6.787,29.488,7.029,28.904,7.539,28.691L7.539,28.691z"/>
	
		<rect x="9.616" y="27.076" transform="matrix(-0.3844 -0.9232 0.9232 -0.3844 -12.6072 50.7455)" fill="#6A1B9A" width="1.999" height="5"/>
	<path fill="#6A1B9A" d="M38.923,15.615c-0.509,0.213-0.751,0.797-0.538,1.307l0.77,1.847c0.213,0.511,0.798,0.751,1.308,0.538l0,0   c0.509-0.211,0.751-0.797,0.539-1.307l-0.771-1.847C40.019,15.644,39.434,15.402,38.923,15.615L38.923,15.615z"/>
	
		<rect x="36.384" y="15.922" transform="matrix(-0.3851 -0.9229 0.9229 -0.3851 34.7786 60.0182)" fill="#6A1B9A" width="2.001" height="5"/>
	<path fill="#6A1B9A" d="M19.309,7.538c0.212,0.51-0.028,1.095-0.538,1.308l-1.847,0.77c-0.51,0.212-1.096-0.029-1.308-0.539l0,0   c-0.212-0.51,0.028-1.096,0.538-1.308L18.001,7C18.512,6.787,19.097,7.028,19.309,7.538L19.309,7.538z"/>
	<rect x="17.424" y="8.114" transform="matrix(0.923 -0.3848 0.3848 0.923 -2.6658 7.9073)" fill="#6A1B9A" width="2" height="5"/>
	<path fill="#6A1B9A" d="M32.386,38.922c-0.214-0.508-0.798-0.75-1.308-0.538l-1.846,0.769c-0.512,0.215-0.752,0.8-0.54,1.311l0,0   C28.905,40.971,29.49,41.213,30,41l1.847-0.77C32.357,40.018,32.598,39.432,32.386,38.922L32.386,38.922z"/>
	
		<rect x="28.577" y="34.883" transform="matrix(0.9228 -0.3853 0.3853 0.9228 -12.1205 14.2832)" fill="#6A1B9A" width="2.002" height="5.001"/>
</g>
<g>
	<path fill="#9C27B0" d="M26,5c0,0.552-0.447,1-1,1h-2c-0.553,0-1-0.448-1-1l0,0c0-0.552,0.447-1,1-1h2C25.553,4,26,4.448,26,5L26,5   z"/>
	<rect x="23" y="5" fill="#9C27B0" width="2" height="5"/>
	<path fill="#9C27B0" d="M26,43c0-0.552-0.447-1-1-1h-2c-0.553,0-1,0.448-1,1l0,0c0,0.552,0.447,1,1,1h2C25.553,44,26,43.552,26,43   L26,43z"/>
	<rect x="23" y="38" fill="#9C27B0" width="2" height="5"/>
	<path fill="#9C27B0" d="M5,22c0.552,0,1,0.447,1,1v2c0,0.553-0.448,1-1,1l0,0c-0.552,0-1-0.447-1-1v-2C4,22.447,4.448,22,5,22L5,22   z"/>
	<rect x="5" y="23" fill="#9C27B0" width="5" height="2"/>
	<path fill="#9C27B0" d="M43,22c-0.552,0-1,0.447-1,1v2c0,0.553,0.448,1,1,1l0,0c0.552,0,1-0.447,1-1v-2C44,22.447,43.552,22,43,22   L43,22z"/>
	<rect x="38" y="23" fill="#9C27B0" width="5" height="2"/>
	<path fill="#9C27B0" d="M9.15,36.021c0.391-0.39,1.023-0.391,1.415,0l1.414,1.414c0.391,0.391,0.39,1.024,0,1.414l0,0   c-0.391,0.391-1.023,0.392-1.414,0L9.15,37.435C8.76,37.044,8.761,36.411,9.15,36.021L9.15,36.021z"/>
	
		<rect x="11.333" y="33.167" transform="matrix(-0.7071 -0.7071 0.7071 -0.7071 -4.1666 69.6081)" fill="#9C27B0" width="2" height="4.999"/>
	<path fill="#9C27B0" d="M36.021,9.15c-0.39,0.391-0.391,1.023,0,1.414l1.415,1.414c0.391,0.392,1.023,0.391,1.414,0l0,0   c0.39-0.39,0.391-1.023,0-1.414L37.436,9.15C37.044,8.76,36.411,8.761,36.021,9.15L36.021,9.15z"/>
	
		<rect x="34.667" y="9.832" transform="matrix(-0.7074 -0.7069 0.7069 -0.7074 52.1787 46.2676)" fill="#9C27B0" width="2" height="5.001"/>
	<path fill="#9C27B0" d="M36.021,38.85c-0.39-0.391-0.391-1.023,0-1.415l1.414-1.414c0.391-0.391,1.024-0.39,1.414,0l0,0   c0.391,0.391,0.392,1.023,0,1.414l-1.414,1.415C37.044,39.24,36.411,39.239,36.021,38.85L36.021,38.85z"/>
	
		<rect x="34.667" y="33.167" transform="matrix(-0.7071 0.7071 -0.7071 -0.7071 86.1077 35.667)" fill="#9C27B0" width="2" height="4.999"/>
	<path fill="#9C27B0" d="M9.15,11.979c0.391,0.39,1.023,0.391,1.414,0l1.414-1.415c0.392-0.391,0.391-1.023,0-1.414l0,0   c-0.39-0.39-1.023-0.391-1.414,0L9.15,10.564C8.76,10.956,8.761,11.589,9.15,11.979L9.15,11.979z"/>
	
		<rect x="11.332" y="9.833" transform="matrix(-0.7069 0.7074 -0.7074 -0.7069 29.7737 12.3273)" fill="#9C27B0" width="2" height="5.001"/>
</g>
<circle fill="#8BC34A" cx="24" cy="24" r="15"/>
<path fill="#689F38" d="M24,11c7.168,0,13,5.832,13,13c0,7.168-5.832,13-13,13c-7.168,0-13-5.832-13-13C11,16.832,16.832,11,24,11   M24,9C15.716,9,9,15.716,9,24s6.716,15,15,15s15-6.716,15-15S32.284,9,24,9L24,9z"/>
<g>
	<path fill="#558B2F" d="M20.94,34.523c-0.102,0-0.205-0.016-0.308-0.049l-0.205-0.068c-0.523-0.178-0.802-0.746-0.624-1.27   c0.178-0.522,0.747-0.804,1.269-0.623l0.175,0.059c0.525,0.169,0.814,0.733,0.644,1.259C21.755,34.254,21.363,34.523,20.94,34.523z   "/>
	<path fill="#558B2F" d="M28.852,33.747c-0.351,0-0.69-0.185-0.874-0.512c-0.27-0.482-0.097-1.092,0.385-1.361l0.162-0.092   c0.479-0.276,1.091-0.111,1.365,0.367c0.276,0.479,0.111,1.09-0.367,1.365l-0.184,0.105C29.185,33.706,29.017,33.747,28.852,33.747   z"/>
	<path fill="#558B2F" d="M24.541,34.909c-0.327-0.127-0.577-0.422-0.629-0.793c-0.077-0.548,0.305-1.053,0.852-1.13l0.184-0.026   c0.547-0.085,1.058,0.291,1.14,0.837c0.084,0.546-0.291,1.056-0.837,1.139l-0.209,0.032C24.866,34.992,24.694,34.97,24.541,34.909z   "/>
	<path fill="#558B2F" d="M17.334,32.454c-0.237,0-0.474-0.084-0.665-0.253l-0.167-0.153c-0.402-0.378-0.422-1.011-0.043-1.413   c0.377-0.404,1.011-0.423,1.414-0.044L18,30.707c0.412,0.368,0.449,1,0.081,1.412C17.883,32.341,17.609,32.454,17.334,32.454z"/>
	<path fill="#558B2F" d="M31.986,31.019c-0.211,0-0.423-0.066-0.604-0.203c-0.44-0.334-0.526-0.962-0.192-1.401l0.106-0.144   c0.324-0.447,0.948-0.545,1.396-0.221c0.447,0.324,0.546,0.95,0.221,1.396l-0.13,0.177C32.587,30.883,32.288,31.019,31.986,31.019z   "/>
	<path fill="#558B2F" d="M14.878,29.103c-0.381,0-0.745-0.219-0.912-0.589l-0.088-0.2c-0.217-0.508,0.019-1.095,0.526-1.313   c0.51-0.216,1.096,0.02,1.313,0.527l0.071,0.163c0.228,0.503,0.004,1.095-0.5,1.322C15.155,29.074,15.016,29.103,14.878,29.103z"/>
	<path fill="#558B2F" d="M33.746,27.253c-0.073,0-0.148-0.008-0.223-0.024c-0.538-0.123-0.876-0.658-0.754-1.197l0.04-0.177   c0.112-0.54,0.643-0.891,1.183-0.774c0.541,0.112,0.888,0.643,0.774,1.183l-0.046,0.212C34.615,26.938,34.202,27.253,33.746,27.253   z"/>
	<path fill="#558B2F" d="M14,25.021c-0.552,0-1-0.427-1-0.979l0.002-0.262c0.012-0.552,0.454-0.984,1.021-0.978   c0.552,0.012,0.99,0.47,0.978,1.022L15,24C15,24.552,14.552,25.021,14,25.021z"/>
	<path fill="#558B2F" d="M33.818,23.098c-0.47,0-0.888-0.332-0.98-0.81l-0.037-0.18c-0.114-0.541,0.232-1.071,0.772-1.185   c0.538-0.113,1.07,0.232,1.185,0.772l0.043,0.211c0.105,0.542-0.249,1.067-0.791,1.172C33.945,23.092,33.882,23.098,33.818,23.098z   "/>
	<path fill="#558B2F" d="M14.86,20.935c-0.137,0-0.275-0.028-0.408-0.088c-0.504-0.226-0.729-0.817-0.504-1.321l0.088-0.193   c0.232-0.502,0.827-0.718,1.328-0.487c0.501,0.232,0.719,0.827,0.487,1.328l-0.078,0.17C15.607,20.715,15.242,20.935,14.86,20.935z   "/>
	<path fill="#558B2F" d="M32.198,19.271c-0.314,0-0.624-0.148-0.819-0.425l-0.106-0.148c-0.325-0.447-0.227-1.072,0.221-1.397   c0.447-0.325,1.072-0.226,1.396,0.22l0.126,0.176c0.317,0.452,0.208,1.075-0.243,1.393C32.598,19.212,32.396,19.271,32.198,19.271z   "/>
	<path fill="#558B2F" d="M17.306,17.572c-0.273,0-0.546-0.111-0.744-0.331c-0.37-0.41-0.336-1.042,0.074-1.413l0.165-0.146   c0.418-0.36,1.051-0.314,1.411,0.103c0.361,0.418,0.315,1.049-0.103,1.411l-0.134,0.118C17.783,17.487,17.544,17.572,17.306,17.572   z"/>
	<path fill="#558B2F" d="M29.16,16.433c-0.178,0-0.358-0.047-0.521-0.147l-0.148-0.088c-0.479-0.275-0.644-0.887-0.367-1.366   c0.275-0.478,0.886-0.643,1.365-0.367l0.195,0.115c0.471,0.289,0.619,0.904,0.33,1.375C29.825,16.263,29.497,16.433,29.16,16.433z"/>
	<path fill="#558B2F" d="M20.902,15.49c-0.421,0-0.813-0.269-0.951-0.691c-0.171-0.525,0.116-1.089,0.641-1.26l0.208-0.066   c0.528-0.161,1.087,0.136,1.249,0.665c0.161,0.528-0.136,1.087-0.665,1.249l-0.173,0.054C21.108,15.474,21.004,15.49,20.902,15.49z   "/>
	<path fill="#558B2F" d="M25.234,15.075c-0.042,0-0.084-0.002-0.127-0.008l-0.175-0.02c-0.549-0.057-0.949-0.548-0.892-1.097   c0.056-0.549,0.543-0.957,1.097-0.892l0.222,0.025c0.548,0.07,0.936,0.57,0.866,1.118C26.161,14.706,25.73,15.075,25.234,15.075z"/>
	<path fill="#558B2F" d="M23.012,30.919c-0.054,0-0.108-0.004-0.163-0.014c-0.08-0.013-0.16-0.027-0.24-0.044   c-0.541-0.113-0.886-0.645-0.772-1.185s0.644-0.886,1.185-0.772l0.152,0.028c0.545,0.089,0.914,0.604,0.825,1.148   C23.917,30.571,23.493,30.919,23.012,30.919z M26.867,30.272c-0.353,0-0.695-0.187-0.877-0.519   c-0.267-0.483-0.09-1.092,0.395-1.357l0.148-0.084c0.478-0.282,1.09-0.12,1.368,0.356c0.279,0.477,0.12,1.089-0.356,1.368   l-0.197,0.111C27.195,30.232,27.03,30.272,26.867,30.272z M19.444,28.903c-0.284,0-0.566-0.12-0.764-0.354l-0.144-0.173   c-0.345-0.432-0.276-1.061,0.155-1.406c0.43-0.345,1.059-0.277,1.406,0.154l0.11,0.134c0.357,0.421,0.304,1.052-0.117,1.409   C19.901,28.825,19.672,28.903,19.444,28.903z M29.582,27.203c-0.123,0-0.248-0.022-0.369-0.07   c-0.513-0.204-0.764-0.785-0.561-1.299l0.059-0.155c0.187-0.521,0.761-0.791,1.279-0.604c0.521,0.188,0.79,0.76,0.604,1.279   l-0.082,0.218C30.355,26.964,29.979,27.203,29.582,27.203z M17.999,25.035c-0.542,0-0.987-0.4-0.999-0.944c0-0.007,0-0.083,0-0.091   l0.004-0.236c0.021-0.552,0.482-0.975,1.036-0.963c0.552,0.021,0.983,0.484,0.963,1.036L19,24c0,0.548-0.441,1.028-0.989,1.034   C18.007,25.034,18.003,25.035,17.999,25.035z M29.695,23.107c-0.423,0-0.814-0.27-0.951-0.693l-0.051-0.142   c-0.195-0.517,0.065-1.094,0.582-1.289c0.515-0.195,1.094,0.065,1.289,0.582c0.029,0.077,0.057,0.155,0.082,0.234   c0.17,0.526-0.118,1.089-0.644,1.259C29.9,23.091,29.797,23.107,29.695,23.107z M19.398,21.149c-0.227,0-0.454-0.076-0.641-0.233   c-0.424-0.354-0.48-0.985-0.125-1.409l0.154-0.178c0.37-0.411,1.001-0.443,1.413-0.074c0.41,0.37,0.443,1.002,0.074,1.413   l-0.106,0.123C19.968,21.027,19.684,21.149,19.398,21.149z M27.15,19.894c-0.178,0-0.358-0.047-0.521-0.147l-0.147-0.089   c-0.479-0.275-0.644-0.887-0.367-1.366c0.274-0.478,0.887-0.643,1.365-0.367l0.194,0.115c0.471,0.289,0.619,0.904,0.33,1.375   C27.815,19.724,27.487,19.894,27.15,19.894z M22.942,19.093c-0.475,0-0.896-0.339-0.983-0.822   c-0.098-0.543,0.263-1.064,0.806-1.162l0.236-0.038c0.543-0.079,1.052,0.304,1.128,0.852c0.077,0.547-0.305,1.052-0.852,1.128   l-0.157,0.025C23.061,19.088,23,19.093,22.942,19.093z"/>
</g>
</svg>