<?xml version="1.0" encoding="utf-8"?><!-- Generator: Adobe Illustrator 15.0.0, SVG Export Plug-In . SVG Version: 6.00 Build 0)  --><!DOCTYPE svg PUBLIC "-//W3C//DTD SVG 1.1//EN" "http://www.w3.org/Graphics/SVG/1.1/DTD/svg11.dtd"><svg xmlns="http://www.w3.org/2000/svg" xmlns:xlink="http://www.w3.org/1999/xlink" version="1.1" x="0px" y="0px" width="528" height="528" viewBox="0 0 48 48" enable-background="new 0 0 48 48" xml:space="preserve">
<g>
	<polygon fill="#9FA8DA" points="30.89,23.362 24.592,17.051 26.691,14.946 32.988,21.258  "/>
	<polygon fill="#9FA8DA" points="8.499,41.597 6.399,39.494 23.893,21.959 25.992,24.063  "/>
</g>
<g>
	<path fill="#7986CB" d="M21.657,24.2c0.023-1.026,0.427-3.234,3.069-5.882l7.577-7.595l-2.099-2.104l-7.577,7.594   c-3.14,3.148-4.048,6.513-3.981,8.198l-2.451,2.457l1.4,1.403L21.657,24.2z"/>
	<path fill="#7986CB" d="M37.188,15.647l-7.577,7.595c-2.748,2.754-4.984,3.114-5.919,3.128l-3.998,4.006l1.399,1.402l2.451-2.457   c1.682,0.067,5.026-0.829,8.166-3.977l7.577-7.593L37.188,15.647z"/>
</g>
<path fill="#455A64" d="M8.499,43l2.799-2.806c0.387-0.387,0.387-1.015,0-1.402l-2.1-2.104c-0.386-0.389-1.012-0.389-1.399,0  L5,39.494L8.499,43z"/>
<path fill="#795548" d="M38.93,18.796l-9.696-9.719c-0.198-0.192-0.238-0.502-0.105-0.761l1.327-2.579  c0.41-0.799,1.457-0.986,2.066-0.378c0.607,0.606,1.723,2.382,4.605,5.273c2.887,2.897,4.906,4.264,5.514,4.871  c0.61,0.606,0.417,1.661-0.377,2.067l-2.574,1.334C39.432,19.034,39.127,18.991,38.93,18.796z"/>
</svg>