<?xml version="1.0" encoding="utf-8"?><!-- Generator: Adobe Illustrator 15.0.0, SVG Export Plug-In . SVG Version: 6.00 Build 0)  --><!DOCTYPE svg PUBLIC "-//W3C//DTD SVG 1.1//EN" "http://www.w3.org/Graphics/SVG/1.1/DTD/svg11.dtd"><svg xmlns="http://www.w3.org/2000/svg" xmlns:xlink="http://www.w3.org/1999/xlink" version="1.1" x="0px" y="0px" width="528" height="528" viewBox="0 0 48 48" enable-background="new 0 0 48 48" xml:space="preserve">
<g>
	<path fill="#FFCC80" d="M13.097,39.641c1.72,2.517,3.734,4.002,6.336,3.102l0.177-0.061c2.602-0.901,4.061-3.525,3.086-6.365   c-0.975-2.84-5.217-2.746-6.594-8.293c-1.376-5.546,6.193-7.087,6.274-12.801c-0.204-4.987-6.336-3.101-6.336-3.101l-7.066,2.816   c0,0-4.929,1.555-2.762,7.311C6.212,22.248,11.376,37.125,13.097,39.641z"/>
	<ellipse fill="#FFCC80" cx="20.193" cy="6.495" rx="2.492" ry="3.488"/>
	<ellipse fill="#FFCC80" cx="14.926" cy="7.669" rx="1.779" ry="2.503"/>
	<ellipse fill="#FFCC80" cx="11.019" cy="9.983" rx="1.495" ry="2.003"/>
	<ellipse fill="#FFCC80" cx="4.997" cy="14.865" rx="0.997" ry="1.502"/>
	<ellipse fill="#FFCC80" cx="7.696" cy="12.363" rx="1.323" ry="1.773"/>
	<path fill="#FFCC80" d="M13.097,39.641c1.72,2.517,3.734,4.002,6.336,3.102l0.177-0.061c2.602-0.901,4.061-3.525,3.086-6.365   c-0.975-2.84-5.217-2.746-6.594-8.293c-1.376-5.546,6.193-7.087,6.274-12.801c-0.204-4.987-6.336-3.101-6.336-3.101l-7.066,2.816   c0,0-4.929,1.555-2.762,7.311C6.212,22.248,11.376,37.125,13.097,39.641z"/>
	<ellipse fill="#FFCC80" cx="20.193" cy="6.495" rx="2.492" ry="3.488"/>
	<ellipse fill="#FFCC80" cx="14.926" cy="7.669" rx="1.779" ry="2.503"/>
	<ellipse fill="#FFCC80" cx="11.019" cy="9.983" rx="1.495" ry="2.003"/>
	<ellipse fill="#FFCC80" cx="4.997" cy="14.865" rx="0.997" ry="1.502"/>
	<ellipse fill="#FFCC80" cx="7.696" cy="12.363" rx="1.323" ry="1.773"/>
	<path fill="#FFCC80" d="M13.097,39.641c1.72,2.517,3.734,4.002,6.336,3.102l0.177-0.061c2.602-0.901,4.061-3.525,3.086-6.365   c-0.975-2.84-5.217-2.746-6.594-8.293c-1.376-5.546,6.193-7.087,6.274-12.801c-0.204-4.987-6.336-3.101-6.336-3.101l-7.066,2.816   c0,0-4.929,1.555-2.762,7.311C6.212,22.248,11.376,37.125,13.097,39.641z"/>
	<ellipse fill="#FFCC80" cx="20.193" cy="6.495" rx="2.492" ry="3.488"/>
	<ellipse fill="#FFCC80" cx="14.926" cy="7.669" rx="1.779" ry="2.503"/>
	<ellipse fill="#FFCC80" cx="11.019" cy="9.983" rx="1.495" ry="2.003"/>
	<ellipse fill="#FFCC80" cx="4.997" cy="14.865" rx="0.997" ry="1.502"/>
	<ellipse fill="#FFCC80" cx="7.696" cy="12.363" rx="1.323" ry="1.773"/>
	<ellipse fill="#FFCC80" cx="27.807" cy="6.495" rx="2.492" ry="3.488"/>
	<path fill="#FFCC80" d="M34.902,39.641c-1.721,2.517-3.733,4.002-6.336,3.102l-0.176-0.061c-2.603-0.901-4.062-3.525-3.086-6.365   c0.975-2.84,5.217-2.746,6.594-8.293c1.377-5.546-6.193-7.087-6.274-12.801c0.204-4.987,6.336-3.101,6.336-3.101l7.065,2.816   c0,0,4.93,1.555,2.763,7.311C41.788,22.248,36.623,37.125,34.902,39.641z"/>
	<ellipse fill="#FFCC80" cx="33.074" cy="7.669" rx="1.779" ry="2.503"/>
	<ellipse fill="#FFCC80" cx="36.98" cy="9.983" rx="1.496" ry="2.003"/>
	<ellipse fill="#FFCC80" cx="43.003" cy="14.865" rx="0.997" ry="1.502"/>
	<ellipse fill="#FFCC80" cx="40.305" cy="12.363" rx="1.322" ry="1.773"/>
</g>
<path fill="#455A64" d="M27,21c0,0.125,0.029,0.243,0.07,0.354c0.017,0.04,0.039,0.074,0.059,0.11  c0.037,0.069,0.079,0.136,0.131,0.194c0.027,0.031,0.059,0.06,0.09,0.087c0.061,0.052,0.127,0.096,0.197,0.133  c0.033,0.017,0.064,0.037,0.102,0.05C27.758,21.971,27.875,22,28,22c0.124,0,0.24-0.029,0.35-0.071  c0.07-0.026,0.129-0.068,0.188-0.107c0.048-0.032,0.101-0.057,0.142-0.096c0.049-0.046,0.084-0.103,0.121-0.157  c0.035-0.049,0.075-0.095,0.102-0.15c0.025-0.056,0.035-0.117,0.05-0.176c0.019-0.066,0.038-0.131,0.041-0.203  c0.003-0.066-0.015-0.134-0.025-0.202C28.887,20.365,28.495,20,28,20C27.447,20,27,20.447,27,21z"/>
<path fill="#00ACC1" d="M28,15l-5,4v15h10V19L28,15z"/>
<g>
	<path fill="#455A64" d="M26,11c0-0.618,0.008-1.212,0.443-1.59c-0.453-0.416-0.797-1.036-0.979-1.764C24.497,8.287,24,9.401,24,11   c0,0.638,0.791,3.3,1.616,5.907l1.677-1.342C26.566,13.246,26.029,11.396,26,11z"/>
	<path fill="#455A64" d="M30.191,7.456c-0.149,0.726-0.459,1.351-0.877,1.799c0.67,0.352,0.686,1.026,0.687,1.725   c-0.051,0.688-1.54,5.475-2.949,9.705c-0.175,0.524,0.108,1.09,0.632,1.265C27.789,21.984,27.896,22,28,22   c0.419,0,0.809-0.265,0.948-0.684C29.866,18.564,32,12.049,32,11C32,9.225,31.384,8.049,30.191,7.456z"/>
</g>
</svg>