<?xml version="1.0" encoding="utf-8"?><!-- Generator: Adobe Illustrator 15.0.0, SVG Export Plug-In . SVG Version: 6.00 Build 0)  --><!DOCTYPE svg PUBLIC "-//W3C//DTD SVG 1.1//EN" "http://www.w3.org/Graphics/SVG/1.1/DTD/svg11.dtd"><svg xmlns="http://www.w3.org/2000/svg" xmlns:xlink="http://www.w3.org/1999/xlink" version="1.1" x="0px" y="0px" width="528" height="528" viewBox="0 0 48 48" enable-background="new 0 0 48 48" xml:space="preserve">
<rect x="22" y="38" fill="#90CAF9" width="4" height="7"/>
<path fill="#1565C0" d="M37,5c0,0-6-2-13-2S11,5,11,5S8,6.001,8,8v2v19v4c0,0,0,7,7,7s11,0,18,0s7-7,7-7v-4V10V8C40,6.001,37,5,37,5  z"/>
<path fill="#0D47A1" d="M25,37h-2c-1.657,0-3,1.344-3,3h8C28,38.344,26.657,37,25,37z"/>
<rect x="12" y="9" fill="#FFFFFF" width="24" height="17"/>
<path fill="#F44336" d="M20,19.5c0-2.209,4-8,4-8s4,5.791,4,8s-1.79,4-4,4S20,21.709,20,19.5z"/>
<g>
	<path fill="#90CAF9" d="M23,34c0,0.553-0.447,1-1,1h-9c-0.553,0-1-0.447-1-1v-4c0-0.553,0.447-1,1-1h9c0.553,0,1,0.447,1,1V34z"/>
	<path fill="#90CAF9" d="M36,34c0,0.553-0.447,1-1,1h-9c-0.553,0-1-0.447-1-1v-4c0-0.553,0.447-1,1-1h9c0.553,0,1,0.447,1,1V34z"/>
</g>
</svg>