<?xml version="1.0" encoding="utf-8"?><!-- Generator: Adobe Illustrator 15.0.0, SVG Export Plug-In . SVG Version: 6.00 Build 0)  --><!DOCTYPE svg PUBLIC "-//W3C//DTD SVG 1.1//EN" "http://www.w3.org/Graphics/SVG/1.1/DTD/svg11.dtd"><svg xmlns="http://www.w3.org/2000/svg" xmlns:xlink="http://www.w3.org/1999/xlink" version="1.1" x="0px" y="0px" width="528" height="528" viewBox="0 0 48 48" enable-background="new 0 0 48 48" xml:space="preserve">
<path fill="#90CAF9" d="M39,40c0,1.104-0.896,2-2,2H11c-1.104,0-2-0.896-2-2V20V7c0-1.104,0.896-2,2-2h26c1.104,0,2,0.896,2,2v13V40  z"/>
<path fill="#1E88E5" d="M39,24v-2.062l-0.484,0.121C38.438,22.079,30.662,24,24,24S9.563,22.079,9.484,22.06L9,21.938V24  c0,0,8,2,15,2S39,24,39,24z"/>
<path fill="#0D47A1" d="M24,26c3.451,0,7.142-0.486,10-0.979V5H14v20.021C16.859,25.514,20.549,26,24,26z"/>
<g>
	<rect x="5" y="19" fill="#455A64" width="4" height="6"/>
	<rect x="39" y="19" fill="#455A64" width="4" height="6"/>
	<rect x="5" y="24" fill="#455A64" width="2" height="16"/>
	<rect x="5" y="40" fill="#455A64" width="38" height="2"/>
	<rect x="41" y="23" fill="#455A64" width="2" height="18"/>
</g>
<g>
	<polygon fill="#E3F2FD" points="31,14 19,14 17,10 29,10  "/>
	<polygon fill="#E3F2FD" points="31,20 19,20 17,16 29,16  "/>
</g>
<path fill="#FF3D00" d="M21,34c0-1.656,3-6,3-6s3,4.344,3,6s-1.343,3-3,3S21,35.656,21,34z"/>
</svg>