<?xml version="1.0" encoding="utf-8"?><!-- Generator: Adobe Illustrator 15.0.0, SVG Export Plug-In . SVG Version: 6.00 Build 0)  --><!DOCTYPE svg PUBLIC "-//W3C//DTD SVG 1.1//EN" "http://www.w3.org/Graphics/SVG/1.1/DTD/svg11.dtd"><svg xmlns="http://www.w3.org/2000/svg" xmlns:xlink="http://www.w3.org/1999/xlink" version="1.1" x="0px" y="0px" width="528" height="528" viewBox="0 0 48 48" enable-background="new 0 0 48 48" xml:space="preserve">
<g>
	<path fill="#F44336" d="M8.643,23.479v0.161c0,0,0,0.163,0.159,0.163h0.165v0.164c0.162,0.164,0,0.651,0.162,0.651   c0.161,0,0.318,0,0.481-0.165c0.163-0.159,0.163-0.159,0.324-0.322c0.161,0,0.319-0.164,0.483-0.164   c0.161,0,0.161-0.164,0.322-0.164s0-0.163,0.161-0.163c0.159,0,0.159-0.161,0.322,0c0,0,0,0.163,0.161,0.163   c0.163,0,0.163,0,0.163,0.164s0.319,0,0.319,0l0.325-0.164c0.161,0,0.482-0.163,0.482-0.163l0.323-0.161   c3.71-1.792,6.773-2.773,9.515-3.912c4.192-1.628,11.611-3.583,13.065-3.91c0.158,0,0.479-0.163,0.479-0.163s0.165,0,0.165-0.164   c0-0.162,0-0.323,0-0.323s0.159-0.328,0.159-0.491c-0.324-0.323-0.486-0.323-0.486-0.323s0-0.164,0-0.33   c0-0.159-0.159-0.159-0.317-0.32c0-0.165,0-0.33,0-0.492s-0.165-0.162-0.165-0.162s0,0,0-0.164h-0.162v-0.163l-0.161-0.162   c0,0,0.161,0.162,0.161,0v-0.164c0,0-0.161,0-0.319,0c0,0-0.163,0-0.324,0c-0.162,0-0.162,0.164-0.323,0.164   c-0.16,0-0.321,0-0.482,0c-0.162,0-0.162,0.162-0.323,0.162c-1.131,0.327-6.289,1.795-10.158,3.259   c-3.549,1.305-7.903,3.259-10.483,4.728c-1.936,0.977-3.063,1.627-3.39,1.954c-0.157,0.162-0.48,0.327-0.48,0.327   c0,0.161-0.165,0.324-0.324,0.324c-0.158,0-0.158,0.162-0.158,0.162s-0.073,0.004-0.122,0.055c0.023,0.015,0.058,0.047,0.122,0.11   C8.643,23.479,8.643,23.479,8.643,23.479z"/>
	<path fill="#F44336" d="M20.416,13.212c0,0,0,0.165,0.161,0.165c0,0,0,0,0.16,0.165c0,0,0,0.161,0.161,0.161   c0,0,0,0.159,0.162,0.159c0,0,0.161,0.166,0.161,0.33c0,0.163,0.163,0.163,0.321,0.163c0.161,0,0.161,0.16,0.161,0.16   s0.162,0,0.324,0h0.32h0.164c0,0,0,0,0,0.163c0,0,0.163,0,0.324,0c0.157,0,0.32,0,0.32-0.163l0.163-0.16l0.161-0.163   c0-0.164,0.16,0,0.16-0.164l0.16-0.166c0,0,0.163-0.159,0.324-0.32l0.481-0.654l0.162-0.327c0,0,0.16-0.488,0.16-0.651l0.165-0.327   c0-0.16,0-0.323,0-0.486c0-0.165,0-0.329,0.157-0.488c0-0.163-0.157-0.492-0.157-0.492V9.953c0,0,0,0,0-0.161V9.629   c0-0.164-0.165-0.164-0.165-0.327c0-0.161-0.16-0.161-0.16-0.325c0-0.163-0.162-0.163-0.162-0.163V8.65   c0-0.164-0.481-0.487-0.481-0.487s-0.161,0-0.161-0.163h-0.163c-0.16,0-0.16,0-0.16,0s-0.16,0-0.321,0l-0.163,0.163   c-0.163,0-0.32,0-0.32,0h-0.161l-0.163,0.163h-0.164h-0.159c0,0-0.323,0.16-0.323,0.324c0,0-0.323,0.163-0.323,0.326   c-0.158,0-0.482,0.488-0.482,0.488c0,0.164-0.323,0.327-0.323,0.488c0,0.162-0.16,0.327-0.16,0.491   c0,0.163-0.161,0.322-0.161,0.486c0,0.165-0.161,0.491-0.161,0.491c0,0.16,0,0.16-0.163,0.324c0,0.163,0,0.326,0,0.488   c0,0.164,0,0.489,0.163,0.653C20.255,13.05,20.416,13.05,20.416,13.212z"/>
	<path fill="#F44336" d="M16.063,33.58c0,0,0.158-0.16,0.158-0.325c0-0.163,0.162-0.489,0.162-0.65   c0.163-0.163,0.163-0.326,0.163-0.491c0-0.16,0.161-0.323,0.161-0.486c0-0.164,0.16-0.652,0.16-0.652   c0-0.163,0.159-0.327,0.322-0.49c0-0.161,0.162-0.488,0.162-0.651c0-0.326,0.321-0.977,0.481-1.14c0-0.162,0.162-0.49,0.162-0.651   l0.16-0.327v-0.324c0,0,0.164-0.164,0.164-0.328c0,0,0.159-0.487,0.159-0.651c0,0,0.161-0.489,0.323-0.489   c0-0.161,0.164-0.324,0.164-0.487c0-0.165,0.161-0.488,0.161-0.488c0-0.163,0.157-0.492,0.157-0.651   c0-0.163,0.325-0.654,0.325-0.815c0-0.165,0-0.327,0.161-0.327c0,0,0.16-0.163,0.16-0.324c0-0.165,0-0.165,0-0.327   c0-0.163,0-0.163,0-0.163s0-0.164-0.16-0.164c-0.161,0-0.486,0.164-0.644,0.327c-0.324,0.162-2.42,1.14-3.87,1.794   c-1.295,0.651-3.873,1.953-5.484,2.768c-1.452,0.817-4.036,2.12-4.84,2.609c0.16,0.324-0.322,0.651-0.483,0.813   c-0.162,0.163-0.322,0.49-0.322,0.654c0,0.159,0,0.651,0.16,1.14c0.162,0.487,0.323,0.977,0.487,1.142   c0.158,0.16,0.318,0.323,0.644,0.16c0.161-0.16,1.291-0.488,1.771-0.651c0.484-0.163,1.129-0.487,1.776-0.65   c0.644-0.165,2.257-0.815,2.257-0.815s-2.095,1.142-2.422,1.303c-1.127,0.489-4.352,2.281-4.674,2.609C3.161,35.7,3,35.86,3,36.351   c0,0.488,0.161,1.14,0.48,1.467c0.163,0.489,0.647,0.979,0.97,1.305c0.325,0.163,0.644-0.165,0.969-0.165   c0.318-0.16,4.835-2.28,5.482-2.606c0.483-0.324,5-2.28,5.162-2.444C16.063,33.906,16.063,33.743,16.063,33.58z"/>
	<path fill="#F44336" d="M27.351,32.113l-0.161-0.16V31.79v-0.163v-0.164v-0.165v-0.159l-0.161-0.163c0-0.164,0-0.328,0-0.328   l-0.162-0.163l-0.161-0.161c0-0.165,0-0.327,0-0.327c-0.16-0.163-0.16-0.163-0.16-0.163c-0.161,0-0.161-0.161-0.161-0.161   l-0.162-0.165v-0.161l-0.163-0.163c-0.157,0-0.157-0.166-0.157-0.166c0-0.16-0.326-0.485-0.326-0.485   c-0.161,0-0.323-0.166-0.323-0.166c-0.157,0-0.157-0.162-0.157-0.162l-0.165-0.161V27.88h-0.16l-0.321-0.33   c0-0.159-0.163-0.159-0.163-0.159c0-0.164-0.159-0.164-0.159-0.164c-0.161,0-0.161,0.164-0.161,0.164l-0.163,0.489   c0,0.162-0.16,0.323-0.16,0.323c0,0.162,0,0.162,0,0.328c0,0.162-0.321,0.485-0.321,0.651c0,0.163-0.326,0.489-0.326,0.65   l-0.157,0.49c0,0.161-0.161,0.324-0.161,0.324c-0.163,0.164-0.163,0.328-0.163,0.328l-0.164,0.163l-0.159,0.324   c0,0-0.161,0.164-0.161,0.327c-0.162,0.163-0.324,0.323-0.324,0.488c-0.161,0-0.161,0.163-0.161,0.163l-0.158,0.163   c0,0-0.163,0.161-0.163,0.324c-0.161,0.163-0.323,0.326-0.323,0.491c0,0.16-0.161,0.486-0.161,0.486   c0,0.164-0.321,0.328-0.321,0.487c-0.161,0.165-0.161,0.33-0.161,0.33l-0.163,0.162c0,0.161-0.32,0.489-0.32,0.651   c-0.161,0.163-0.324,0.489-0.324,0.489c0,0.161-0.162,0.324-0.162,0.489c0,0,0,0.161-0.157,0.161h-0.161c0,0,0.161-0.161,0-0.161   c-0.163,0-0.163,0.161-0.163,0.161h-0.163h-0.161H18.32h-0.164h-0.16c-0.162,0,0.16-0.161,0-0.326c0-0.163-0.162,0-0.162,0   c-0.16,0-0.16-0.163-0.16-0.163h-0.162l-0.159-0.161H17.19c0,0,0,0-0.163,0c-0.159,0.161-0.159,0.161-0.159,0   c0,0,0-0.166-0.16-0.166h-0.161V35.7h-0.163c-0.162,0-0.162,0-0.162-0.163h-0.158c-0.162,0-0.162-0.328-0.162-0.49c0,0,0,0-0.162,0   c-0.164,0.162-0.808,0.49-1.128,0.653c-0.163,0.16-0.807,0.65-0.968,0.65c-0.326,0.326-0.326,0.488-0.326,0.651   c-0.159,0.326-0.159,0.98,0.164,1.632c0.323,0.814,0.646,1.139,0.967,1.302c0.163,0.163,0.483,0,0.969-0.326   c0.484-0.324,4.999-2.607,7.096-3.583c1.452-0.817,4.999-2.446,4.999-2.446l-0.161-0.16c0-0.165,0-0.165,0.161-0.815v-0.163   l-0.161-0.163V32.113z"/>
	<path fill="#F44336" d="M44.929,23.641c-0.161-0.651-0.483-1.467-0.646-1.79c-0.161-0.163-0.161-0.327-0.483-0.163   c-0.644,0.163-4.679,0.976-7.577,1.792c-2.904,0.815-6.13,1.79-6.614,1.955c-0.159,0-0.324,0-0.159,0.163   c0.159,0.163,0.159,0.163,0.318,0.324c0,0,0.163,0.164,0.325,0.164c0.161,0,0.161,0.162,0.161,0.162s0.161,0.163,0.161,0.327   l0.161,0.324l0.161,0.163c0,0,0,0.164,0.162,0.164c0,0,0.16,0.164,0.16,0.323l0.08,0.243c0.089,0.121,0.205,0.244,0.244,0.386   c0.027,0.101,0.004,0.233-0.021,0.365l0.452,0.489c0.117,0.083,0.074-0.18,0.111-0.019c0.04,0.172-0.009,0.342-0.049,0.513   l0.107,0.38c0.127,0.08,0.127,0.08,0.17,0.426c0,0,3.693-1.97,6.644-3.106c0.648-0.164,2.42-0.815,3.063-0.979   c0.648-0.162,1.938-0.487,2.26-0.65c0.484-0.163,0.807-0.163,0.807-0.328C44.929,25.27,45.089,24.454,44.929,23.641z"/>
	<path fill="#F44336" d="M39.604,20.056c0.16-0.163,0.326-0.163,0.326-0.488c-0.166-0.489-0.326-1.302-0.645-1.792   c-0.327-0.651-0.645-0.979-0.971-1.304c-0.16-0.163-0.16-0.163-0.482,0c-1.129,0.325-5.485,1.794-6.934,2.281   c-1.777,0.325-4.998,1.467-6.292,1.953c-0.159,0.166-0.322,0.166-0.159,0.33c0.159,0.163,0.159,0.163,0.321,0.163   c0,0,0.325,0.324,0.482,0.324c0.162,0.164,0.323,0.488,0.488,0.488l0.161,0.162c0.157,0,0.157,0.164,0.157,0.164l0.163,0.163   l0.162,0.162l0.161,0.165l0.16,0.161l0.161,0.163l0.323,0.327l0.322,0.324l0.483,0.491c0,0,0.164,0.159,0.164,0.324   c0.157,0.327,0.157,0.164,0.48,0c0.81-0.487,3.229-1.63,4.518-2.281C35.09,22.012,38.315,20.547,39.604,20.056z"/>
</g>
</svg>