<?xml version="1.0" encoding="utf-8"?><!-- Generator: Adobe Illustrator 15.0.0, SVG Export Plug-In . SVG Version: 6.00 Build 0)  --><!DOCTYPE svg PUBLIC "-//W3C//DTD SVG 1.1//EN" "http://www.w3.org/Graphics/SVG/1.1/DTD/svg11.dtd"><svg xmlns="http://www.w3.org/2000/svg" xmlns:xlink="http://www.w3.org/1999/xlink" version="1.1" x="0px" y="0px" width="528" height="528" viewBox="0 0 48 48" enable-background="new 0 0 48 48" xml:space="preserve">
<path fill="#455A64" d="M19,12V8h10v4h2V8c0-1.104-0.896-2-2-2H19c-1.104,0-2,0.896-2,2v4H19z"/>
<path fill="#F44336" d="M44,37c0,2.762-2.238,5-5,5H9c-2.762,0-5-2.238-5-5V17c0-2.762,2.238-5,5-5h30c2.762,0,5,2.238,5,5V37z"/>
<circle fill="#FFFFFF" cx="24" cy="27" r="10"/>
<g>
	<rect x="22" y="21" fill="#F44336" width="4" height="12"/>
	<rect x="18" y="25" fill="#F44336" width="12" height="4"/>
</g>
</svg>