<?xml version="1.0" encoding="iso-8859-1"?><!-- Generator: Adobe Illustrator 19.1.1, SVG Export Plug-In . SVG Version: 6.00 Build 0)  --><svg xmlns="http://www.w3.org/2000/svg" xmlns:xlink="http://www.w3.org/1999/xlink" version="1.1" id="Layer_1" x="0px" y="0px" viewBox="0 0 48 48" enable-background="new 0 0 48 48" xml:space="preserve" width="528" height="528">
<path fill="#90CAF9" d="M42,37c0-21.243-4.425-25.667-5.879-27.121l-0.284-0.284L31.452,7.09L30,6h-0.454l-1.058-0.604L28.143,6  h-8.286l-0.345-0.604L18.454,6H18l-1.452,1.089l-4.386,2.506l-0.284,0.284C10.425,11.333,6,15.757,6,37h6  c0-9.739,0.954-15.43,2-18.746V44h20V18.255c1.046,3.317,2,9.007,2,18.745H42z"/>
<path fill="#0D47A1" d="M20,4c0,0,2-1,4-1s4,1,4,1l-4,15L20,4z"/>
<path fill="#E3F2FD" d="M27,24c0,0.553-0.448,1-1,1c-0.553,0-1-0.447-1-1s0.447-1,1-1C26.552,23,27,23.447,27,24z M26,28  c-0.553,0-1,0.447-1,1s0.447,1,1,1c0.552,0,1-0.447,1-1S26.552,28,26,28z M26,33c-0.553,0-1,0.447-1,1s0.447,1,1,1  c0.552,0,1-0.447,1-1S26.552,33,26,33z"/>
<path fill="#2196F3" d="M34,39h-2.208C30.802,39,30,38.198,30,37.208V32h4V39z M14,39h2.208C17.198,39,18,38.198,18,37.208V32h-4V39  z M34,20h-4v4.208C30,25.198,30.802,26,31.792,26H34V20z M25,20L20,4l-4.25,3.563L18,11l-2,2L25,20z M23,22l9-9l-2-2l2.25-3.5L28,4  L23,22z"/>
<polygon fill="#1976D2" points="24.235,17.553 23.136,14.036 22.105,17.749 23.812,19.076 "/>
<polygon fill="#64B5F6" points="22.105,17.749 21.073,21.465 21,21.727 21,22 21,44 23,44 23,22 23.812,19.076 "/>
</svg>