<?xml version="1.0" encoding="utf-8"?><!-- Generator: Adobe Illustrator 19.1.1, SVG Export Plug-In . SVG Version: 6.00 Build 0)  --><svg xmlns="http://www.w3.org/2000/svg" xmlns:xlink="http://www.w3.org/1999/xlink" version="1.1" x="0px" y="0px" viewBox="0 2 48 48" enable-background="new 0 2 48 48" xml:space="preserve" width="528" height="528">
<path fill="#FFB74D" d="M28,14c-2.2,0-4-1.8-4-4s1.8-4,4-4s4,1.8,4,4S30.2,14,28,14"/>
<path fill="#795548" d="M30.8,27.1l-0.2-0.6c-0.6-1-2.2-2.2-4.1-1c-1,0.6-1.5,1.6-1.5,2.7c0.1,0.8,0.4,1.3,0.4,1.4l0.5,0.9l1.7-1  l-0.5-0.9c0,0-0.1-0.3-0.2-0.5c0-0.2,0-0.5,0.5-0.8c0.7-0.4,1.1,0,1.4,0.3L34,47h2L30.8,27.1z"/>
<g>
	<path fill="none" stroke="#2196F3" stroke-width="7" stroke-linecap="round" stroke-miterlimit="10" d="M21,15c0,0-4.3,3.3-5,12"/>
	
		<line fill="none" stroke="#2196F3" stroke-width="4" stroke-linecap="round" stroke-miterlimit="10" x1="22" y1="14" x2="30" y2="27"/>
	<path fill="#2196F3" d="M14,47c-0.3,0-0.5-0.1-0.8-0.2c-1-0.4-1.5-1.6-1-2.6l3.7-8.3l-3.1-7.5c-0.4-1,0.5-1.9,1.5-2.3   s2.2,0.1,2.6,1.2l3,8c0.2,0.5,0.2,1,0,1.5l-4,9C15.5,46.6,14.8,47,14,47z"/>
	<path fill="#2196F3" d="M25,47c-0.9,0-1.7-0.6-2-1.6l-1.9-8.5l-8.4-8.5c0,0,1.1-1.2,1.9-1.9c0.8-0.7,2.6-1.3,3.3-0.5l6.5,8.7   c0.2,0.3,0.4,0.6,0.4,0.9l2,9c0.2,1.1-0.4,2.1-1.5,2.4C25.3,47,25.1,47,25,47z"/>
</g>
<path fill="#1976D2" d="M12.8,28.4l6.6,9.5l0,0l0.5-1.1c0.2-0.3,0.2-0.7,0.1-1.1L12.8,28.4z"/>
</svg>