<?xml version="1.0" encoding="utf-8"?><!-- Generator: Adobe Illustrator 15.0.0, SVG Export Plug-In . SVG Version: 6.00 Build 0)  --><!DOCTYPE svg PUBLIC "-//W3C//DTD SVG 1.1//EN" "http://www.w3.org/Graphics/SVG/1.1/DTD/svg11.dtd"><svg xmlns="http://www.w3.org/2000/svg" xmlns:xlink="http://www.w3.org/1999/xlink" version="1.1" x="0px" y="0px" width="528" height="528" viewBox="0 0 48 48" enable-background="new 0 0 48 48" xml:space="preserve">
<g>
	<path fill="#FF5252" d="M42,25c0,0,1-0.075,1,6c0,8-9.059,9-19,9S5,39,5,31c0-6.075,1-6,1-6c0,6,5,8,18,8S42,31,42,25z"/>
	<path fill="#FF5252" d="M42,25c-2,4.999-34,5.001-36,0S3,12,3,12s4,2,10,0c1.897-0.633,5-4,11-4s9.285,2.971,11,4c5,3,10,0,10,0   S44,20.001,42,25z"/>
</g>
<path fill="#455A64" d="M12.369,31.988c6.559,0.338,16.703,0.338,23.262,0C40.102,30.858,42,28.687,42,25c0-4-3-6-18-6S6,21,6,25  C6,28.687,7.898,30.858,12.369,31.988z"/>
<g>
	<path fill="#FFFFFF" d="M29,18.258c0-1.381-1.119-2.5-2.5-2.5s-2.5,1.119-2.5,2.5c0,0.114,0,3.5,0,3.5c0,0.553,0.447,1,1,1h3   c0.553,0,1-0.447,1-1C29,21.758,29,18.372,29,18.258z"/>
	<path fill="#FFFFFF" d="M24,18.258c0-1.381-1.119-2.5-2.5-2.5s-2.5,1.119-2.5,2.5c0,0.114,0,3.5,0,3.5c0,0.553,0.447,1,1,1h3   c0.553,0,1-0.447,1-1C24,21.758,24,18.372,24,18.258z"/>
	<path fill="#FFFFFF" d="M17,16.758c-1.104,0-2,0.896-2,2v3c0,0.553,0.447,1,1,1h2c0.553,0,1-0.447,1-1v-3   C19,17.653,18.104,16.758,17,16.758z"/>
	<path fill="#FFFFFF" d="M31,16.758c-1.104,0-2,0.896-2,2v3c0,0.553,0.447,1,1,1h2c0.553,0,1-0.447,1-1v-3   C33,17.653,32.104,16.758,31,16.758z"/>
	<path fill="#FFFFFF" d="M35,17.758c-1.104,0-2,0.896-2,2v2c0,0.553,0.447,1,1,1h2c0.553,0,1-0.447,1-1v-2   C37,18.653,36.104,17.758,35,17.758z"/>
	<path fill="#FFFFFF" d="M39,18.758c-1.104,0-2,0.896-2,2v2c0,0.553,0.447,1,1,1h2c0.553,0,1-0.447,1-1v-2   C41,19.653,40.104,18.758,39,18.758z"/>
	<path fill="#FFFFFF" d="M13,17.758c-1.104,0-2,0.896-2,2v2c0,0.553,0.447,1,1,1h2c0.553,0,1-0.447,1-1v-2   C15,18.653,14.104,17.758,13,17.758z"/>
	<path fill="#FFFFFF" d="M9,18.758c-1.104,0-2,0.896-2,2v2c0,0.553,0.447,1,1,1h2c0.553,0,1-0.447,1-1v-2   C11,19.653,10.104,18.758,9,18.758z"/>
	<path fill="#FFFFFF" d="M19,29h-2c-0.553,0-1,0.447-1,1v3c0,1.104,0.896,2,2,2s2-0.896,2-2v-3C20,29.447,19.553,29,19,29z"/>
	<path fill="#FFFFFF" d="M23,29h-2c-0.553,0-1,0.447-1,1v3c0,1.104,0.896,2,2,2s2-0.896,2-2v-3C24,29.447,23.553,29,23,29z"/>
	<path fill="#FFFFFF" d="M27,29h-2c-0.553,0-1,0.447-1,1v3c0,1.104,0.896,2,2,2s2-0.896,2-2v-3C28,29.447,27.553,29,27,29z"/>
	<path fill="#FFFFFF" d="M31,29h-2c-0.553,0-1,0.447-1,1v3c0,1.104,0.896,2,2,2s2-0.896,2-2v-3C32,29.447,31.553,29,31,29z"/>
	<path fill="#FFFFFF" d="M35,29h-2c-0.553,0-1,0.447-1,1v2c0,1.104,0.896,2,2,2s2-0.896,2-2v-2C36,29.447,35.553,29,35,29z"/>
	<path fill="#FFFFFF" d="M39,28h-2c-0.553,0-1,0.447-1,1v2c0,1.104,0.896,2,2,2s2-0.896,2-2v-2C40,28.447,39.553,28,39,28z"/>
	<path fill="#FFFFFF" d="M15,29h-2c-0.553,0-1,0.447-1,1v2c0,1.104,0.896,2,2,2s2-0.896,2-2v-2C16,29.447,15.553,29,15,29z"/>
	<path fill="#FFFFFF" d="M11,28H9c-0.553,0-1,0.447-1,1v2c0,1.104,0.896,2,2,2s2-0.896,2-2v-2C12,28.447,11.553,28,11,28z"/>
</g>
</svg>