<?xml version="1.0" encoding="utf-8"?><!-- Generator: Adobe Illustrator 15.0.0, SVG Export Plug-In . SVG Version: 6.00 Build 0)  --><!DOCTYPE svg PUBLIC "-//W3C//DTD SVG 1.1//EN" "http://www.w3.org/Graphics/SVG/1.1/DTD/svg11.dtd"><svg xmlns="http://www.w3.org/2000/svg" xmlns:xlink="http://www.w3.org/1999/xlink" version="1.1" x="0px" y="0px" width="528" height="528" viewBox="0 0 48 48" enable-background="new 0 0 48 48" xml:space="preserve">
<path fill="#7986CB" d="M40,15.001L24,21l-6.45-1.792l-9.599,3.645l-0.632,0.239L24,29l16.059-6.555c0,0,2.941-1.279,2.941-4.362  S40,15.001,40,15.001z"/>
<g>
	<path fill="#C5CAE9" d="M24,29L7.319,23.092C6.434,23.294,5,23.951,5,26.083c0,3.083,2.942,4.362,2.942,4.362L24,37l18-8   l-9.461-3.484L24,29z"/>
	<path fill="#C5CAE9" d="M6,16l18,5l16-5.999l-13.941-4.307c0,0-2.184-0.485-4.071-0.007C20.584,11.043,6,16,6,16z"/>
</g>
</svg>