<?xml version="1.0" encoding="utf-8"?><!-- Generator: Adobe Illustrator 15.0.0, SVG Export Plug-In . SVG Version: 6.00 Build 0)  --><!DOCTYPE svg PUBLIC "-//W3C//DTD SVG 1.1//EN" "http://www.w3.org/Graphics/SVG/1.1/DTD/svg11.dtd"><svg xmlns="http://www.w3.org/2000/svg" xmlns:xlink="http://www.w3.org/1999/xlink" version="1.1" x="0px" y="0px" width="528" height="528" viewBox="0 0 48 48" enable-background="new 0 0 48 48" xml:space="preserve">
<path fill="none" stroke="#F8BBD0" stroke-width="4" d="M38.001,31.939V20C38.001,20,38,8,26,8c0,0-4,0-7,4"/>
<g>
	<path fill="none" stroke="#C2185B" stroke-width="3" stroke-linecap="round" d="M13.063,15.063c0,0-1.091,1.564-2.014,4.907"/>
	<path fill="none" stroke="#C2185B" stroke-width="3" stroke-linecap="round" d="M10.524,28.313c0,0,0.347,4.25,1.048,6.063"/>
</g>
<g>
	<path fill="#F48FB1" d="M41,32c0,1.104-0.896,2-2,2h-2c-1.104,0-2-0.896-2-2v-4c0-1.104,0.896-2,2-2h2c1.104,0,2,0.896,2,2V32z"/>
	<path fill="#F48FB1" d="M20,16c0.937-2.03,2-4,2-4c0.656-1.313-1.174-4.29-3-3c-14.25,10.067-5,30-5,30s1,3,6,3c0,0-4,0,2,0   c6.656,0,3-5,3-5S16.125,24.396,20,16z"/>
</g>
<circle fill="#FFC107" cx="38" cy="36" r="6"/>
<circle fill="#FFECB3" cx="38" cy="36" r="3"/>
<circle fill="#BA8C1A" cx="38" cy="36" r="1"/>
</svg>