<?xml version="1.0" encoding="utf-8"?><!-- Generator: Adobe Illustrator 15.0.0, SVG Export Plug-In . SVG Version: 6.00 Build 0)  --><!DOCTYPE svg PUBLIC "-//W3C//DTD SVG 1.1//EN" "http://www.w3.org/Graphics/SVG/1.1/DTD/svg11.dtd"><svg xmlns="http://www.w3.org/2000/svg" xmlns:xlink="http://www.w3.org/1999/xlink" version="1.1" x="0px" y="0px" width="528" height="528" viewBox="0 0 48 48" enable-background="new 0 0 48 48" xml:space="preserve">
<path fill="#D1C4E9" d="M43,40H5V14.84C5,13.229,6.296,12,7.889,12h32.222C41.704,12,43,13.229,43,14.84V40z"/>
<rect x="5" y="40" fill="#B39DDB" width="38" height="2"/>
<g>
	<rect x="9" y="21" fill="#311B92" width="8" height="6"/>
	<rect x="20" y="21" fill="#311B92" width="8" height="6"/>
	<rect x="9" y="31" fill="#311B92" width="8" height="6"/>
	<rect x="31" y="21" fill="#311B92" width="8" height="6"/>
	<rect x="31" y="31" fill="#311B92" width="8" height="6"/>
	<rect x="20" y="31" fill="#311B92" width="8" height="11"/>
</g>
<path fill="#F44336" d="M30,16c0,1.104-0.896,2-2,2h-8c-1.104,0-2-0.896-2-2V8c0-1.104,0.896-2,2-2h8c1.104,0,2,0.896,2,2V16z"/>
<g>
	<rect x="23" y="8" fill="#FFFFFF" width="2" height="8"/>
	<rect x="20" y="11" fill="#FFFFFF" width="8" height="2"/>
</g>
</svg>