<?xml version="1.0" encoding="utf-8"?><!-- Generator: Adobe Illustrator 19.1.1, SVG Export Plug-In . SVG Version: 6.00 Build 0)  --><svg xmlns="http://www.w3.org/2000/svg" xmlns:xlink="http://www.w3.org/1999/xlink" version="1.1" x="0px" y="0px" viewBox="0 0 48 48" enable-background="new 0 0 48 48" xml:space="preserve" width="528" height="528">
<path fill="#D7CCC8" d="M43.8,11.4l-2.3-5.7c-0.5-1.4-2-2.1-3.4-1.5c-1.4,0.5-2.1,2-1.6,3.4l-3.2,0.9C33.1,7.6,32.2,7,31.2,7  C30,7,29,8,29,9.3c0,0.6,0.2,1.2,0.6,1.6c0,0-16.5,19.2-17.5,20.4c-1.1,1.2-5.3,0.1-7.5,2.9c-0.7,0.9-0.9,2.9,0.2,4.1  c1.1,1.1,2.9,0.8,3.8,1.7c0.8,0.8,0.7,2.2,1.6,3.1c0.8,0.9,2.9,1.5,4.3,0c2.2-2.3,0.9-6.7,2.3-8.4C18.2,33.1,34.1,14,34.1,14  l4.6-1.3l0.2,0.6c0.5,1.4,2,2.1,3.4,1.5C43.7,14.3,44.3,12.8,43.8,11.4z"/>
<path fill="#BCAAA4" d="M10.2,43.1c-0.9-1-0.8-2.3-1.6-3.1c-0.9-0.9-2.7-0.6-3.8-1.7C3.7,37.1,8.7,34.7,11,37  C12.8,38.8,12,45,10.2,43.1z M33.4,8.5c0,0,2,2.7,0.7,5.5l4.6-1.3l-2-5.1L33.4,8.5z"/>
</svg>