<?xml version="1.0" encoding="utf-8"?><!-- Generator: Adobe Illustrator 15.0.0, SVG Export Plug-In . SVG Version: 6.00 Build 0)  --><!DOCTYPE svg PUBLIC "-//W3C//DTD SVG 1.1//EN" "http://www.w3.org/Graphics/SVG/1.1/DTD/svg11.dtd"><svg xmlns="http://www.w3.org/2000/svg" xmlns:xlink="http://www.w3.org/1999/xlink" version="1.1" x="0px" y="0px" width="528" height="528" viewBox="0 0 48 48" enable-background="new 0 0 48 48" xml:space="preserve">
<path fill="#1976D2" d="M18,37c0,1.656,1.343,3,3,3h19c1.657,0,3-1.344,3-3V13c0-1.656-1.343-3-3-3H21c-1.657,0-3,1.344-3,3V37z"/>
<rect x="21" y="13" fill="#AEEA00" width="19" height="11"/>
<g>
	<rect x="24" y="16" fill="#1B5E20" width="11" height="2"/>
	<rect x="24" y="19" fill="#1B5E20" width="9" height="2"/>
</g>
<g>
	<path fill="#BBDEFB" d="M25,31h-3c-0.552,0-1-0.448-1-1v-2c0-0.552,0.448-1,1-1h3c0.552,0,1,0.448,1,1v2C26,30.552,25.552,31,25,31   "/>
	<path fill="#BBDEFB" d="M32,31h-3c-0.552,0-1-0.448-1-1v-2c0-0.552,0.448-1,1-1h3c0.552,0,1,0.448,1,1v2C33,30.552,32.552,31,32,31   "/>
	<path fill="#BBDEFB" d="M39,31h-3c-0.552,0-1-0.448-1-1v-2c0-0.552,0.448-1,1-1h3c0.552,0,1,0.448,1,1v2C40,30.552,39.552,31,39,31   "/>
	<path fill="#BBDEFB" d="M25,37h-3c-0.552,0-1-0.448-1-1v-2c0-0.552,0.448-1,1-1h3c0.552,0,1,0.448,1,1v2C26,36.552,25.552,37,25,37   "/>
	<path fill="#BBDEFB" d="M32,37h-3c-0.552,0-1-0.448-1-1v-2c0-0.552,0.448-1,1-1h3c0.552,0,1,0.448,1,1v2C33,36.552,32.552,37,32,37   "/>
	<path fill="#BBDEFB" d="M39,37h-3c-0.552,0-1-0.448-1-1v-2c0-0.552,0.448-1,1-1h3c0.552,0,1,0.448,1,1v2C40,36.552,39.552,37,39,37   "/>
</g>
<g>
	<polygon fill="#FF3D00" points="15,33 11,37 9,37 5,33 5,29 15,29  "/>
	<rect x="9" y="37" fill="#FF3D00" width="2" height="5"/>
</g>
<rect x="5" y="13" fill="#90CAF9" width="10" height="16"/>
<rect x="5" y="6" fill="#1976D2" width="10" height="2"/>
<g>
	<rect x="7" y="8" fill="#1E88E5" width="6" height="5"/>
	<rect x="5" y="20" fill="#1E88E5" width="6" height="2"/>
	<rect x="5" y="24" fill="#1E88E5" width="6" height="2"/>
	<rect x="5" y="16" fill="#1E88E5" width="6" height="2"/>
</g>
</svg>