<?xml version="1.0" encoding="utf-8"?><!-- Generator: Adobe Illustrator 19.1.1, SVG Export Plug-In . SVG Version: 6.00 Build 0)  --><svg xmlns="http://www.w3.org/2000/svg" xmlns:xlink="http://www.w3.org/1999/xlink" version="1.1" x="0px" y="0px" viewBox="0 0 48 48" enable-background="new 0 0 48 48" xml:space="preserve" width="528" height="528">
<path fill="#E57373" d="M42,21c1.8-2.1,1-5.8-1-7.1c2.2-3.7,0.3-6.9-3-6.9c0,0-2.4-2.9-5.8-0.7C30.6,4.6,26.9,4.7,25,6  c-2.5-1.4-4.5-1.4-7,0c-2.9-2-6.2-0.7-7,1c-2.9,0.1-6.6,2.4-4.2,6.9c-2.3,1.1-2.3,4.8-0.3,6.2c-1.8,1.4-1.1,5.2,0.4,6  C4.9,28.6,6.4,31.4,8,32c-1.1,3.2,0.9,4.3,1.8,4.7c1.3,0.6,4.6,0.7,5.8-1.6c0.7-1.1,0.7-3.2-1-5c1.1-2.6,0-5.2-1.5-5.8  c1.6-2.2,1.1-3.9-0.4-5.5c2-1.7,1.4-4.4,1-5.8l0-0.1c1.4-0.1,2.4-0.9,3.4-2c1.7,2.6,5.7,2.8,8,0c1.7,1.7,4,1.7,6,0  c0.7,1.1,1.8,1.8,3,1.9c-0.2,1.4,0.5,3.4,2.1,4.1c-1.5,1.5-1.8,5.4,0,7c-2.1,1.1-2.7,4.3-1,7c-2.5,0.7-2.5,2.6-2.4,4.2  c-3.9-0.7-5.9,0.6-5.6,3.2c0.2,1.6,0.6,4.7,1.5,4.6c0.9,0,1.5-4.7,1.5-4.7s2,1.9,5.1-0.4c1.7-0.1,4.1-1.4,3.6-5.2  c1.8-0.9,3.3-2.6,2.3-5.6C42.8,25.4,42.7,23.1,42,21z"/>
<path fill="#EF9A9A" d="M37.8,10.5l-0.1-0.1c-3-3-8-3.3-13.8-3.3c-5.7,0-10.6,0.3-13.6,3.3l-0.1,0.1C4.8,17.3,12.1,34.5,13,37  c-2-5.2-5.4-20-1.2-25.3C14.1,9.4,18.2,9,23,9l0,0c0.4,0,0.7,0,1.1,0c0.3,0,0.6,0,0.9,0l0,0c4.8,0,8.9,0.4,11.3,2.7  C42.2,20.2,35,35.9,35,36C35.4,35.3,44.6,20,37.8,10.5z"/>
</svg>