<?xml version="1.0" encoding="utf-8"?><!-- Generator: Adobe Illustrator 19.1.1, SVG Export Plug-In . SVG Version: 6.00 Build 0)  --><svg xmlns="http://www.w3.org/2000/svg" xmlns:xlink="http://www.w3.org/1999/xlink" version="1.1" x="0px" y="0px" viewBox="0 0 48 48" enable-background="new 0 0 48 48" xml:space="preserve" width="528" height="528">
<path fill="#B71C1C" d="M39.7,6c-1.4,0-3.9,0.5-6.7,1.2c-2,0.5-6.4,1.1-7.1,2.8c0.2,0.2,3.1,11.3,3,13s0.1,3.9,1,4s1.7-0.2,2.1-0.4  c3-1.6,9.9-5.2,9.9-18C42.1,6.3,40.4,6,39.7,6z"/>
<path fill="#E53935" d="M28.4,30c1.3-1.8,1.9-4,2.1-5.1c2.1-10.3-3-13.9-4.1-15.2c-0.1-0.1-0.1-0.1-0.1-0.1C25.5,9.1,24,9,23.6,9  C18.5,9.6,6,12.4,6,26.8c0,6.7,2.7,14.4,2.8,14.7L9,42h0.8C14.1,42,20.6,39.8,28.4,30z"/>
</svg>