<?xml version="1.0" encoding="utf-8"?><!-- Generator: Adobe Illustrator 15.0.0, SVG Export Plug-In . SVG Version: 6.00 Build 0)  --><!DOCTYPE svg PUBLIC "-//W3C//DTD SVG 1.1//EN" "http://www.w3.org/Graphics/SVG/1.1/DTD/svg11.dtd"><svg xmlns="http://www.w3.org/2000/svg" xmlns:xlink="http://www.w3.org/1999/xlink" version="1.1" x="0px" y="0px" width="528" height="528" viewBox="0 0 48 48" enable-background="new 0 0 48 48" xml:space="preserve">
<g>
	<path fill="#E91E63" d="M45.918,35.958c0,2.755-2.238,5.016-4.999,5.016c0,0-11.919,0.971-11.919-8.962V17.001   c0-2.754,0.418-3.99,2.918-3.99c-1.209,0,4.624-0.751,10,9.977C46.918,32.965,45.918,35.958,45.918,35.958z"/>
	<path fill="#E91E63" d="M2.082,35.979c0,2.758,2.238,4.993,4.999,4.993c0,0,11.919,0.998,11.919-8.942V17.006   c0-2.757-0.418-3.994-2.918-3.994c1.209,0-4.624-0.752-10,9.986C1.082,32.984,2.082,35.979,2.082,35.979z"/>
</g>
<g>
	<path fill="#F48FB1" d="M8.648,36.178c0.65-0.461,1.343-0.841,1.897-1.297c0.276-0.228,0.517-0.471,0.685-0.732   c0.097-0.143,0.142-0.244,0.204-0.393c0.058-0.139,0.114-0.332,0.17-0.494c0.207-0.684,0.327-1.396,0.432-2.15   c0.106-0.756,0.207-1.558,0.405-2.396c0.057-0.215,0.1-0.411,0.176-0.643l0.203-0.609c0.184-0.49,0.417-0.912,0.662-1.307   c0,0,1.331-1.945,2.998-2.82C23,19.961,21.999,17.025,22,16.95c0.006-1.1,0.899-1.989,2-1.989c1.104,0,2,0.896,2,2   c0,0.255-1,7-7,8.789c-0.009,0.003-0.016,0.005-0.023,0.009c-1.11,0.604-2.274,1.39-3.106,2.214   c-0.22,0.223-0.419,0.449-0.562,0.661l-0.27,0.452c-0.077,0.121-0.156,0.293-0.233,0.442c-0.304,0.626-0.558,1.331-0.831,2.076   s-0.584,1.524-0.997,2.261c-0.112,0.186-0.2,0.354-0.337,0.551c-0.128,0.187-0.305,0.405-0.466,0.551   c-0.336,0.327-0.715,0.563-1.088,0.754c-0.751,0.381-1.496,0.594-2.193,0.893c-0.692,0.293-1.363,0.683-1.788,1.348   C7.373,37.219,7.999,36.63,8.648,36.178z"/>
	<rect x="22" y="7" fill="#F48FB1" width="4" height="3"/>
	<rect x="22" y="12" fill="#F48FB1" width="4" height="3"/>
	<g>
		<path fill="#F48FB1" d="M39.352,36.178c-0.65-0.461-1.343-0.841-1.897-1.297c-0.276-0.228-0.517-0.471-0.685-0.732    c-0.097-0.143-0.142-0.244-0.204-0.393c-0.058-0.139-0.114-0.332-0.17-0.494c-0.207-0.684-0.327-1.396-0.432-2.15    c-0.106-0.756-0.207-1.558-0.405-2.396c-0.057-0.215-0.1-0.411-0.176-0.643l-0.203-0.609c-0.184-0.49-0.417-0.912-0.662-1.307    c0,0-1.331-1.945-2.998-2.82C26,20.961,26.001,17.025,26,16.95c-0.006-1.1-0.899-1.989-2-1.989c-1.104,0-2,0.896-2,2    c0,0.255,1,6,7,8.789c0.008,0.004,0.016,0.005,0.023,0.009c1.11,0.604,2.274,1.39,3.106,2.214c0.22,0.223,0.419,0.449,0.562,0.661    l0.27,0.452c0.077,0.121,0.156,0.293,0.233,0.442c0.304,0.626,0.558,1.331,0.831,2.076s0.584,1.524,0.997,2.261    c0.112,0.186,0.2,0.354,0.337,0.551c0.128,0.187,0.305,0.405,0.466,0.551c0.336,0.327,0.715,0.563,1.088,0.754    c0.751,0.381,1.496,0.594,2.193,0.893c0.692,0.293,1.363,0.683,1.788,1.348C40.627,37.219,40.001,36.63,39.352,36.178z"/>
		<g>
			<path fill="#F48FB1" d="M32.851,24.461c0.234,0.139,0.864,0.027,1.292-0.2c0.451-0.233,0.813-0.592,0.981-1.12     c0.147-0.623,0.257-1.348,0.201-2.033c-0.047-0.706-0.218-1.432-0.431-2.146c0.439,0.604,0.855,1.236,1.171,1.959     c0.323,0.74,0.49,1.504,0.577,2.348c0.061,0.949-0.348,1.971-1.01,2.695c-0.685,0.717-1.451,1.302-2.694,1.498L32.851,24.461z"/>
		</g>
		<g>
			<path fill="#F48FB1" d="M34.959,30.018c-0.525,0.371-1.106,0.939-1.525,1.492c-0.213,0.283-0.396,0.578-0.53,0.879     c-0.139,0.316-0.208,0.559-0.24,1.001c-0.074,0.718,0.014,1.543,0.212,2.321c0.207,0.783,0.523,1.562,1.02,2.25     c-0.679-0.516-1.244-1.201-1.709-1.953c-0.457-0.766-0.824-1.58-1.021-2.54c-0.098-0.394-0.155-1.001-0.089-1.503     c0.057-0.518,0.187-1.008,0.352-1.473c0.35-0.941,0.772-1.742,1.402-2.588L34.959,30.018z"/>
		</g>
		<g>
			<path fill="#F48FB1" d="M34.43,27.535c0.628-0.125,1.096-0.129,1.637-0.113c0.523,0.021,1.047,0.098,1.559,0.235     c1.021,0.269,1.999,0.845,2.657,1.639c0.594,0.745,1.061,1.483,1.503,2.265c0.432,0.779,0.815,1.576,1.109,2.4     c-0.514-0.705-1.097-1.346-1.706-1.945c-0.607-0.591-1.272-1.164-1.924-1.617c-0.605-0.393-1.284-0.541-1.97-0.516     c-0.659,0.02-1.447,0.23-1.936,0.504L34.43,27.535z"/>
		</g>
		<g>
			<path fill="#F48FB1" d="M34.898,23.961c0.621,0.094,1.156,0.232,1.715,0.396c0.55,0.166,1.088,0.365,1.607,0.602     c1.031,0.473,2.021,1.117,2.674,2.002c-0.888-0.641-1.927-0.912-2.952-1.041c-0.516-0.063-1.034-0.086-1.55-0.078     c-0.507,0.009-1.046,0.043-1.502,0.119L34.898,23.961z"/>
		</g>
	</g>
	<g>
		<path fill="#F48FB1" d="M15.062,27.461c-1.243-0.196-2.01-0.781-2.694-1.498c-0.662-0.725-1.07-1.746-1.01-2.695    c0.087-0.844,0.254-1.607,0.577-2.348c0.315-0.723,0.731-1.355,1.171-1.959c-0.213,0.715-0.384,1.44-0.431,2.146    c-0.056,0.686,0.054,1.41,0.201,2.033c0.168,0.528,0.53,0.887,0.981,1.12c0.428,0.228,1.058,0.339,1.292,0.2L15.062,27.461z"/>
	</g>
	<g>
		<path fill="#F48FB1" d="M15.17,27.904c0.63,0.846,1.053,1.646,1.402,2.588c0.165,0.465,0.295,0.955,0.352,1.473    c0.066,0.502,0.009,1.109-0.089,1.503c-0.196,0.96-0.563,1.774-1.021,2.54c-0.465,0.752-1.03,1.438-1.709,1.953    c0.496-0.688,0.813-1.467,1.02-2.25c0.198-0.778,0.286-1.604,0.212-2.321c-0.032-0.442-0.102-0.685-0.24-1.001    c-0.134-0.301-0.317-0.596-0.53-0.879c-0.419-0.553-1-1.121-1.525-1.492L15.17,27.904z"/>
	</g>
	<g>
		<path fill="#F48FB1" d="M12.641,30.387c-0.488-0.273-1.276-0.484-1.936-0.504c-0.686-0.025-1.364,0.123-1.97,0.516    c-0.651,0.453-1.316,1.026-1.924,1.617c-0.609,0.6-1.192,1.24-1.706,1.945c0.294-0.824,0.678-1.621,1.109-2.4    c0.442-0.781,0.909-1.52,1.503-2.265c0.658-0.794,1.636-1.37,2.657-1.639c0.512-0.138,1.035-0.214,1.559-0.235    c0.541-0.016,1.009-0.012,1.637,0.113L12.641,30.387z"/>
	</g>
	<g>
		<path fill="#F48FB1" d="M13.109,25.961c-0.456-0.076-0.995-0.11-1.502-0.119c-0.516-0.008-1.034,0.016-1.55,0.078    c-1.025,0.129-2.064,0.4-2.952,1.041c0.652-0.885,1.643-1.529,2.674-2.002c0.52-0.236,1.058-0.436,1.607-0.602    c0.559-0.164,1.094-0.303,1.715-0.396L13.109,25.961z"/>
	</g>
</g>
<g>
	<rect x="22" y="10" fill="#EC407A" width="4" height="2"/>
	<rect x="22" y="5" fill="#EC407A" width="4" height="2"/>
	<rect x="22" y="15" fill="#EC407A" width="4" height="2"/>
</g>
</svg>