<?xml version="1.0" encoding="utf-8"?><!-- Generator: Adobe Illustrator 15.0.0, SVG Export Plug-In . SVG Version: 6.00 Build 0)  --><!DOCTYPE svg PUBLIC "-//W3C//DTD SVG 1.1//EN" "http://www.w3.org/Graphics/SVG/1.1/DTD/svg11.dtd"><svg xmlns="http://www.w3.org/2000/svg" xmlns:xlink="http://www.w3.org/1999/xlink" version="1.1" x="0px" y="0px" width="528" height="528" viewBox="0 0 48 48" enable-background="new 0 0 48 48" xml:space="preserve">
<rect x="6" y="36" fill="#8E24AA" width="36" height="6"/>
<g>
	<path fill="#FFB74D" d="M16,32c0-2.207-1.794-4-4-4s-4,1.793-4,4c0,2.205,1.794,4,4,4S16,34.205,16,32"/>
	<path fill="#FFB74D" d="M38,33c0,1.656-1.343,3-3,3H21c-1.657,0-3-1.344-3-3v-1c0-1.656,1.343-3,3-3h14c1.657,0,3,1.344,3,3V33z"/>
	<path fill="#FFB74D" d="M33.281,13.79c2.091-0.707,3.215-2.98,2.509-5.07c-0.707-2.09-2.979-3.216-5.069-2.509   c-2.09,0.706-3.216,2.98-2.51,5.07C28.918,13.371,31.191,14.495,33.281,13.79"/>
	<polyline fill="none" stroke="#FFB74D" stroke-width="4" stroke-linecap="round" points="20,34 15,40 8,40  "/>
</g>
<rect x="31" y="29" fill="#CE93D8" width="11" height="13"/>
<g>
	<path fill="#1565C0" d="M24.999,29c-0.474,0-0.946-0.166-1.328-0.505c-0.825-0.734-0.899-1.998-0.166-2.824l8-9   c0.733-0.824,2.496-1.504,3.69-1.653c1.097-0.137,0.033,3.485-0.7,4.312l-8,9C26.1,28.773,25.551,29,24.999,29z"/>
	<path fill="#1565C0" d="M34.611,29H42l-3.643-11.961c-0.53-1.57-2.233-2.412-3.803-1.881l-0.947,0.32   c-1.569,0.529-2.412,2.232-1.881,3.803L34.611,29z"/>
</g>
</svg>