<?xml version="1.0" encoding="utf-8"?><!-- Generator: Adobe Illustrator 15.0.0, SVG Export Plug-In . SVG Version: 6.00 Build 0)  --><!DOCTYPE svg PUBLIC "-//W3C//DTD SVG 1.1//EN" "http://www.w3.org/Graphics/SVG/1.1/DTD/svg11.dtd"><svg xmlns="http://www.w3.org/2000/svg" xmlns:xlink="http://www.w3.org/1999/xlink" version="1.1" x="0px" y="0px" width="528" height="528" viewBox="0 0 48 48" enable-background="new 0 0 48 48" xml:space="preserve">
<path fill="#BBDEFB" d="M28.904,7.782c0,0-14.891,14.891-14.946,14.946c-2.171,2.17-2.979,10.051-2.979,10.051l4.243,4.242  c0,0,7.806-0.648,10.05-2.98c0.075-0.075,14.946-14.945,14.946-14.945c2.989-2.988,2.876-7.943-0.247-11.066  C36.846,4.904,31.893,4.793,28.904,7.782z"/>
<g>
	<path fill="#F44336" d="M10.979,32.779L10.979,32.779l-4.949,4.948c-1.171,1.172-1.171,3.071,0,4.243   c1.172,1.172,3.071,1.172,4.243,0l4.949-4.949L10.979,32.779z"/>
	
		<rect x="10.414" y="22.585" transform="matrix(0.7071 -0.7071 0.7071 0.7071 -9.5262 24.1716)" fill="#F44336" width="28.001" height="2"/>
</g>
<g>
	<rect x="28.01" y="8.711" transform="matrix(0.7071 -0.7071 0.7071 0.7071 0.5696 23.797)" fill="#1E88E5" width="2" height="5"/>
	
		<rect x="24.475" y="12.247" transform="matrix(0.7071 -0.7071 0.7071 0.7071 -2.9661 22.3324)" fill="#1E88E5" width="2" height="5"/>
	
		<rect x="20.939" y="15.782" transform="matrix(0.7072 -0.707 0.707 0.7072 -6.5024 20.8635)" fill="#1E88E5" width="2" height="5.001"/>
	
		<rect x="17.404" y="19.318" transform="matrix(0.7069 -0.7074 0.7074 0.7069 -10.038 19.4136)" fill="#1E88E5" width="2" height="4.999"/>
</g>
</svg>