<?xml version="1.0" encoding="utf-8"?><!-- Generator: Adobe Illustrator 15.0.0, SVG Export Plug-In . SVG Version: 6.00 Build 0)  --><!DOCTYPE svg PUBLIC "-//W3C//DTD SVG 1.1//EN" "http://www.w3.org/Graphics/SVG/1.1/DTD/svg11.dtd"><svg xmlns="http://www.w3.org/2000/svg" xmlns:xlink="http://www.w3.org/1999/xlink" version="1.1" x="0px" y="0px" width="528" height="528" viewBox="0 0 48 48" enable-background="new 0 0 48 48" xml:space="preserve">
<path fill="#FFCC80" d="M18.992,44v-4.631l-2.617,0.533c-2.865,0.586-5.598-1.462-5.84-4.375L9.99,29.007L7.094,27.8  c-1.002-0.417-1.4-1.626-0.842-2.557l3.738-6.231C10.619,11.455,14.908,4,26.012,4c11.432,0,16.986,8.44,16.986,17.007  c0,3.651-1.348,6.869-3.343,9.616c-1.794,2.466-2.661,5.486-2.661,8.536V44H18.992z"/>
<g>
	<path fill="#9C27B0" d="M24.023,28c0-1.255,0.149-2.413,0.451-3.156c0.302-0.744,0.854-1.477,1.658-2.199   c0.805-0.721,1.338-1.309,1.605-1.764c0.267-0.453,0.398-0.93,0.398-1.434c0-1.518-0.691-2.275-2.077-2.275   c-0.657,0-1.183,0.205-1.577,0.613c-0.396,0.409-0.603,1.498-0.621,2.215H20c0.017-1.711,0.566-3.578,1.646-4.549   C22.723,14.485,24.196,14,26.06,14c1.884,0,3.343,0.461,4.382,1.381C31.48,16.3,32,17.596,32,19.273   c0,0.763-0.169,1.482-0.506,2.16c-0.338,0.677-0.929,1.429-1.772,2.254l-1.077,1.035c-0.676,0.656-1.062,1.422-1.16,2.302   L27.432,28H24.023z"/>
	<path fill="#9C27B0" d="M24,32.015c0-0.584,0.188-1.064,0.563-1.445C24.937,30.191,25.416,30,26,30s1.063,0.191,1.438,0.569   C27.811,30.95,28,31.431,28,32.015c0,0.574-0.184,1.049-0.549,1.422C27.082,33.813,26.6,34,26,34s-1.084-0.188-1.451-0.563   C24.184,33.063,24,32.589,24,32.015z"/>
</g>
</svg>