<?xml version="1.0" encoding="utf-8"?><!-- Generator: Adobe Illustrator 15.0.0, SVG Export Plug-In . SVG Version: 6.00 Build 0)  --><!DOCTYPE svg PUBLIC "-//W3C//DTD SVG 1.1//EN" "http://www.w3.org/Graphics/SVG/1.1/DTD/svg11.dtd"><svg xmlns="http://www.w3.org/2000/svg" xmlns:xlink="http://www.w3.org/1999/xlink" version="1.1" x="0px" y="0px" width="528" height="528" viewBox="0 0 48 48" enable-background="new 0 0 48 48" xml:space="preserve">
<path fill="#90CAF9" d="M24,4C14.06,4,6,12.06,6,22s8.06,18,18,18s18-8.06,18-18S33.94,4,24,4z M24,31c-4.972,0-9-4.027-9-8.999  S19.028,13,24,13s9,4.029,9,9.001S28.972,31,24,31z"/>
<path fill="#42A5F5" d="M24,7.001c-8.284,0-15,6.716-15,15s6.716,15,15,15s15-6.716,15-15S32.284,7.001,24,7.001z M24,31  c-4.972,0-9-4.027-9-8.999S19.028,13,24,13s9,4.029,9,9.001S28.972,31,24,31z"/>
<rect x="20" y="6" fill="#455A64" width="8" height="4"/>
<polygon fill="#1565C0" points="35,36 13,36 17,25 31,25 "/>
<path fill="#1E88E5" d="M31,39c0-0.553-0.447-1-1-1H18c-0.553,0-1,0.447-1,1v4c0,0.553,0.447,1,1,1h12c0.553,0,1-0.447,1-1V39z"/>
<path fill="#0D47A1" d="M13,36v2c0,1.104,0.896,2,2,2h18c1.104,0,2-0.896,2-2v-2H13z"/>
</svg>