<?xml version="1.0" encoding="utf-8"?><!-- Generator: Adobe Illustrator 15.0.0, SVG Export Plug-In . SVG Version: 6.00 Build 0)  --><!DOCTYPE svg PUBLIC "-//W3C//DTD SVG 1.1//EN" "http://www.w3.org/Graphics/SVG/1.1/DTD/svg11.dtd"><svg xmlns="http://www.w3.org/2000/svg" xmlns:xlink="http://www.w3.org/1999/xlink" version="1.1" x="0px" y="0px" width="528" height="528" viewBox="0 0 48 48" enable-background="new 0 0 48 48" xml:space="preserve">
<g>
	<ellipse fill="#7E57C2" cx="20.789" cy="33" rx="16" ry="6"/>
	<ellipse fill="#7E57C2" cx="21" cy="14" rx="16" ry="6"/>
</g>
<path fill="#FFA726" d="M36.521,15.433c-0.74,1.131-2.346,2.131-4.521,2.908V30.08c5.648,0.794,11,7.919,11,7.919V20  C43,20,40.204,17.207,36.521,15.433z"/>
<path fill="#FB8C00" d="M32,18.35v11.729c1.376,0.196,2.732,0.767,4,1.521V16.072C35.143,16.945,33.766,17.722,32,18.35z"/>
<path fill="#FFCC80" d="M21,20c-4.785,0-9.068-0.792-12-2.04V31c0,0,0,4,12,4s12-4,12-4V17.96C30.068,19.208,25.785,20,21,20z"/>
<ellipse fill="#1C1075" cx="21" cy="14" rx="5" ry="2"/>
</svg>