<?xml version="1.0" encoding="utf-8"?><!-- Generator: Adobe Illustrator 15.0.0, SVG Export Plug-In . SVG Version: 6.00 Build 0)  --><!DOCTYPE svg PUBLIC "-//W3C//DTD SVG 1.1//EN" "http://www.w3.org/Graphics/SVG/1.1/DTD/svg11.dtd"><svg xmlns="http://www.w3.org/2000/svg" xmlns:xlink="http://www.w3.org/1999/xlink" version="1.1" x="0px" y="0px" width="528" height="528" viewBox="0 0 48 48" enable-background="new 0 0 48 48" xml:space="preserve">
<path fill="#BCAAA4" d="M6,22v3c0,8.284,6.716,14,15,14h6c8.284,0,15-5.716,15-14v-3H6z"/>
<g>
	<path fill="#795548" d="M27,39h-6c-1.387,0-2.725-0.174-4-0.479V40c0,0.553,0.447,1,1,1h12c0.553,0,1-0.447,1-1v-1.479   C29.725,38.826,28.389,39,27,39z"/>
	<path fill="#795548" d="M6,25c0,1.014,0.104,2.018,0.295,3h35.41C41.896,27.018,42,26.014,42,25H6z"/>
	<path fill="#795548" d="M37.413,15.303l-1.271,1.545l-3.863-3.176l1.271-1.545c0,0,0.359-3.586,0.995-4.361   c1.271-1.545,2.813-0.274,2.813-0.274l3.863,3.176c0,0,1.545,1.271,0.275,2.815C40.863,14.255,37.413,15.303,37.413,15.303z"/>
	<path fill="#795548" d="M33.257,22l4.156-6.697c1.229-1.494,0.832-1.906-0.661-3.133c-1.492-1.228-1.973-1.537-3.201-0.043   L22.957,22H33.257z"/>
</g>
</svg>