<?xml version="1.0" encoding="iso-8859-1"?><!-- Generator: Adobe Illustrator 19.1.1, SVG Export Plug-In . SVG Version: 6.00 Build 0)  --><svg xmlns="http://www.w3.org/2000/svg" xmlns:xlink="http://www.w3.org/1999/xlink" version="1.1" id="Layer_1" x="0px" y="0px" viewBox="0 0 48 48" style="enable-background:new 0 0 48 48;" xml:space="preserve" width="528" height="528">
<path style="fill:#FF9800;" d="M24,39c-5,0-5-6-5-6v-6h10v6C29,33,29,39,24,39z"/>
<path style="fill:#FFA726;" d="M35,21c0,1.105-0.896,2-2,2c-1.106,0-2-0.895-2-2s0.894-2,2-2C34.104,19,35,19.895,35,21 M17,21  c0-1.105-0.896-2-2-2c-1.106,0-2,0.895-2,2s0.894,2,2,2C16.104,23,17,22.105,17,21"/>
<path style="fill:#FFB74D;" d="M33,15c0-7.635-18-4.971-18,0v7c0,4.971,4.028,9,9,9c4.971,0,9-4.029,9-9V15z"/>
<path style="fill:#424242;" d="M24,6c-6.075,0-10,4.926-10,11v2.286L16,21v-5l12-4l4,4v5l2-1.742V17c0-4.025-1.038-8.016-6-9l-1-2  H24z"/>
<path style="fill:#784719;" d="M27,21c0-0.551,0.448-1,1-1s1,0.449,1,1s-0.448,1-1,1S27,21.551,27,21 M19,21c0,0.551,0.448,1,1,1  s1-0.449,1-1s-0.448-1-1-1S19,20.449,19,21"/>
<path style="fill:#B3E5FC;" d="M29,33c0,0,11,2.025,11,13H8c0-11.014,11-13,11-13s1,4,5,4S29,33,29,33L29,33 M32,7c0,0-3-2-8-2  s-8,2-8,2v10c0,0,3-2,8-2s8,2,8,2V7z"/>
<polygon style="fill:#F44336;" points="27,9 25,9 25,7 23,7 23,9 21,9 21,11 23,11 23,13 25,13 25,11 27,11 "/>
</svg>