<?xml version="1.0" encoding="utf-8"?><!-- Generator: Adobe Illustrator 15.0.0, SVG Export Plug-In . SVG Version: 6.00 Build 0)  --><!DOCTYPE svg PUBLIC "-//W3C//DTD SVG 1.1//EN" "http://www.w3.org/Graphics/SVG/1.1/DTD/svg11.dtd"><svg xmlns="http://www.w3.org/2000/svg" xmlns:xlink="http://www.w3.org/1999/xlink" version="1.1" x="0px" y="0px" width="528" height="528" viewBox="0 0 48 48" enable-background="new 0 0 48 48" xml:space="preserve">
<g>
	<path fill="#FFCC80" d="M42,26c0,2.209-1.791,4-4,4s-4-1.791-4-4s1.791-4,4-4S42,23.791,42,26"/>
	<path fill="#FFCC80" d="M14,26c0,2.209-1.791,4-4,4s-4-1.791-4-4s1.791-4,4-4S14,23.791,14,26"/>
	<path fill="#FFCC80" d="M39,19c0-12.725-30-8.284-30,0v10c0,8.284,6.716,15,15,15s15-6.716,15-15V19z"/>
	<path fill="#FFCC80" d="M24,4C15.163,4,8,11.163,8,20v3.523l2.133,0.57V19.04l19.514-6.347l8.222,6.347v5.053L40,23.523V20   C40,12.479,34.619,4,24,4"/>
</g>
<path fill="#5D4037" d="M29.092,30.77L32,25h-3.407l-1.532,3.439L24,21c1.598-0.871,2-2.286,2-4c0-3.922-3.001-5-4.675-5H16v16h3v-6  l2.406-0.003l3.645,8.772L22.143,37h3.429l1.498-3.818L28.582,37H32L29.092,30.77z M19,19v-4h1.721C22.016,15,23,15.421,23,17.064  C23,18.839,21.33,19,20.664,19H19z"/>
</svg>