<?xml version="1.0" encoding="utf-8"?><!-- Generator: Adobe Illustrator 15.0.0, SVG Export Plug-In . SVG Version: 6.00 Build 0)  --><!DOCTYPE svg PUBLIC "-//W3C//DTD SVG 1.1//EN" "http://www.w3.org/Graphics/SVG/1.1/DTD/svg11.dtd"><svg xmlns="http://www.w3.org/2000/svg" xmlns:xlink="http://www.w3.org/1999/xlink" version="1.1" x="0px" y="0px" width="528" height="528" viewBox="0 0 48 48" enable-background="new 0 0 48 48" xml:space="preserve">
<g>
	<path fill="#CE9402" d="M23,11.5c0-3-1-5.896-1-7s2,0,2,0s2-1.104,2,0s-1,4-1,7"/>
	<rect x="23" y="5" fill="#CE9402" width="2" height="39"/>
</g>
<g>
	<path fill="#FFC107" d="M25,42.3c0.43,0.128,0.783,0.2,1,0.2l0.055-2.998c-0.225-0.027-0.613-0.169-1.055-0.363V42.3z"/>
	<path fill="#FFC107" d="M25,30.732v3.117c0.336,0.1,0.667,0.202,0.945,0.305c-0.795,0.412-2.097,0.861-2.826,1.113   C20.94,36.02,19.5,36.518,19.5,38c0,1.369,1.773,2.657,3.5,3.502v-3.018l2-0.703v0.008c2.266-0.809,4.5-1.813,4.5-3.789   C29.5,32.07,27.368,31.383,25,30.732z"/>
	<path fill="#FFC107" d="M25.708,10.779c0,0.148,1.329,2.228,2.97,2.228c1.639,0,4.156-0.849,4.156-2.079   c0-1.229-2.52-2.284-4.156-2.375C23.333,8.258,25.708,9.551,25.708,10.779z"/>
	<path fill="#FFC107" d="M23,19.593v-3.187c-2.03-0.728-4.904-1.795-5.483-2.516c0.038-0.126,0.139-0.267,0.301-0.419   c1.453-1.364,5.997-2.166,9.088-1.974c2.107,0.133,2.601,0.071,3.101-0.384l0.492-1.066l-2.998-0.094   c0.024-0.834,0.705-1.352,1.187-1.406c-0.031,0.003-0.354,0.033-1.594-0.044C23.83,8.3,18.167,9.028,15.765,11.285   C14.719,12.267,14.5,13.303,14.5,14c0,2.557,3.528,3.817,7.996,5.413C22.655,19.47,22.826,19.531,23,19.593z"/>
	<path fill="#FFC107" d="M25,17.126v3.207c1.497,0.579,2.945,1.215,3.423,1.708c-0.581,0.648-3.062,1.549-4.436,2.049   C20.651,25.305,17.5,26.449,17.5,29c0,2.552,2.777,3.531,5.5,4.292v-3.128c-1.09-0.336-2.222-0.752-2.476-1.139   c0.46-0.65,3.066-1.6,4.49-2.115C28.35,25.695,31.5,24.551,31.5,22C31.5,19.736,28.732,18.489,25,17.126z"/>
</g>
</svg>