<?xml version="1.0" encoding="utf-8"?><!-- Generator: Adobe Illustrator 15.0.0, SVG Export Plug-In . SVG Version: 6.00 Build 0)  --><!DOCTYPE svg PUBLIC "-//W3C//DTD SVG 1.1//EN" "http://www.w3.org/Graphics/SVG/1.1/DTD/svg11.dtd"><svg xmlns="http://www.w3.org/2000/svg" xmlns:xlink="http://www.w3.org/1999/xlink" version="1.1" x="0px" y="0px" width="528" height="528" viewBox="0 0 48 48" enable-background="new 0 0 48 48" xml:space="preserve">
<path fill="none" stroke="#00BCD4" stroke-width="2" d="M28.174,10.482c3.479-3.475,6.661-4.462,9.732-1.39l0,0  c3.07,3.071,2.086,6.256-1.391,9.733c-7.646,7.646-20.725,19.623-22.125,20.733c-1.391,1.391-4.648,2.303-6.951,0l0,0  c-0.999-0.998-1.683-2.037-1.44-5C6.184,32.313,14,7,14,7"/>
<g>
	<circle fill="none" stroke="#00838F" stroke-width="2" cx="10.915" cy="36.084" r="4.916"/>
	<path fill="#00838F" d="M37.906,20.216c3.859-3.859,4.126-8.388,0.695-11.818s-7.959-3.164-11.818,0.695   c-1.317,1.317-4.137,4.204-4.137,4.204c4.613,4.613,7.713,3.133,9.011,2.059c-0.003-0.003-0.005-0.004-0.007-0.007   c-1.153-1.151-1.153-3.019,0-4.171c1.15-1.152,3.019-1.152,4.17,0c1.152,1.152,1.152,3.02,0,4.171   c-1.122,1.122-2.916,1.142-4.071,0.081c-0.922,1.445-2.181,4.791,1.985,8.956C33.779,24.431,36.576,21.544,37.906,20.216z"/>
</g>
</svg>