<?xml version="1.0" encoding="utf-8"?><!-- Generator: Adobe Illustrator 15.0.0, SVG Export Plug-In . SVG Version: 6.00 Build 0)  --><!DOCTYPE svg PUBLIC "-//W3C//DTD SVG 1.1//EN" "http://www.w3.org/Graphics/SVG/1.1/DTD/svg11.dtd"><svg xmlns="http://www.w3.org/2000/svg" xmlns:xlink="http://www.w3.org/1999/xlink" version="1.1" x="0px" y="0px" width="528" height="528" viewBox="0 0 48 48" enable-background="new 0 0 48 48" xml:space="preserve">
<g>
	
		<rect x="5.975" y="7.475" transform="matrix(-0.7071 -0.7072 0.7072 -0.7071 8.4734 20.4593)" fill="#90A4AE" width="4.999" height="2"/>
	<polygon fill="#90A4AE" points="12.363,12.363 11.656,7.414 7.414,11.656  "/>
	
		<rect x="37.026" y="7.474" transform="matrix(0.7072 -0.7071 0.7071 0.7072 5.5829 30.4284)" fill="#90A4AE" width="4.999" height="2"/>
	<polygon fill="#90A4AE" points="35.637,12.363 36.344,7.414 40.586,11.656  "/>
	
		<rect x="5.974" y="38.525" transform="matrix(-0.7071 0.7072 -0.7072 -0.7071 42.416 61.4798)" fill="#90A4AE" width="4.999" height="2"/>
	<polygon fill="#90A4AE" points="12.363,35.637 11.656,40.586 7.414,36.344  "/>
	
		<rect x="37.026" y="38.526" transform="matrix(0.7072 0.707 -0.707 0.7072 39.518 -16.3718)" fill="#90A4AE" width="4.999" height="2"/>
	<polygon fill="#90A4AE" points="35.637,35.637 36.344,40.586 40.586,36.344  "/>
</g>
<g>
	<path fill="#FFA726" d="M19,19c0,2.209-1.791,4-4,4s-4-1.791-4-4s1.791-4,4-4S19,16.791,19,19"/>
	<path fill="#FFA726" d="M37,19c0,2.209-1.791,4-4,4s-4-1.791-4-4s1.791-4,4-4S37,16.791,37,19"/>
</g>
<g>
	<path fill="#33691E" d="M22,29c0,0-1.938-4-7-4s-7,4-7,4v2h14V29z"/>
	<path fill="#33691E" d="M40,29c0,0-1.938-4-7-4s-7,4-7,4v2h14V29z"/>
</g>
<path fill="#FFB74D" d="M28,23c0,2.209-1.791,4-4,4s-4-1.791-4-4s1.791-4,4-4S28,20.791,28,23"/>
<path fill="#689F38" d="M31,33c0,0-1.938-4-7-4c-5.062,0-7,4-7,4v2h14V33z"/>
</svg>