<?xml version="1.0" encoding="utf-8"?><!-- Generator: Adobe Illustrator 15.0.0, SVG Export Plug-In . SVG Version: 6.00 Build 0)  --><!DOCTYPE svg PUBLIC "-//W3C//DTD SVG 1.1//EN" "http://www.w3.org/Graphics/SVG/1.1/DTD/svg11.dtd"><svg xmlns="http://www.w3.org/2000/svg" xmlns:xlink="http://www.w3.org/1999/xlink" version="1.1" x="0px" y="0px" width="528" height="528" viewBox="0 0 48 48" enable-background="new 0 0 48 48" xml:space="preserve">
<path fill="#F44336" d="M38.66,14.384c1.741-1.753,2.468-2.481,2.321-3.065c-0.145-0.293-0.435-0.73-1.015-0.876  c-0.58-0.292-1.307-0.438-1.741-0.146c-0.145,0-0.436,0.292-0.87,0.876l-0.58,0.584l0,0c-0.435-0.438-0.725-0.875-1.016-1.168  c-2.176-2.189-5.076-3.795-8.122-4.525c-1.16-1.46-2.757-2.19-4.351-2.044c-1.452,0.146-2.611,0.876-3.482,2.044  c-3.335,0.875-6.381,2.48-8.847,4.818l0,0c-0.436-0.147-1.596,0-2.321,0.291c-0.435,0.146-0.725,0.438-0.87,0.73  c0,0.146,0,0.584,0.87,1.605l0,0C6.171,17.012,4.865,21.1,5.011,25.334c0.291,4.232,2.03,8.32,4.932,11.24  c1.016,1.021,2.176,1.897,3.481,2.628l0,0c1.885,1.022,3.916,1.897,6.091,2.335c4.643,1.022,9.283,0.292,13.199-1.605l0,0  c0.435-0.292,0.726-0.729,0.435-1.313v-0.146c-0.869-2.189-3.334-9.051-1.305-15.037c0.87-2.481,3.047-5.109,4.932-7.007l0,0  c1.596,2.92,2.321,6.423,1.885,9.781c-0.289,3.066-1.594,5.985-3.625,8.321l0,0c0,0-0.145,0.146-0.145,0.292v0.146l0.145,0.438  c0,0.146,0.146,0.291,0.29,0.291c0.146,0,0.146,0,0.289-0.145l0,0C41.128,29.421,42.287,20.953,38.66,14.384L38.66,14.384  L38.66,14.384z M16.325,27.231c-0.582,2.189-1.307,5.255-1.161,10.072l0,0c-1.16-0.729-2.32-1.606-3.336-2.628  c-2.756-2.773-4.351-6.276-4.787-10.073c-0.436-3.649,0.437-7.153,2.321-10.219l0,0l0,0l0,0c0.58,0.729,1.449,1.606,2.175,2.481  c1.887,2.19,3.917,4.525,4.933,6.278C17.05,24.166,16.759,25.334,16.325,27.231L16.325,27.231z M34.745,13.362  c-3.916,3.503-7.542,5.255-10.734,5.255c-2.465,0-4.931-0.876-7.541-2.773c-2.031-1.314-3.626-3.065-4.642-4.088v-0.146l0,0l0,0l0,0  c1.885-1.751,4.206-3.066,6.816-3.649l0,0l0,0l0,0c-0.29,1.022-0.435,2.044-0.29,3.065c0.146,1.898,1.016,3.796,2.466,4.818  c1.015,0.875,2.321,1.314,3.626,1.168c1.307-0.146,2.467-0.73,3.336-1.898c1.16-1.313,1.74-3.211,1.451-5.255  c0-0.293-0.146-0.73-0.146-1.022l0,0c1.741,0.876,3.48,2.045,4.786,3.358C34.164,12.778,34.455,13.069,34.745,13.362L34.745,13.362"/>
</svg>