<?xml version="1.0" encoding="utf-8"?><!-- Generator: Adobe Illustrator 15.0.0, SVG Export Plug-In . SVG Version: 6.00 Build 0)  --><!DOCTYPE svg PUBLIC "-//W3C//DTD SVG 1.1//EN" "http://www.w3.org/Graphics/SVG/1.1/DTD/svg11.dtd"><svg xmlns="http://www.w3.org/2000/svg" xmlns:xlink="http://www.w3.org/1999/xlink" version="1.1" x="0px" y="0px" width="528" height="528" viewBox="0 0 48 48" enable-background="new 0 0 48 48" xml:space="preserve">
<path fill="#C5CAE9" d="M13.527,38.932C9.974,42.507,5,40.361,5,40.361l15.635-15.73l2.132,2.145l-5.686,5.721  C17.081,32.495,16.37,36.07,13.527,38.932z"/>
<path fill="#00BCD4" d="M21.346,31.064l-7.107-1.43l21.897-23.45c1.57-1.58,4.115-1.58,5.687,0l0,0c1.569,1.581,1.569,4.142,0,5.721  L21.346,31.064z"/>
<g>
	<polygon fill="#00838F" points="15.81,27.941 14.238,29.636 21.346,31.064 23.132,29.406  "/>
	<polygon fill="#00838F" points="18.47,25.074 16.874,26.795 24.337,28.287 26.145,26.609  "/>
	<polygon fill="#00838F" points="24.104,19.001 22.508,20.721 30.716,22.363 32.521,20.685  "/>
	<polygon fill="#00838F" points="21.286,22.037 19.69,23.758 27.525,25.325 29.333,23.646  "/>
</g>
</svg>