<?xml version="1.0" encoding="utf-8"?><!-- Generator: Adobe Illustrator 15.0.0, SVG Export Plug-In . SVG Version: 6.00 Build 0)  --><!DOCTYPE svg PUBLIC "-//W3C//DTD SVG 1.1//EN" "http://www.w3.org/Graphics/SVG/1.1/DTD/svg11.dtd"><svg xmlns="http://www.w3.org/2000/svg" xmlns:xlink="http://www.w3.org/1999/xlink" version="1.1" x="0px" y="0px" width="528" height="528" viewBox="0 0 48 48" enable-background="new 0 0 48 48" xml:space="preserve">
<g>
	
		<line fill="none" stroke="#FF9800" stroke-width="2" stroke-linecap="square" stroke-linejoin="round" stroke-miterlimit="10" x1="15" y1="8" x2="20" y2="8"/>
	
		<line fill="none" stroke="#FF9800" stroke-width="2" stroke-linecap="square" stroke-linejoin="round" stroke-miterlimit="10" x1="28" y1="8" x2="33" y2="8"/>
	
		<line fill="none" stroke="#FF9800" stroke-width="2" stroke-linecap="square" stroke-linejoin="round" stroke-miterlimit="10" x1="13" y1="13" x2="20" y2="13"/>
	
		<line fill="none" stroke="#FF9800" stroke-width="2" stroke-linecap="square" stroke-linejoin="round" stroke-miterlimit="10" x1="28" y1="13" x2="35" y2="13"/>
	
		<line fill="none" stroke="#FF9800" stroke-width="2" stroke-linecap="square" stroke-linejoin="round" stroke-miterlimit="10" x1="14" y1="18" x2="20" y2="18"/>
	
		<line fill="none" stroke="#FF9800" stroke-width="2" stroke-linecap="square" stroke-linejoin="round" stroke-miterlimit="10" x1="28" y1="18" x2="34" y2="18"/>
	
		<line fill="none" stroke="#FF9800" stroke-width="2" stroke-linecap="square" stroke-linejoin="round" stroke-miterlimit="10" x1="17" y1="23" x2="20" y2="23"/>
	
		<line fill="none" stroke="#FF9800" stroke-width="2" stroke-linecap="square" stroke-linejoin="round" stroke-miterlimit="10" x1="28" y1="23" x2="31" y2="23"/>
</g>
<g>
	<path fill="#FFC107" d="M24,31.399c-3.353,0-5.629-1.399-6.428-1.399C15.6,30,14,31.678,14,33.75c0,2.071,2.523,3.375,4.063,4.5   C19.604,39.375,21.934,42,24,42c2.064,0,5.279-3.022,5.916-3.586C31.076,37.383,34,35.821,34,33.75c0-2.072-1.6-3.75-3.572-3.75   C29.631,30,27.354,31.399,24,31.399z M28.562,32.711c0.948-0.632,2.15-0.429,2.685,0.451c0.533,0.878,0.199,2.108-0.746,2.742   c-0.947,0.632-2.148,0.433-2.684-0.447C27.281,34.575,27.617,33.345,28.562,32.711z M20.183,35.454   c-0.535,0.882-1.736,1.078-2.683,0.445c-0.945-0.634-1.282-1.859-0.746-2.742c0.533-0.879,1.734-1.079,2.683-0.446   C20.383,33.345,20.719,34.575,20.183,35.454z"/>
	<circle fill="#FFC107" cx="24" cy="28" r="2"/>
	<circle fill="#FFC107" cx="24" cy="23" r="2"/>
	<circle fill="#FFC107" cx="24" cy="18" r="2"/>
	<circle fill="#FFC107" cx="24" cy="13" r="2"/>
	<circle fill="#FFC107" cx="24" cy="8" r="2"/>
</g>
</svg>