<?xml version="1.0" encoding="utf-8"?><!-- Generator: Adobe Illustrator 15.0.0, SVG Export Plug-In . SVG Version: 6.00 Build 0)  --><!DOCTYPE svg PUBLIC "-//W3C//DTD SVG 1.1//EN" "http://www.w3.org/Graphics/SVG/1.1/DTD/svg11.dtd"><svg xmlns="http://www.w3.org/2000/svg" xmlns:xlink="http://www.w3.org/1999/xlink" version="1.1" x="0px" y="0px" width="528" height="528" viewBox="0 0 48 48" enable-background="new 0 0 48 48" xml:space="preserve">
<path fill="#673AB7" d="M24,6L4,17.89V42h40V17.89L24,6z"/>
<g>
	<path fill="#FFFFFF" d="M26.557,24.818c0.769,2.074,3.699,2.896,6.547,1.842c2.85-1.055,4.364-4.055,3.77-5.662   c-0.596-1.606-3.699-2.895-6.547-1.84C27.479,20.213,25.789,22.747,26.557,24.818z"/>
	<path fill="none" stroke="#FFFFFF" stroke-width="2" d="M10,33.816c3.821,3.432,4.565-1.691,4.565-1.691s0.867-5.158,4.564-1.691   c5.93,5.56,4.869-2.873,4.869-2.873s-0.045-2.121,1.26-2.604L28,24"/>
</g>
</svg>