<?xml version="1.0" encoding="utf-8"?><!-- Generator: Adobe Illustrator 15.0.0, SVG Export Plug-In . SVG Version: 6.00 Build 0)  --><!DOCTYPE svg PUBLIC "-//W3C//DTD SVG 1.1//EN" "http://www.w3.org/Graphics/SVG/1.1/DTD/svg11.dtd"><svg xmlns="http://www.w3.org/2000/svg" xmlns:xlink="http://www.w3.org/1999/xlink" version="1.1" x="0px" y="0px" width="528" height="528" viewBox="0 0 48 48" enable-background="new 0 0 48 48" xml:space="preserve">
<path fill="none" stroke="#B0BEC5" stroke-width="2" d="M22,8c3,0,3,2,3,3.5c0,7.456-3.806,15.5-8.5,15.5h-1  C10.806,27,7,18.956,7,11.5C7,10,7,8,10,8"/>
<g>
	<path fill="none" stroke="#2196F3" stroke-width="2" d="M23.429,20.002C21.888,24.018,19.358,27,16.5,27h-1   c-2.858,0-5.388-2.982-6.929-6.998"/>
	<path fill="none" stroke="#2196F3" stroke-width="2" d="M16,25.999c0,0,0.004,2.834,0.011,3C16.272,35.118,20,41,27.5,41   S39,34.851,39,28.499V25"/>
</g>
<g>
	<circle fill="#455A64" cx="11" cy="8" r="2"/>
	<circle fill="#455A64" cx="21" cy="8" r="2"/>
	<circle fill="#455A64" cx="39" cy="24" r="3"/>
</g>
<circle fill="#CFD8DC" cx="39" cy="24" r="1"/>
</svg>