<?xml version="1.0" encoding="utf-8"?><!-- Generator: Adobe Illustrator 15.0.0, SVG Export Plug-In . SVG Version: 6.00 Build 0)  --><!DOCTYPE svg PUBLIC "-//W3C//DTD SVG 1.1//EN" "http://www.w3.org/Graphics/SVG/1.1/DTD/svg11.dtd"><svg xmlns="http://www.w3.org/2000/svg" xmlns:xlink="http://www.w3.org/1999/xlink" version="1.1" x="0px" y="0px" width="528" height="528" viewBox="0 0 48 48" enable-background="new 0 0 48 48" xml:space="preserve">
<path fill="#E91E63" d="M24.207,12.426C24.046,11.599,24,8.511,24,6h-4c0,8.392,0.865,10.559,2.426,12.429  C24,20.002,26,20.002,26,20.002c0.324-0.991,1.939-4.265-0.032-4.313C24.271,15.646,24.215,12.465,24.207,12.426z"/>
<path fill="#FF80AB" d="M24,21.002c0,0.896,0.908,11.458-5.035,11.458c-4.415,0-4.666-1.458-7.965-1.458  c-1.417,0-2.643,0.707-3.967,2.993C6.188,35.453,5,38.872,5,38.872s0.985,1.943,3.913,1.419c0.153-0.555,0.77-3.733,2.247-3.733  c1.201,0,1.941,0.029,3.687,1.64C16.98,40.165,19.119,42,23.718,42c7.473,0,14.751-4.766,16.741-14.204  C42.902,16.204,37,11.002,32,11.002C27.533,11.002,24,12.832,24,21.002z"/>
</svg>