<?xml version="1.0" encoding="utf-8"?><!-- Generator: Adobe Illustrator 15.0.0, SVG Export Plug-In . SVG Version: 6.00 Build 0)  --><!DOCTYPE svg PUBLIC "-//W3C//DTD SVG 1.1//EN" "http://www.w3.org/Graphics/SVG/1.1/DTD/svg11.dtd"><svg xmlns="http://www.w3.org/2000/svg" xmlns:xlink="http://www.w3.org/1999/xlink" version="1.1" x="0px" y="0px" width="528" height="528" viewBox="0 0 48 48" enable-background="new 0 0 48 48" xml:space="preserve">
<g>
	<rect x="2" y="13" fill="#455A64" width="44" height="2"/>
	<rect x="2" y="33" fill="#455A64" width="44" height="2"/>
</g>
<rect x="7" y="13" fill="#F44336" width="34" height="22"/>
<path fill="#FFCC80" d="M16,23.5c0,1.929-1.571,3.5-3.5,3.5S9,25.429,9,23.5c0-1.928,1.571-3.5,3.5-3.5S16,21.572,16,23.5"/>
<path fill="#FFEBEE" d="M23.884,30H28l1-2l10-0.997v-6.006L29,20l-1-2h-4.116C20.635,18,18,20.687,18,24S20.635,30,23.884,30"/>
</svg>