<?xml version="1.0" encoding="utf-8"?><!-- Generator: Adobe Illustrator 15.0.0, SVG Export Plug-In . SVG Version: 6.00 Build 0)  --><!DOCTYPE svg PUBLIC "-//W3C//DTD SVG 1.1//EN" "http://www.w3.org/Graphics/SVG/1.1/DTD/svg11.dtd"><svg xmlns="http://www.w3.org/2000/svg" xmlns:xlink="http://www.w3.org/1999/xlink" version="1.1" x="0px" y="0px" width="528" height="528" viewBox="0 0 48 48" enable-background="new 0 0 48 48" xml:space="preserve">
<polygon fill="#FF3D00" points="20.513,35 13.435,35 12.02,33.596 12.02,26.517 15.558,22.978 24.052,31.472 "/>
<polygon fill="#78909C" points="6,42.46 6,39.629 12.02,33.596 13.435,35.011 "/>
<rect x="20.523" y="10.991" transform="matrix(0.7071 0.7071 -0.7071 0.7071 22.2662 -12.7544)" fill="#90CAF9" width="12.013" height="19.018"/>
<g>
	
		<rect x="32.02" y="9.504" transform="matrix(0.7071 0.7071 -0.7071 0.7071 18.7481 -21.2482)" fill="#1E88E5" width="6.006" height="5.006"/>
	
		<rect x="31.025" y="8.998" transform="matrix(0.7071 0.7071 -0.7071 0.7071 17.9162 -23.2565)" fill="#1E88E5" width="12.013" height="2.002"/>
	
		<rect x="20.903" y="18.084" transform="matrix(0.7072 0.707 -0.707 0.7072 20.6404 -11.6674)" fill="#1E88E5" width="7.007" height="2.002"/>
	
		<rect x="17.363" y="21.623" transform="matrix(0.7071 0.7071 -0.7071 0.7071 22.1078 -8.1286)" fill="#1E88E5" width="7.007" height="2.002"/>
	
		<rect x="24.442" y="14.545" transform="matrix(0.7071 0.7071 -0.7071 0.7071 19.1776 -15.207)" fill="#1E88E5" width="7.008" height="2.003"/>
</g>
</svg>