<?xml version="1.0" encoding="utf-8"?><!-- Generator: Adobe Illustrator 15.0.0, SVG Export Plug-In . SVG Version: 6.00 Build 0)  --><!DOCTYPE svg PUBLIC "-//W3C//DTD SVG 1.1//EN" "http://www.w3.org/Graphics/SVG/1.1/DTD/svg11.dtd"><svg xmlns="http://www.w3.org/2000/svg" xmlns:xlink="http://www.w3.org/1999/xlink" version="1.1" x="0px" y="0px" width="528" height="528" viewBox="0 0 48 48" enable-background="new 0 0 48 48" xml:space="preserve">
<path fill="#FFB74D" d="M11.206,14.395c-1.32,1.768-3.833,2.133-5.6,0.812c-1.768-1.319-2.132-3.832-0.811-5.601  c1.321-1.768,3.833-2.132,5.6-0.811C12.162,10.115,12.526,12.627,11.206,14.395"/>
<g>
	<rect x="15" y="29" fill="#C5CAE9" width="4" height="10"/>
	<rect x="40" y="31" fill="#C5CAE9" width="4" height="8"/>
</g>
<g>
	<path fill="#F44336" d="M46,32.999V32c0-1.657-1.344-3-3-3H20l2,3.999H46z"/>
	<path fill="#F44336" d="M26,32.999L6.677,19.1c-1.414-0.859-3.261-0.414-4.123,1.003L2,21l17,11.999H26z"/>
</g>
<g>
	<circle fill="#2196F3" cx="43" cy="26" r="2"/>
	<path fill="#2196F3" d="M12.643,15.639l-0.83,1.064c-0.689,0.859-1.669,2.909,0.608,4.609c2.277,1.7,6.902,5.036,7.625,5.575   c2.801,2.092,5.802,0.59,5.802,0.59L33,25l9.166,2.814L44,24.27L33,20l-7.98,0.981L19,16C19,16,15,12.656,12.643,15.639z"/>
</g>
<path fill="#3F51B5" d="M23.978,23.46c-0.696-0.522-9.47-4.476-9.483-4.481l8.299,6.094c0.668,0.489,0.812,1.43,0.321,2.097  c-0.294,0.4-0.749,0.612-1.21,0.612c-0.046,0-0.09-0.019-0.136-0.021c1.334,0.402,2.56,0.212,3.312-0.004  c0.29-0.62,0.392-1.313,0.284-2.004C25.225,24.827,24.674,23.982,23.978,23.46z"/>
</svg>