<?xml version="1.0" encoding="iso-8859-1"?><!-- Generator: Adobe Illustrator 19.1.1, SVG Export Plug-In . SVG Version: 6.00 Build 0)  --><svg xmlns="http://www.w3.org/2000/svg" xmlns:xlink="http://www.w3.org/1999/xlink" version="1.1" id="Layer_1" x="0px" y="0px" viewBox="0 0 48 48" style="enable-background:new 0 0 48 48;" xml:space="preserve" width="528" height="528">
<rect x="13" y="21" style="fill:#00BCD4;" width="27" height="16"/>
<path style="fill:#FF1744;" d="M42,43H4v-6h38c1.105,0,2,0.895,2,2v2C44,42.105,43.105,43,42,43z"/>
<path style="fill:#80DEEA;" d="M41,37h-2V19h2V37z M37,19h-2v18h2V19z M33,19h-2v18h2V19z M29,19h-2v18h2V19z M25,19h-2v18h2V19z   M21,19h-2v18h2V19z M17,19h-2v18h2V19z"/>
<path style="fill:#BBDEFB;" d="M33,9c-1.804,0-13.162,0-15,0C7.063,9,7,23,7,23s2.5-4,11-4c1.729,0,13.071,0,15,0  C43.938,19,44,5,44,5S41.5,9,33,9z"/>
<g>
	<path style="fill:#FFFFFF;" d="M11,17c0,0,0.156-0.501,0.62-1.3c0.467-0.787,1.246-1.903,2.571-2.885   c0.655-0.497,1.454-0.942,2.372-1.249c0.457-0.159,0.944-0.275,1.448-0.359c0.504-0.075,1.046-0.089,1.506-0.102   c0.963-0.022,1.958-0.071,2.969-0.071c1.011-0.01,2.038-0.02,3.065-0.03c1.027-0.012,2.054,0.014,3.065,0.019   c1.011,0.011,2.006,0.013,2.969,0.049c0.963,0.028,1.893,0.056,2.776,0.081c0.217,0.011,0.432,0.021,0.643,0.031   c0.17,0.013,0.371,0.01,0.559,0.007c0.382-0.011,0.754-0.051,1.109-0.101c1.434-0.178,2.555-0.688,3.27-1.179   c0.351-0.252,0.626-0.475,0.792-0.649C40.907,9.092,41,9,41,9s-0.054,0.119-0.154,0.343c-0.092,0.233-0.277,0.55-0.568,0.925   c-0.287,0.38-0.717,0.777-1.265,1.171c-0.555,0.38-1.244,0.711-2.029,0.979c-0.396,0.119-0.814,0.225-1.258,0.303   c-0.225,0.037-0.444,0.073-0.704,0.093c-0.218,0.01-0.438,0.021-0.662,0.031c-0.883,0.026-1.813,0.053-2.776,0.081   c-0.963,0.037-1.958,0.039-2.969,0.049c-1.011,0.005-2.038,0.031-3.065,0.019c-1.027-0.01-2.054-0.02-3.065-0.03   c-1.011,0-2.006-0.049-2.969-0.071c-0.969-0.04-1.733-0.017-2.542,0.15c-0.783,0.169-1.506,0.45-2.152,0.775   c-1.285,0.674-2.245,1.512-2.876,2.135C11.316,16.582,11,17,11,17z"/>
</g>
</svg>