<?xml version="1.0" encoding="utf-8"?><!-- Generator: Adobe Illustrator 15.0.0, SVG Export Plug-In . SVG Version: 6.00 Build 0)  --><!DOCTYPE svg PUBLIC "-//W3C//DTD SVG 1.1//EN" "http://www.w3.org/Graphics/SVG/1.1/DTD/svg11.dtd"><svg xmlns="http://www.w3.org/2000/svg" xmlns:xlink="http://www.w3.org/1999/xlink" version="1.1" x="0px" y="0px" width="528" height="528" viewBox="0 0 48 48" enable-background="new 0 0 48 48" xml:space="preserve">
<path fill="#90CAF9" d="M36,25c-2,4.002-1,17-5,17s-4-13-7-13s-2,13-6,13s-4-12.998-6-17c-1.612-3.225-2-11-2-11  c0-4.419,2.582-8,7-8c0,0,3,0.998,7,0.999S31,6,31,6c4.418,0,7,3.581,7,8C38,14,38,20.999,36,25z"/>
<g>
	<g>
		<path fill="#42A5F5" d="M12,25c-1.219-2.229-2.127-4.643-2.622-7.195c-0.455-2.538-0.514-5.301,0.549-7.898    c0.541-1.277,1.376-2.498,2.538-3.383c1.16-0.878,2.595-1.389,4.03-1.464c0.181-0.009,0.355-0.008,0.542-0.003l0.482,0.035    c0.337,0.025,0.664,0.061,1.001,0.109c0.665,0.096,1.372,0.311,1.981,0.579c0.589,0.298,1.078,0.517,1.669,0.712    c0.583,0.18,1.201,0.34,1.83,0.507c-0.629,0.163-1.272,0.281-1.938,0.296C21.4,7.341,20.678,7.191,20.079,7.08    c-0.583-0.136-1.122-0.159-1.711-0.168c-0.289-0.008-0.592-0.004-0.884,0.01l-0.462,0.021l-0.402,0.027    c-2.183,0.146-4.022,1.644-4.92,3.705c-0.932,2.064-1.113,4.529-0.945,6.954C10.906,20.076,11.423,22.529,12,25z"/>
	</g>
	<g>
		<path fill="#42A5F5" d="M36,25c0.588-2.475,1.12-4.932,1.287-7.383c0.184-2.43,0.018-4.902-0.921-6.965    c-0.905-2.061-2.77-3.532-4.968-3.682l-0.402-0.027l-0.465-0.021c-0.291-0.014-0.596-0.017-0.886-0.01    c-0.591,0.009-1.132,0.031-1.716,0.166c-0.6,0.111-1.323,0.263-1.987,0.217C25.275,7.281,24.631,7.162,24,6.999    c0.63-0.168,1.25-0.327,1.834-0.509c0.593-0.195,1.082-0.416,1.674-0.715c0.613-0.269,1.321-0.482,1.987-0.576    c0.339-0.049,0.665-0.084,1.004-0.109l0.481-0.033c0.191-0.004,0.361-0.006,0.543,0.004c1.433,0.076,2.869,0.572,4.041,1.441    c1.173,0.873,2.023,2.095,2.57,3.375c1.075,2.609,0.997,5.383,0.527,7.924C38.15,20.355,37.229,22.771,36,25z"/>
	</g>
	<g>
		<path fill="#42A5F5" d="M18,15c-0.063-1.473,0.488-3.006,1.59-4.185C20.686,9.611,22.407,8.979,24,9    c1.594-0.025,3.315,0.609,4.412,1.813C29.515,11.992,30.064,13.526,30,15c-0.738-1.258-1.611-2.312-2.62-3.016    C26.369,11.275,25.221,11.01,24,11c-1.221,0.006-2.37,0.273-3.382,0.982C19.609,12.687,18.736,13.741,18,15z"/>
	</g>
</g>
</svg>