<?xml version="1.0" encoding="utf-8"?><!-- Generator: Adobe Illustrator 15.0.0, SVG Export Plug-In . SVG Version: 6.00 Build 0)  --><!DOCTYPE svg PUBLIC "-//W3C//DTD SVG 1.1//EN" "http://www.w3.org/Graphics/SVG/1.1/DTD/svg11.dtd"><svg xmlns="http://www.w3.org/2000/svg" xmlns:xlink="http://www.w3.org/1999/xlink" version="1.1" x="0px" y="0px" width="528" height="528" viewBox="0 0 48 48" enable-background="new 0 0 48 48" xml:space="preserve">
<path fill="#455A64" d="M36,6H26c0,1.104-0.896,2-2,2s-2-0.896-2-2H12c-2.209,0-4,1.791-4,4v32c0,2.209,1.791,4,4,4h24  c2.209,0,4-1.791,4-4V10C40,7.791,38.209,6,36,6"/>
<path fill="#FFFFFF" d="M36,43H12c-0.552,0-1-0.448-1-1V10c0-0.552,0.448-1,1-1h24c0.552,0,1,0.448,1,1v32  C37,42.552,36.552,43,36,43"/>
<g>
	<path fill="#90A4AE" d="M26,6c0,1.105-0.895,2-2,2s-2-0.895-2-2h-7v4c0,1.105,0.895,2,2,2h14c1.105,0,2-0.895,2-2V6H26z"/>
	<path fill="#90A4AE" d="M24,2c-2.206,0-4,1.794-4,4s1.794,4,4,4s4-1.794,4-4S26.206,2,24,2 M24,8c-1.104,0-2-0.896-2-2s0.896-2,2-2   s2,0.896,2,2S25.104,8,24,8"/>
</g>
<g>
	<rect x="27" y="20" fill="#CFD8DC" width="6" height="2"/>
	<rect x="27" y="16" fill="#CFD8DC" width="6" height="2"/>
	<rect x="27" y="24" fill="#CFD8DC" width="6" height="2"/>
	<rect x="15" y="28" fill="#CFD8DC" width="18" height="2"/>
	<rect x="15" y="32" fill="#CFD8DC" width="18" height="2"/>
	<rect x="15" y="36" fill="#CFD8DC" width="18" height="2"/>
</g>
<g>
	<rect x="15" y="19" fill="#F44336" width="10" height="4"/>
	<rect x="18" y="16" fill="#F44336" width="4" height="10"/>
</g>
</svg>