<?xml version="1.0" encoding="utf-8"?><!-- Generator: Adobe Illustrator 15.0.0, SVG Export Plug-In . SVG Version: 6.00 Build 0)  --><!DOCTYPE svg PUBLIC "-//W3C//DTD SVG 1.1//EN" "http://www.w3.org/Graphics/SVG/1.1/DTD/svg11.dtd"><svg xmlns="http://www.w3.org/2000/svg" xmlns:xlink="http://www.w3.org/1999/xlink" version="1.1" x="0px" y="0px" width="528" height="528" viewBox="0 0 48 48" enable-background="new 0 0 48 48" xml:space="preserve">
<path fill="#006064" d="M5.11,37.904c0,0-0.549,0.902-0.066,1.432c0.975,1.07,1.438,0.074,1.438,0.074  c12.416-19.44,33.483-27.923,35.184-29.028c1.703-1.112,1.333-3.046,0.193-4.292l0,0c-1.83-2.011-4.308-0.223-4.308-0.223  S16.09,18.39,5.11,37.904z"/>
<path fill="#00BCD4" d="M9.976,42.727c0,0-0.903,0.545-1.436,0.065c-1.076-0.97-0.074-1.433-0.074-1.433  C27.977,28.979,36.473,7.988,37.582,6.297c1.115-1.699,2.788-1.717,4.311-0.2c2.004,1.995,0.226,4.294,0.226,4.294  S29.563,31.773,9.976,42.727z"/>
<g>
	<path fill="#00838F" d="M27.729,22.939c-0.435,0.592-0.885,1.188-1.35,1.788l4.301,0.858c0.528-0.59,1.047-1.176,1.543-1.752   L27.729,22.939z"/>
	<path fill="#00838F" d="M29.622,26.746l-4.183-0.832c-0.465,0.58-0.945,1.161-1.441,1.743l4.005,0.802   C28.559,27.886,29.098,27.314,29.622,26.746z"/>
	<path fill="#00838F" d="M29.969,19.752c-0.396,0.593-0.814,1.197-1.246,1.81l4.641,0.925c0.504-0.605,0.979-1.193,1.441-1.771   L29.969,19.752z"/>
	<path fill="#00838F" d="M32.029,16.528c-0.363,0.596-0.743,1.204-1.146,1.829l4.992,0.996c0.479-0.617,0.935-1.217,1.36-1.788   L32.029,16.528z"/>
</g>
</svg>