<?xml version="1.0" encoding="utf-8"?><!-- Generator: Adobe Illustrator 15.0.0, SVG Export Plug-In . SVG Version: 6.00 Build 0)  --><!DOCTYPE svg PUBLIC "-//W3C//DTD SVG 1.1//EN" "http://www.w3.org/Graphics/SVG/1.1/DTD/svg11.dtd"><svg xmlns="http://www.w3.org/2000/svg" xmlns:xlink="http://www.w3.org/1999/xlink" version="1.1" x="0px" y="0px" width="528" height="528" viewBox="0 0 48 48" enable-background="new 0 0 48 48" xml:space="preserve">
<g>
	<path fill="#1565C0" d="M30.36,36.69c0,0,0.479-0.16,1.279-0.88c0.721-0.64,0.88-1.52,1.521-2.4c0.72-0.96,2.319-2.399,2.319-2.399   s-0.479,2-0.96,2.96c-0.64,1.359-1.439,1.84-1.439,1.84s0.399,0.24,0.88,0c0.479-0.24,1.04-0.48,1.76-0.4s1.68,0.08,2.641-0.479   c0.96-0.561,1.76-1.12,1.76-1.12s-0.561,1.84-2.96,2.8c-1.521,0.642-3.28,0.642-3.84,0.32c-0.561-0.32-1.2-0.48-1.681-0.32   C31.24,36.851,30.36,36.69,30.36,36.69 M37.96,27.011c0,0-0.96,2-1.28,2.96c-0.319,0.96-0.399,2.479-0.56,3.2   c-0.16,0.72-0.48,1.04-0.48,1.04s3.04-0.24,4.48-1.28c2.319-1.601,2.72-4.32,2.72-4.32s-0.8,1.2-1.84,1.84   c-0.64,0.4-1.84,1.04-2.561,1.521c-0.64,0.479-0.8,1.12-1.119,0.96c-0.32-0.16,0.079-0.96,0.399-1.601   c0.24-0.56,0.4-1.359,0.24-1.92C37.96,28.771,37.96,27.011,37.96,27.011 M39.16,23.091c0,0-0.32,2-0.24,2.8s0.32,2.08,0.24,3.12   c-0.08,1.12-0.24,1.6-0.24,1.6s3.2-2,4-3.84c0.479-1.12,0.96-3.04,0.96-3.04s-0.16,0.32-0.64,0.96c-0.48,0.72-1.2,0.96-1.761,1.84   c-0.72,1.12-1.439,1.761-1.439,1.761s0.16-1.841,0.08-2.4C40.04,25.252,39.16,23.091,39.16,23.091 M39.08,18.61   c0,0,0.08,2.561,0.399,3.2c0.4,0.8,0.801,1.52,1.28,2.64c0.48,1.12,0.32,0.96,0.32,0.96s0.319-0.319,0.479-0.56   s1.2-1.12,1.681-2.88c0.479-1.76,0.08-4,0.08-4s-0.24,0.72-0.32,1.281c-0.16,0.639-0.88,1.519-1.12,2.318   c-0.24,0.88-0.24,1.44-0.4,1.44c-0.159,0-0.399-0.561-0.479-1.12c0-0.48-0.72-1.36-1.28-2.24   C39.399,18.931,39.08,18.61,39.08,18.61 M38.04,14.931c0,0,0.56,1.04,0.88,1.92c0.4,0.88,1.36,1.92,1.84,2.479   c0.48,0.561,0.64,1.04,0.64,1.04s0.24-0.8,0.561-1.439c0.64-1.12,0.56-1.44,0.64-2.88c0-1.44-1.359-3.44-1.359-3.44   s0.159,0.72,0.239,1.2s-0.08,2.4-0.159,2.8c-0.08,0.4,0.159,1.44-0.08,1.521c-0.24,0.08-0.96-1.2-1.521-1.84   C39.24,15.65,38.04,14.931,38.04,14.931 M36.2,11.41c0,0,0.319,1.2,1.199,1.761c0.48,0.319,1.761,1.279,2.32,1.68   c0.561,0.401,0.8,0.8,0.8,0.8s0-3.04-0.239-4c-0.32-0.96-1.841-2.16-1.841-2.16s0.24,0.721,0.48,1.04c0.24,0.4,0.24,1.2,0.56,2   c0.32,0.8,0.561,1.2,0.32,1.28c-0.16,0.08-0.72-0.32-1.04-0.72c-0.399-0.4-1.12-0.641-1.68-1.04C36.52,11.73,36.2,11.41,36.2,11.41    M34.92,8.131c0,0,1.12,1.84,1.6,2.319c0.561,0.48,1.841,1.12,1.841,1.12s-0.641-1.76-1.44-2.399   C36.12,8.53,34.92,8.131,34.92,8.131 M11.32,37.65c0,0,0.239,0.641,1.52,1.12c1.2,0.56,3.28,0.72,4.32,0.56   c1.04-0.078,1.52-0.319,2.72-1.039c1.2-0.721,1.76-0.801,2.48-0.881c0.72-0.08,0.72,0.08,0.72,0.08s-1.2,0.641-2.4,1.36   c-1.12,0.8-2,1.6-2,1.6l0.48,0.48c0,0,0.16-0.24,1.279-1.36c1.2-1.12,3.04-1.92,3.601-1.92c0.56,0,2.08,0.8,3.2,1.602   c1.12,0.799,1.76,1.759,1.76,1.759l0.399-0.48c0,0-1.68-1.439-2.399-1.92c-0.64-0.56-2-1.04-2-1.04s0.72-0.08,1.2,0   c0.479,0,1.52,0.561,2.479,1.2s1.84,0.8,4.08,0.56c3.68-0.319,3.84-1.52,3.84-1.52s-1.2,0.64-2.72,0.56c-1.04,0-2.96-0.64-4-0.96   c-1.04-0.319-2-0.56-2.72-0.479c-1.44,0.08-3.28,0.399-3.28,0.399s-1.44-0.159-2.24-0.319s-2.16-0.08-4,0.399   c-1.76,0.48-2.8,0.801-3.84,0.881C12.76,38.37,11.32,37.65,11.32,37.65 M7.64,33.73c0,0,0.16,0.4,1.2,1.6   c1.6,1.761,3.44,1.841,4.4,1.841c1.04,0,2.159-0.4,2.8-0.48c0.64-0.08,1.6,0,1.6,0s-0.72-0.32-1.439-0.96   c-0.721-0.56-0.561-1.28-1.601-2.56c-1.04-1.36-2.08-2.08-2.08-2.08s0.4,2.161,1.2,3.439c0.48,0.88,1.2,1.2,1.12,1.28   s-0.72,0.08-0.96-0.08c-0.24-0.08-0.88-0.32-1.6-0.4c-0.721-0.078-1.761,0.24-2.96-0.479C8.76,34.61,7.64,33.73,7.64,33.73    M4.76,28.69c0,0,0.72,1.68,1.521,2.96c0.8,1.28,2.88,2.08,3.6,2.32s2.24,0.32,2.24,0.32s-0.4-0.48-0.641-1.36   c-0.239-0.8-0.159-2.72-0.64-3.76c-0.56-1.2-0.96-1.919-0.96-1.919s0.08,0.639-0.08,1.039c-0.16,0.8,0,2.72,0.16,3.52   c0.16,0.72,0.64,1.2,0.32,1.36c-0.32,0.159-0.48-0.32-1.04-0.88c-0.48-0.561-2-1.039-2.96-1.841C5.479,29.57,4.76,28.69,4.76,28.69    M3.88,23.73c0,0,0.08,0.8,0.24,1.44c0.16,0.64,1.12,2.72,2.16,3.68s2.479,1.92,2.479,1.92s-0.08-0.8-0.24-1.44   c-0.159-0.64,0.24-1.92,0.32-3.039c0.08-1.12-0.16-3.039-0.16-3.039s-0.96,1.839-1.12,3.358c-0.08,0.88,0.24,1.84,0,1.84   c-0.319,0.08-1.199-1.76-1.6-2.239c-0.48-0.561-0.8-0.801-1.28-1.28C4.2,24.53,3.88,23.73,3.88,23.73 M4.28,18.131   c0,0-0.16,2.8,0.159,4.08C5,24.291,6.6,25.57,6.6,25.57s0.16-0.72,0.48-1.439c0.319-0.721,0.88-1.44,1.12-2   c0.399-1.12,0.56-3.2,0.56-3.2s-0.399,0.56-0.72,1.04c-0.32,0.479-0.72,1.04-1.12,1.76c-0.32,0.8-0.4,1.44-0.72,1.521   C5.72,23.33,6.12,22.53,5.72,21.57c-0.399-0.96-1.04-2-1.12-2.479C4.52,18.61,4.28,18.131,4.28,18.131 M6.439,12.69   c0,0-1.119,1.521-1.279,2.88c-0.16,1.36-0.08,2.48,0.479,3.44c0.4,0.64,0.48,1.52,0.48,1.52s0.16-0.479,0.64-0.96   c0.48-0.479,1.28-1.2,1.84-2.16c0.561-0.96,1.04-2.239,1.04-2.239S8.76,15.65,8.2,16.131c-1.28,1.121-1.92,2.239-1.92,2.239   s-0.32-0.319-0.24-0.8c0.24-0.399,0.32-1.12,0.24-1.68c-0.08-0.48-0.24-0.8-0.08-1.44C6.28,13.811,6.439,12.69,6.439,12.69    M9.479,9.57c0,0-1.52,0.88-1.92,2c-0.319,0.88-0.16,1.76-0.319,2.641c-0.16,0.88,0.08,1.52,0.08,1.52s0.079-0.24,0.64-0.8   c0.56-0.561,1.36-0.88,1.92-1.28c1.28-0.88,1.84-2.24,1.84-2.24S11,12.051,10.6,12.291c-0.319,0.159-1.04,0.56-1.52,0.88   c-0.4,0.239-0.641,1.04-0.641,1.04s-0.479-0.4-0.319-0.881c0.16-0.479,0.399-0.88,0.479-1.359c0.08-0.48,0.24-1.2,0.48-1.521   C9.24,10.131,9.479,9.57,9.479,9.57 M10.6,9.49c-1.04,1.04-1.279,2.32-1.279,2.32s1.119-0.559,2.079-1.52   c0.801-0.801,1.521-2,1.521-2S11.16,8.931,10.6,9.49"/>
	<path fill="#1565C0" d="M30.821,17.35c-1.396-2.481-2.17-4.342-3.101-4.031c-1.24,0.465-0.155,3.101,0.466,4.651   c0.465,1.55,2.015,4.65,2.015,4.65l0.62,5.581c0,0.621,0.62,1.086,1.241,1.086h1.86c0.465,0,0.93-0.465,0.93-0.93V16.419   c0-1.085-0.465-2.17-1.396-2.945l-8.526-7.442c-2.016,2.48,4.961,7.287,6.201,8.372C31.132,14.403,31.441,16.108,30.821,17.35z"/>
	<path fill="#1565C0" d="M17.179,17.35c0.774-1.085,1.859-4.497,3.101-4.031c1.24,0.62,0.155,3.101-0.466,4.651   c-0.465,1.55-2.015,4.65-2.015,4.65l-0.62,5.581c0,0.621-0.62,1.086-1.241,1.086h-1.86c-0.465,0-0.93-0.465-0.93-0.93V16.419   c0-1.085,0.465-2.17,1.396-2.945l8.526-7.442c2.016,2.48-4.961,7.287-6.201,8.372L17.179,17.35z"/>
	<path fill="#1565C0" d="M27.101,17.194c0-1.705-2.326-1.551-2.326-2.171s0.775-1.24,0.775-2.171c0-0.154,0-0.465,0-0.619   c0-0.931-0.619-1.551-1.55-1.551s-1.55,0.62-1.55,1.551c0,0.154,0,0.465,0,0.619c0,0.931,0.775,1.396,0.775,2.016   c0,0.621-2.326,0.466-2.326,2.326v8.217c0,0.466,0.311,0.774,0.774,0.774h0.776v3.102h3.1v-3.102h0.776   c0.464,0,0.774-0.309,0.774-0.774V17.194z"/>
</g>
</svg>