<?xml version="1.0" encoding="utf-8"?><!-- Generator: Adobe Illustrator 15.0.0, SVG Export Plug-In . SVG Version: 6.00 Build 0)  --><!DOCTYPE svg PUBLIC "-//W3C//DTD SVG 1.1//EN" "http://www.w3.org/Graphics/SVG/1.1/DTD/svg11.dtd"><svg xmlns="http://www.w3.org/2000/svg" xmlns:xlink="http://www.w3.org/1999/xlink" version="1.1" x="0px" y="0px" width="528" height="528" viewBox="0 0 48 48" enable-background="new 0 0 48 48" xml:space="preserve">
<g>
	<path fill="#2196F3" d="M24,8.205c6.669,0,12.134,5.464,12.134,12.133c0,6.67-5.465,12.135-12.134,12.135   s-12.134-5.465-12.134-12.135C11.866,13.669,17.331,8.205,24,8.205 M24,7c-7.393,0-13.338,5.946-13.338,13.338   c0,7.394,5.945,13.341,13.338,13.341s13.338-5.947,13.338-13.341C37.338,12.946,31.393,7,24,7L24,7z"/>
	<path fill="#2196F3" d="M30.479,36.05c0,0,0.48-0.159,1.28-0.88c0.72-0.64,0.88-1.521,1.52-2.4C34,31.81,35.6,30.37,35.6,30.37   s-0.479,2-0.96,2.96C34,34.69,33.2,35.17,33.2,35.17s0.399,0.24,0.88,0s1.04-0.479,1.76-0.4c0.721,0.08,1.681,0.08,2.64-0.479   c0.96-0.56,1.761-1.12,1.761-1.12s-0.561,1.84-2.961,2.8c-1.52,0.64-3.279,0.64-3.84,0.32c-0.56-0.32-1.199-0.48-1.68-0.32   C31.36,36.21,30.479,36.05,30.479,36.05"/>
	<path fill="#2196F3" d="M38.08,26.37c0,0,0,1.76,0.16,2.32c0.08,0.64,0,1.359-0.24,1.919c-0.24,0.561-0.64,1.44-0.4,1.601   c0.32,0.16,0.4-0.479,1.121-0.96c0.64-0.48,1.84-1.12,2.559-1.52c1.041-0.641,1.841-1.84,1.841-1.84s-0.48,2.719-2.72,4.319   c-1.521,1.04-4.48,1.28-4.48,1.28s0.32-0.32,0.48-1.041c0.16-0.719,0.239-2.239,0.56-3.199C37.12,28.37,38.08,26.37,38.08,26.37"/>
	<path fill="#2196F3" d="M39.279,22.449c0,0,0.881,2.16,0.961,2.801s-0.08,2.399-0.08,2.399s0.72-0.64,1.439-1.759   c0.561-0.881,1.36-1.2,1.761-1.841C43.84,23.33,44,23.09,44,23.09s-0.4,1.92-0.96,3.04c-0.8,1.92-4,3.84-4,3.84   s0.16-0.56,0.239-1.6c0.081-1.04-0.159-2.32-0.239-3.12C38.96,24.449,39.279,22.449,39.279,22.449"/>
	<path fill="#2196F3" d="M39.2,17.97c0,0,0.239,0.32,0.8,1.12c0.561,0.801,1.2,1.68,1.279,2.24c0,0.479,0.241,1.119,0.48,1.119   c0.16,0,0.16-0.559,0.4-1.439c0.24-0.88,0.96-1.68,1.119-2.319c0.081-0.48,0.32-1.28,0.32-1.28s0.4,2.16-0.079,4   c-0.48,1.76-1.521,2.64-1.681,2.88s-0.479,0.56-0.479,0.56s0.16,0.16-0.32-0.959c-0.479-1.121-0.88-1.761-1.28-2.641   C39.36,20.53,39.2,17.97,39.2,17.97"/>
	<path fill="#2196F3" d="M38.16,14.29c0,0,1.2,0.72,1.76,1.28c0.641,0.64,1.28,1.92,1.52,1.84c0.24-0.08,0-1.12,0.081-1.52   c0.079-0.4,0.239-2.32,0.159-2.801s-0.24-1.199-0.24-1.199s1.36,2,1.36,3.439s0.08,1.76-0.64,2.88   c-0.32,0.56-0.561,1.439-0.561,1.439s-0.239-0.399-0.64-1.04c-0.48-0.56-1.521-1.6-1.84-2.479C38.64,15.33,38.16,14.29,38.16,14.29   "/>
	<path fill="#2196F3" d="M36.32,10.77c0,0,0.319,0.32,0.88,0.721c0.56,0.4,1.279,0.64,1.68,1.04c0.399,0.399,0.88,0.88,1.04,0.72   c0.16-0.08-0.08-0.48-0.32-1.28c-0.399-0.8-0.399-1.68-0.64-2c-0.239-0.32-0.48-1.04-0.48-1.04s1.521,1.2,1.841,2.16   c0.24,0.96,0.24,4,0.24,4s-0.24-0.399-0.801-0.8c-0.56-0.399-1.84-1.36-2.32-1.681C36.64,11.97,36.32,10.77,36.32,10.77"/>
	<path fill="#2196F3" d="M35.04,7.49c0,0,1.2,0.319,2,0.959c0.8,0.641,1.439,2.48,1.439,2.48s-1.279-0.64-1.84-1.12   C36.16,9.41,35.04,7.49,35.04,7.49"/>
	<path fill="#2196F3" d="M11.439,37.01c0,0,1.44,0.721,2.48,0.64c1.12-0.079,2.08-0.479,3.84-0.88c1.761-0.479,3.2-0.56,4-0.399   c0.801,0.16,2.24,0.32,2.24,0.32s1.84-0.32,3.279-0.4C28,36.21,28.96,36.449,30,36.77s2.88,0.961,4,0.961   c1.521,0,2.721-0.561,2.721-0.561s-0.16,1.12-3.841,1.521c-2.24,0.239-3.12,0.079-4.08-0.561s-2-1.12-2.479-1.2   c-0.48,0-1.2,0-1.2,0s1.359,0.48,2,1.04c0.64,0.561,2.4,1.921,2.4,1.921L28.96,40.37c0,0-0.64-0.96-1.76-1.761   c-1.12-0.8-2.64-1.6-3.2-1.6s-2.4,0.881-3.6,1.92c-1.121,1.04-1.28,1.36-1.28,1.36l-0.48-0.48c0,0,0.881-0.88,2-1.6   c1.2-0.8,2.4-1.36,2.4-1.36s0-0.08-0.72-0.08c-0.721,0.08-1.28,0.16-2.48,0.88c-1.2,0.721-1.68,0.96-2.72,1.041   c-1.04,0.159-3.04-0.081-4.32-0.561C11.68,37.649,11.439,37.01,11.439,37.01"/>
	<path fill="#2196F3" d="M7.76,33.09c0,0,1.12,0.88,1.68,1.2c1.2,0.64,2.16,0.4,2.961,0.479c0.72,0.08,1.439,0.32,1.6,0.4   c0.24,0.08,0.88,0.16,0.96,0.08c0.08-0.16-0.64-0.4-1.12-1.28c-0.72-1.279-1.2-3.439-1.2-3.439s1.12,0.8,2.081,2.079   c1.039,1.36,0.879,2,1.6,2.561c0.72,0.64,1.439,0.96,1.439,0.96s-0.96-0.08-1.6,0s-1.76,0.479-2.8,0.479   c-0.96,0-2.881-0.079-4.4-1.84C7.84,33.49,7.76,33.09,7.76,33.09"/>
	<path fill="#2196F3" d="M4.88,28.05c0,0,0.641,0.88,1.6,1.681c0.96,0.8,2.4,1.279,2.96,1.84c0.48,0.56,0.721,1.039,1.04,0.879   c0.32-0.159-0.159-0.64-0.319-1.359c-0.24-0.8-0.4-2.72-0.24-3.52C10,27.17,10,26.53,10,26.53s0.479,0.72,0.96,1.919   c0.479,1.121,0.479,2.961,0.64,3.761c0.24,0.88,0.721,1.439,0.721,1.439S10.8,33.57,10.08,33.33c-0.72-0.32-2.801-1.04-3.601-2.32   C5.68,29.73,4.88,28.05,4.88,28.05"/>
	<path fill="#2196F3" d="M4,23.09c0,0,0.32,0.801,0.8,1.2c0.479,0.479,0.8,0.72,1.36,1.359c0.4,0.48,1.36,2.241,1.6,2.241   C8,27.81,7.6,26.93,7.76,26.05c0.16-1.52,1.12-3.359,1.12-3.359s0.24,1.919,0.16,3.04C8.96,26.85,8.561,28.13,8.721,28.77   C8.88,29.41,8.96,30.21,8.96,30.21s-1.521-1.04-2.56-2c-1.04-0.96-2-3.04-2.16-3.68C4.08,23.97,4,23.09,4,23.09"/>
	<path fill="#2196F3" d="M4.4,17.49c0,0-0.16,2.8,0.16,4.08c0.56,2.079,2.16,3.359,2.16,3.359S6.88,24.21,7.2,23.49   c0.32-0.721,0.88-1.44,1.12-2c0.4-1.12,0.56-3.2,0.56-3.2s-0.4,0.56-0.72,1.04c-0.32,0.479-0.721,1.04-1.12,1.76   c-0.319,0.801-0.4,1.44-0.72,1.52c-0.48,0.081-0.08-0.719-0.48-1.68c-0.4-0.96-1.04-2-1.119-2.48C4.64,17.97,4.4,17.49,4.4,17.49"/>
	<path fill="#2196F3" d="M6.561,12.05c0,0-1.121,1.521-1.281,2.88C5.12,16.29,5.2,17.41,5.76,18.37c0.4,0.64,0.48,1.521,0.48,1.521   s0.16-0.48,0.64-0.961c0.48-0.48,1.28-1.199,1.841-2.16C9.279,15.81,9.76,14.53,9.76,14.53S8.88,15.01,8.32,15.49   c-1.28,1.119-1.92,2.24-1.92,2.24s-0.32-0.32-0.24-0.801c0.24-0.399,0.319-1.12,0.24-1.68c-0.08-0.48-0.24-0.801-0.08-1.44   C6.4,13.17,6.561,12.05,6.561,12.05"/>
	<path fill="#2196F3" d="M9.6,8.93c0,0-1.52,0.88-1.92,2C7.36,11.81,7.521,12.69,7.36,13.57c-0.16,0.879,0.079,1.52,0.079,1.52   s0.081-0.24,0.641-0.8s1.359-0.88,1.92-1.28c1.279-0.88,1.84-2.24,1.84-2.24s-0.72,0.641-1.119,0.88   C10.4,11.81,9.68,12.21,9.2,12.53c-0.4,0.239-0.64,1.04-0.64,1.04s-0.48-0.4-0.32-0.88c0.16-0.48,0.399-0.881,0.48-1.36   C8.8,10.85,8.96,10.13,9.2,9.81C9.36,9.49,9.6,8.93,9.6,8.93"/>
	<path fill="#2196F3" d="M10.721,8.85c0.64-0.56,2.319-1.2,2.319-1.2s-0.72,1.2-1.52,2c-0.96,0.96-2.081,1.521-2.081,1.521   S9.68,9.891,10.721,8.85"/>
	<path fill="#2196F3" d="M18.54,10.641c1.516,0,4.551,1.669,4.551,3.943c0,1.366-1.063,2.276-1.063,2.276s0,0.759,0,1.063   c-0.152,0.454-0.456,0.302-0.607,0.759c-0.302,0.454-0.302,1.062-1.517,1.062c-1.062,0-1.062-0.305-1.668-0.305   c-0.607,0-0.91,0.455-0.91,0.455v3.944c0,0,0.152,0.455,1.063,1.062c1.061,0.606,1.819,0.91,2.123,0.91s0.304-0.304,0.759-0.304   c0.454,0,1.972,0,1.972,0.76c0,0.757-0.76,1.213-3.489,1.213c-2.731,0-3.641-0.151-3.943-0.151c-0.304,0-0.304,0-0.304,0.454   c0,0.455,0,1.063,0,1.063s0.455,0.758,1.062,1.062c0.607,0.303,0.911,0.454,1.517,0.454c0.606,0,1.518-0.151,2.276-0.605   c0.759-0.304,1.516-0.607,2.427-0.607c0.91,0,2.426-0.151,2.426-1.061c0-0.911-0.303-1.215-0.303-1.974   c0-0.758,0.152-1.365-0.151-1.668c-0.304-0.305-1.821-1.365-1.821-1.972s0.607-0.91,0.607-1.214s0-0.604,0.303-0.604   c0.152,0,0.455-0.152,0.455-0.152l0.152-0.608c0,0,0.304-0.15,0.455-0.303c0.152-0.152,0.303-0.152,0.303-0.152   s-0.15-0.454,0.151-0.757c0.305-0.305,0.608-0.153,0.761-0.153c0.302,0,1.06-0.151,1.06-0.151s0.305-0.454,0.455-0.606   c0.456-0.304,1.669-0.455,1.973-0.759c0.304-0.303,0.606-0.909,1.517-0.909c3.337,0,5.612,3.033,5.612,4.701   c0,2.882-1.819,6.371-4.397,6.371c-1.973,0-1.973,0.606-1.973,1.213c0,1.518,1.517,1.82,1.517,1.82s-4.654,3.228-8.296,3.228   c-3.49,0-6.398-1.688-8.977-4.419c-1.669-1.971-3.202-3.893-3.202-7.379c0-1.367-0.229-1.88-0.229-1.88s2.198-1.533,2.806-1.835   c0.607-0.304,1.82-1.063,1.82-1.669c-0.607-0.455-0.909-0.606-0.909-1.972c0-0.607,0.15-1.67,0.605-2.427   C16.264,11.097,17.326,10.641,18.54,10.641"/>
	<path fill="#2196F3" d="M24,33.546c-6.674,0-13.044-5.31-13.044-13.044c0-9.709,8.797-12.438,8.797-12.438l0.607,0.455   c0,0-0.456,0.302-0.911,0.757c-0.456,0.455-0.606,0.76-0.606,0.76l0.304,0.15c0,0,0.303-0.455,0.606-0.758   c0.303-0.303,0.759-0.607,0.759-0.607s0.454,0.455,0.759,0.607c0.302,0.152,0.758,0.303,0.758,0.303s0,0.152-0.152,0.455   c-0.151,0.305-0.304,0.607-0.304,0.607l0.152,0.455c0,0,0.151-0.607,0.304-0.758c0.152-0.153,0.152-0.455,0.152-0.455   s0.606,0.302,1.213,0.455c0.606,0.15,0.909,0.15,0.909,0.15v2.276h-0.909v0.455h0.909v2.882h-0.758v0.302h0.758v1.063h0.304v-1.063   c0,0,0.456,0,1.668,0c1.215,0,1.973-0.15,1.973-0.15s0-1.062-0.151-1.972c-0.151-0.759-0.304-1.366-0.304-1.366   s0.759-0.15,1.517-0.455c0.758-0.303,1.366-0.605,1.366-0.605s0.454,0.605,0.758,1.365c0.304,0.759,0.606,1.667,0.606,1.667   l-0.455,0.153l0.152,0.302l0.607-0.15l0.302,0.455l0.304-0.151l-0.152-0.304c0,0,0.76-0.151,1.366-0.606   c0.759-0.455,1.213-0.759,1.213-0.759s1.821,2.73,1.821,6.523C37.045,26.416,32.493,33.546,24,33.546 M20.966,7.759   c0.455-0.15,0.91-0.15,0.91-0.15s-0.605,0.302-0.91,0.455c-0.303,0.302-0.605,0.455-0.605,0.455s0-0.153-0.152-0.305   c0-0.15-0.152-0.304-0.152-0.304S20.512,7.91,20.966,7.759z M23.545,7.456c0,0-0.607,0.607-0.911,1.063   c-0.302,0.606-0.605,1.062-0.605,1.062s-0.456-0.152-0.758-0.455C20.966,8.82,20.815,8.67,20.815,8.67s0.605-0.606,1.517-0.911   C23.091,7.456,23.545,7.456,23.545,7.456z M24.303,7.456v2.729c0,0-0.605,0-1.212-0.15c-0.608-0.152-0.759-0.305-0.759-0.305   s0.302-0.759,0.759-1.212C24,7.152,24.303,7.456,24.303,7.456z M24.759,10.49c0,0,0.454,0,1.062,0c0.606,0,1.214-0.153,1.214-0.153   s0.15,0.153,0.455,1.063c0.15,0.758,0.15,1.365,0.15,1.365s-0.605,0.151-1.515,0.151c-0.912,0-1.366,0-1.366,0V10.49z    M24.759,7.456c0,0,0.758-0.152,1.366,1.063c0.453,0.757,0.757,1.517,0.757,1.517s-0.455,0.15-1.062,0.15c-0.456,0-1.062,0-1.062,0   V7.456z M27.489,8.063c0.758,0.302,1.214,0.908,1.214,0.908s-0.304,0.304-0.607,0.608c-0.304,0.303-0.911,0.303-0.911,0.303   s-0.303-0.758-0.606-1.213c-0.151-0.456-0.909-1.062-0.909-1.062S26.73,7.759,27.489,8.063z M28.551,8.214   c0.303,0.151,0.758,0.305,0.758,0.305L28.854,8.82c0,0-0.303-0.302-0.454-0.455c-0.304-0.302-0.91-0.455-0.91-0.455   S28.096,8.063,28.551,8.214z M28.247,16.103c0,0-0.303,0.151-1.365,0.151c-1.062,0-1.972,0-1.972,0V13.22c0,0,0.759,0,1.364,0   c0.607,0,1.67-0.152,1.67-0.152s0,0.455,0.151,1.215C28.096,15.039,28.247,16.103,28.247,16.103z M27.792,11.552   c-0.152-0.607-0.455-1.215-0.455-1.215s0.607-0.302,0.91-0.454c0.304-0.303,0.606-0.455,0.606-0.455s0.607,0.607,1.063,1.213   c0.455,0.607,0.759,1.215,0.759,1.215s-0.608,0.303-1.214,0.606c-0.607,0.304-1.517,0.455-1.517,0.455S27.944,12.158,27.792,11.552   z M29.612,8.67c0,0,0.909,0.455,1.517,0.91s1.364,1.061,1.364,1.061s-0.149,0.152-0.454,0.456c-0.303,0.304-0.91,0.455-0.91,0.455   s-0.454-0.607-0.758-1.062c-0.455-0.455-1.063-1.365-1.063-1.365S29.309,8.82,29.612,8.67L29.612,8.67z M34.011,12.158   c0.759,0.759,1.063,1.364,1.063,1.364s-0.455,0.456-1.063,0.76c-0.606,0.302-1.518,0.606-1.518,0.606s-0.302-1.214-0.605-1.821   c-0.304-0.605-0.606-1.365-0.606-1.365s0.303-0.15,0.758-0.454c0.454-0.304,0.758-0.607,0.758-0.607S33.404,11.4,34.011,12.158z    M24,7c-7.433,0-13.5,6.067-13.5,13.502C10.5,27.935,16.567,34,24,34s13.5-6.065,13.5-13.498C37.5,13.067,31.433,7,24,7z"/>
</g>
</svg>