<?xml version="1.0" encoding="utf-8"?><!-- Generator: Adobe Illustrator 15.0.0, SVG Export Plug-In . SVG Version: 6.00 Build 0)  --><!DOCTYPE svg PUBLIC "-//W3C//DTD SVG 1.1//EN" "http://www.w3.org/Graphics/SVG/1.1/DTD/svg11.dtd"><svg xmlns="http://www.w3.org/2000/svg" xmlns:xlink="http://www.w3.org/1999/xlink" version="1.1" x="0px" y="0px" width="528" height="528" viewBox="0 0 48 48" enable-background="new 0 0 48 48" xml:space="preserve">
<path fill="#F44336" d="M41,13V7c0-0.553-0.447-1-1-1H8C7.447,6,7,6.447,7,7v6H41z"/>
<polygon fill="#FFC107" points="36,42 12,42 9,13 39,13 "/>
<g>
	<path fill="#FFFFFF" d="M34,33c0,0.553-0.447,1-1,1H15c-0.553,0-1-0.447-1-1V20c0-0.553,0.447-1,1-1h18c0.553,0,1,0.447,1,1V33z"/>
	<path fill="#FFFFFF" d="M20,12c0-1.656-1.343-3-3-3l0,0c-1.657,0-3,1.344-3,3v7c0,1.656,1.343,2,3,2l0,0c1.657,0,3-0.344,3-2V12z"/>
</g>
<g>
	<rect x="17" y="23" fill="#B0BEC5" width="14" height="2"/>
	<rect x="17" y="28" fill="#B0BEC5" width="14" height="2"/>
</g>
</svg>