<?xml version="1.0" encoding="utf-8"?><!-- Generator: Adobe Illustrator 19.1.1, SVG Export Plug-In . SVG Version: 6.00 Build 0)  --><svg xmlns="http://www.w3.org/2000/svg" xmlns:xlink="http://www.w3.org/1999/xlink" version="1.1" x="0px" y="0px" viewBox="0 0 48 48" enable-background="new 0 0 48 48" xml:space="preserve" width="528" height="528">
<path fill="#E57373" d="M41,18c0,1.7-1.6,3-3.5,3c-1.6,0-2.9-0.9-3.3-2.2c-3.2-0.9-5-5.3-5.1-5.5l1.8-0.8c0.4,1,1.7,3.4,3.4,4.2  c0.5-1,1.8-1.8,3.2-1.8C39.4,15,41,16.3,41,18z M13.7,16.8c-0.5-1-1.8-1.8-3.2-1.8C8.6,15,7,16.3,7,18s1.6,3,3.5,3  c1.6,0,2.9-0.9,3.3-2.2c3.2-0.9,5-5.3,5.1-5.5l-1.8-0.8C16.7,13.6,15.3,16,13.7,16.8z"/>
<path fill="#EF9A9A" d="M39.8,5c-4.1,0-5.7,3-8.4,3c-3,0-3-2-7.4-2s-4.4,2-7.4,2c-2.7,0-4.3-3-8.4-3C5.3,5,4,8.4,4,11.3  C4,13.5,5.5,18,7,19c3.3-0.7,3-4,3-4s-3-2.3-3-4.7C7,9.1,7.3,8,8.2,8c2.2,0,2.8,2.9,8.8,5c1.1,5.6,3.8,8,3.8,10.6  c0,2-2.1,3.4-2.1,6.8S21,43,21,43h3h3c0,0,2.3-9.3,2.3-12.7s-2.1-4.8-2.1-6.8c0-2.6,2.8-4.9,3.8-10.6c6.1-2,6.6-5,8.8-5  c0.9,0,1.2,1.1,1.2,2.3c0,2.4-3,4.7-3,4.7s-0.3,3.3,3,4c1.5-1,3-5.5,3-7.7C44,8.4,42.7,5,39.8,5z"/>
<path fill="#B71C1C" d="M30,11c0,0-3.6-2-6-2s-6,2-6,2c3.3,0,5,1.7,5,16c0,0-2.3-0.2-2,3.3c0.1,1.9,0.9,12.7,0.9,12.7H24h2.1  c0,0,0.8-10.8,0.9-12.7c0.3-3.5-2-3.3-2-3.3C25,12.7,26.7,11,30,11z"/>
<path fill="#D32F2F" d="M25.1,27c0.4,0,1.6,0.2,1.8,2H21c0.3-1.8,1.5-2,1.8-2H25.1z M26.4,39h-4.8c0.1,0.7,0.1,1.4,0.1,2h4.5  C26.3,40.4,26.3,39.7,26.4,39z M21.3,35c0,0.7,0.1,1.3,0.1,2h5.1c0-0.7,0.1-1.3,0.1-2H21.3z M21,31c0,0.5,0.1,1.2,0.1,2h5.6  c0.1-0.8,0.1-1.5,0.1-2H21z"/>
</svg>