<?xml version="1.0" encoding="utf-8"?><!-- Generator: Adobe Illustrator 15.0.0, SVG Export Plug-In . SVG Version: 6.00 Build 0)  --><!DOCTYPE svg PUBLIC "-//W3C//DTD SVG 1.1//EN" "http://www.w3.org/Graphics/SVG/1.1/DTD/svg11.dtd"><svg xmlns="http://www.w3.org/2000/svg" xmlns:xlink="http://www.w3.org/1999/xlink" version="1.1" x="0px" y="0px" width="528" height="528" viewBox="0 0 48 48" enable-background="new 0 0 48 48" xml:space="preserve">
<path fill="#673AB7" d="M14.958,23.422c0.473-0.283,2.459,0.215,2.744,0.688l0,0c0.284,0.474-0.214,2.461-0.688,2.744l-7.377,3.254  c-0.473,0.283-1.087,0.131-1.372-0.344l0,0c-0.284-0.473-0.129-1.088,0.344-1.371L14.958,23.422z"/>
<path fill="#2196F3" d="M6,39c0-1.656,3-6,3-6s3,4.344,3,6s-1.343,3-3,3S6,40.656,6,39z"/>
<g>
	<path fill="#B39DDB" d="M33.832,6.284c0.947-0.567,2.176-0.259,2.743,0.688l5.14,8.578c0.568,0.948,0.26,2.175-0.688,2.743   l-10.293,6.168c-1.716,1.027-4.459,0.34-4.459,0.34l-5.141-8.578c0,0,0.688-2.743,2.403-3.771L33.832,6.284z"/>
	<path fill="#B39DDB" d="M24.396,11.938c-6.487,3.888-1.268,5.424-7.594,9.214l3.125,5.216c6.487-3.886,5.338,1.371,11.665-2.42   L24.396,11.938z"/>
</g>
<rect x="13.273" y="20.867" transform="matrix(-0.514 -0.8578 0.8578 -0.514 5.2494 51.7084)" fill="#7E57C2" width="7.999" height="7.001"/>
<rect x="26.854" y="12.128" transform="matrix(-0.514 -0.8578 0.8578 -0.514 34.8229 50.9865)" fill="#FFFFFF" width="10.001" height="7.001"/>
</svg>