<?xml version="1.0" encoding="utf-8"?><!-- Generator: Adobe Illustrator 15.0.0, SVG Export Plug-In . SVG Version: 6.00 Build 0)  --><!DOCTYPE svg PUBLIC "-//W3C//DTD SVG 1.1//EN" "http://www.w3.org/Graphics/SVG/1.1/DTD/svg11.dtd"><svg xmlns="http://www.w3.org/2000/svg" xmlns:xlink="http://www.w3.org/1999/xlink" version="1.1" x="0px" y="0px" width="528" height="528" viewBox="0 0 48 48" enable-background="new 0 0 48 48" xml:space="preserve">
<path fill="#FFFFFF" d="M5.93,24c0,0,8.06-11,18.004-11S41.93,24,41.93,24s-8.051,11-17.996,11S5.93,24,5.93,24z"/>
<path fill="#00ACC1" d="M17.57,17.596c3.511-3.515,9.209-3.52,12.725-0.005c3.519,3.519,3.518,9.221,0.004,12.731  C29.81,30.811,17.083,18.084,17.57,17.596z"/>
<path fill="#006064" d="M21.106,21.131c1.558-1.559,4.091-1.566,5.656-0.001c1.57,1.569,1.56,4.099,0.001,5.657  C25.774,27.775,20.118,22.119,21.106,21.131z"/>
<g>
	<path fill="#90A4AE" d="M23.934,13c9.945,0,17.996,11,17.996,11s-8.051,11-17.996,11S5.93,24,5.93,24S13.989,13,23.934,13    M23.934,11C13.1,11,4.67,22.336,4.316,22.818L3.45,24l0.866,1.182C4.67,25.664,13.1,37,23.934,37   C34.77,37,43.19,25.664,43.543,25.182L44.408,24l-0.865-1.182C43.19,22.336,34.77,11,23.934,11L23.934,11z"/>
	<path fill="#90A4AE" d="M6.102,24c0.524-0.702,8.369-10.99,17.975-10.99c9.605,0,17.442,10.288,17.966,10.99H47l-1.699-2.329   C44.922,21.153,35.914,9,24.077,9C12.24,9,3.224,21.152,2.846,21.669L1.143,24H6.102z"/>
	
		<rect x="3.686" y="27" transform="matrix(0.7071 0.7071 -0.7071 0.7071 24.1928 -2.4053)" fill="#90A4AE" width="22.627" height="2"/>
	<polygon fill="#90A4AE" points="11.793,32.207 3.293,23.707 4.707,22.293 16.207,33.793  "/>
	
		<rect x="6.169" y="25.25" transform="matrix(0.7071 0.7071 -0.7071 0.7071 24.1997 -5.9234)" fill="#90A4AE" width="26.163" height="2"/>
</g>
<path fill="#CFD8DC" d="M41.898,23.958C41.918,23.984,41.93,24,41.93,24s-3.825,5.225-9.458,8.473l1.462,1.462  c5.632-3.395,9.377-8.435,9.609-8.753L44.408,24l-0.03-0.042H41.898z"/>
<line fill="none" stroke="#37474F" stroke-width="4" stroke-linejoin="round" stroke-miterlimit="10" x1="5" y1="5" x2="43" y2="43"/>
</svg>