<?xml version="1.0" encoding="utf-8"?><!-- Generator: Adobe Illustrator 15.0.0, SVG Export Plug-In . SVG Version: 6.00 Build 0)  --><!DOCTYPE svg PUBLIC "-//W3C//DTD SVG 1.1//EN" "http://www.w3.org/Graphics/SVG/1.1/DTD/svg11.dtd"><svg xmlns="http://www.w3.org/2000/svg" xmlns:xlink="http://www.w3.org/1999/xlink" version="1.1" x="0px" y="0px" width="528" height="528" viewBox="0 0 48 48" enable-background="new 0 0 48 48" xml:space="preserve">
<g>
	<path fill="#7986CB" d="M33.521,30h-19c-0.829,0-1.5-0.672-1.5-1.5s0.671-1.5,1.5-1.5h19c0.828,0,1.5,0.672,1.5,1.5   S34.35,30,33.521,30z"/>
	<path fill="#7986CB" d="M33.521,19H15.328c-0.829,0-0.407-3,0.422-3h17.771C34.35,16,34.35,19,33.521,19z"/>
</g>
<path fill="#9FA8DA" d="M11.015,40l3.493-28.649C14.738,8.315,17.101,6,20,6h9c2.893,0,5.255,2.314,5.495,5.383l1.503,28.623  c0.043,0.827-2.954,0.981-2.996,0.154l-1.5-28.583C31.388,10.125,30.311,9,29,9h-9c-1.314,0-2.391,1.124-2.504,2.614L14,40.299  C13.922,41.072,10.932,40.824,11.015,40z"/>
<g>
	<path fill="#455A64" d="M10.375,38L10,42h5l0.307-4c0-0.572-0.432-1-1-1h-2.932C10.805,37,10.375,37.428,10.375,38z"/>
	<path fill="#455A64" d="M34,34c-2.209,0-4,1.792-4,4.002C30,40.21,31.791,42,34,42s4-1.79,4-3.998C38,35.792,36.209,34,34,34z"/>
</g>
<circle fill="#B0BEC5" cx="34" cy="38" r="2"/>
</svg>