<?xml version="1.0" encoding="utf-8"?><!-- Generator: Adobe Illustrator 15.0.0, SVG Export Plug-In . SVG Version: 6.00 Build 0)  --><!DOCTYPE svg PUBLIC "-//W3C//DTD SVG 1.1//EN" "http://www.w3.org/Graphics/SVG/1.1/DTD/svg11.dtd"><svg xmlns="http://www.w3.org/2000/svg" xmlns:xlink="http://www.w3.org/1999/xlink" version="1.1" x="0px" y="0px" width="528" height="528" viewBox="0 0 48 48" enable-background="new 0 0 48 48" xml:space="preserve">
<polygon fill="#9FA8DA" points="7.594,40.572 5.438,38.429 34.913,9.152 37.071,11.293 "/>
<g>
	<path fill="#455A64" d="M4,38.428l2.876-2.855c0.396-0.393,1.04-0.393,1.437,0.002l2.158,2.141c0.396,0.395,0.396,1.033,0,1.428   L7.594,42L4,38.428z"/>
	<path fill="#455A64" d="M32.757,7.01c-0.397,0.395-0.397,1.033,0,1.428c0,0,1.438,1.43,0,2.855l2.156,2.144   c1.439-1.429,2.877,0,2.877,0c2.157,2.143,2.875,4.284,2.875,4.284c0.398,0.395,1.042,0.395,1.438,0l0.72-0.715   c0.396-0.394,0-1.428,0-1.428s-1.811-4.986-6.471-6.426c0.001-1.429-1.439-2.855-1.439-2.855c-0.397-0.396-1.04-0.396-1.437-0.002   L32.757,7.01z"/>
	<polygon fill="#455A64" points="31.318,12.723 33.476,14.865 34.913,13.437 32.757,11.293  "/>
</g>
</svg>