<?xml version="1.0" encoding="utf-8"?><!-- Generator: Adobe Illustrator 15.0.0, SVG Export Plug-In . SVG Version: 6.00 Build 0)  --><!DOCTYPE svg PUBLIC "-//W3C//DTD SVG 1.1//EN" "http://www.w3.org/Graphics/SVG/1.1/DTD/svg11.dtd"><svg xmlns="http://www.w3.org/2000/svg" xmlns:xlink="http://www.w3.org/1999/xlink" version="1.1" x="0px" y="0px" width="528" height="528" viewBox="0 0 48 48" enable-background="new 0 0 48 48" xml:space="preserve">
<g>
	<path fill="#2196F3" d="M22,25c0,0,10.083,0,12,0s2.4,1.999,2.4,1.999L39,39.002h-4l-3-10H22V25z"/>
	<path fill="#2196F3" d="M27.313,29h-8.021L16,17c0,0-1-4.001,3-4l0,0c4,0.002,5,4,5,4L27.313,29z"/>
</g>
<circle fill="#B0BEC5" cx="20" cy="34" r="9"/>
<g>
	<g>
		<path fill="#455A64" d="M35.744,39l-3-10h-5.262c0.412,0.616,0.743,1.289,0.994,2h2.779l3,10H41v-2H35.744z"/>
		<path fill="#455A64" d="M15.085,26.466c0.569-0.372,1.185-0.677,1.833-0.913L13.781,13H7v2h5.219L15.085,26.466z"/>
	</g>
	<path fill="#455A64" d="M20,44c-5.514,0-10-4.486-10-10s4.486-10,10-10c5.514,0,10,4.486,10,10S25.514,44,20,44z M20,26   c-4.411,0-8,3.589-8,8s3.589,8,8,8s8-3.589,8-8S24.411,26,20,26z"/>
	<circle fill="#455A64" cx="20" cy="34" r="2"/>
</g>
<g>
	<circle fill="#FFB74D" cx="18" cy="8" r="4"/>
	<path fill="#FFB74D" d="M27.717,21.116h-5.594l-1.27-5.55c-0.375-1.047-1.206-1.82-2.484-1.386   c-1.277,0.434-1.271,1.972-0.824,2.936l1.769,5.9c0.103,0.258,0.263,0.48,0.46,0.657c0.3,0.268,0.687,0.312,1.104,0.326h6.84   c0,0,1.375,0.179,1.375-1.353S27.717,21.116,27.717,21.116z"/>
</g>
</svg>