<?xml version="1.0" encoding="utf-8"?><!-- Generator: Adobe Illustrator 15.0.0, SVG Export Plug-In . SVG Version: 6.00 Build 0)  --><!DOCTYPE svg PUBLIC "-//W3C//DTD SVG 1.1//EN" "http://www.w3.org/Graphics/SVG/1.1/DTD/svg11.dtd"><svg xmlns="http://www.w3.org/2000/svg" xmlns:xlink="http://www.w3.org/1999/xlink" version="1.1" x="0px" y="0px" width="528" height="528" viewBox="0 0 48 48" enable-background="new 0 0 48 48" xml:space="preserve">
<polygon fill="#42A5F5" points="42,21 42,31 26,39 6,32 6,22 26,29 "/>
<polygon fill="#1976D2" points="42,21 26,29 6,22 22,15.429 "/>
<g>
	<polygon fill="#90CAF9" points="42,23 42,25 26,33 6,26 6,24 26,31  "/>
	<polygon fill="#90CAF9" points="42,27 42,29 26,37 6,30 6,28 26,35  "/>
	<polygon fill="#90CAF9" points="42,31 42,33 26,41 6,34 6,32 26,39  "/>
	<path fill="#90CAF9" d="M19,6c0,7.854-4.743,12.054-8.5,14.151L6,22l20,7c0,0,13-5,13-17L19,6z"/>
</g>
</svg>