<?xml version="1.0" encoding="utf-8"?><!-- Generator: Adobe Illustrator 15.0.0, SVG Export Plug-In . SVG Version: 6.00 Build 0)  --><!DOCTYPE svg PUBLIC "-//W3C//DTD SVG 1.1//EN" "http://www.w3.org/Graphics/SVG/1.1/DTD/svg11.dtd"><svg xmlns="http://www.w3.org/2000/svg" xmlns:xlink="http://www.w3.org/1999/xlink" version="1.1" x="0px" y="0px" width="528" height="528" viewBox="0 0 48 48" enable-background="new 0 0 48 48" xml:space="preserve">
<g>
	<path fill="#1565C0" d="M33.8,21.28c0-1.36-0.24-2.64-0.8-3.84c-0.08-0.08-0.08-0.24-0.16-0.32l0.08-0.16l0.16,0.08l0.08-0.16   l-0.8-1.279H32.2l-1.12-1.28l0,0l0.88-0.88c-0.08-0.08-0.08-0.08-0.08-0.16l-0.8,0.8V14H31l-0.16-0.08l-0.24-0.08l0.32-0.08   l-0.08-0.079h-0.16l0.08-0.16L30.6,13.2L30.2,12.72l-0.4-0.239l-0.16-0.08h-0.16v-0.08l-0.319-0.16L29,12.32   c0.24,0.399,0.399,0.88,0.399,1.28c0,0.319,0,0.64-0.079,0.88l0.079-0.08l0.4,0.72h-0.24l0.16,0.16l-0.399,0.4l-0.24-0.24V15.2   c-0.08,0.16-0.16,0.32-0.24,0.4v0.08h0.24v0.079l-0.16,0.16c-0.08-0.08-0.16-0.16-0.24-0.239c0,0.079-0.08,0.079-0.08,0.159   c0.08,0.08,0.16,0.16,0.24,0.16l-1.6,1.601c-0.16-0.16-0.24-0.24-0.4-0.4c-0.08,0-0.08,0.08-0.16,0.08   c0.16,0.16,0.32,0.24,0.48,0.4L27.08,18l0,0v-0.08L26.92,18h-0.16v-0.16l-0.16,0.08l-0.16,0.16l0.08,0.08L26.68,18l0.16,0.08l0,0   H27l-0.48,0.48l-0.56,0.08L25.8,18.8l-0.08,0.08v0.08h0.08l0.08,0.08v0.08l0,0h-0.16l-0.32,0.08c-0.079-0.08-0.079-0.08-0.159-0.16   l0,0h-0.08c-0.08-0.08-0.24-0.08-0.32-0.16v0.641c0,0.239,0,0.399,0,0.56h0.08L25,20.16l-0.16,0.16c0,0.08,0,0.16,0,0.24l0.24-0.24   L25,20.48h0.08l0.08,0.239l0.16,0.16L25,20.72v0.16c0.479,0.16,1.04,0.48,1.6,0.801c0.721,0.56,1.12,1.359,1.04,2.079   c-0.24,0.641-0.56,1.04-1.04,1.44v0.08l-0.08,0.16H26.36l-0.08,0.08l-0.32,0.16h-0.32l-0.16,0.079l0.08,0.08l0,0   c-0.08,0-0.08,0-0.16,0.08H25.16l-0.08-0.08h-0.24l0,0c-0.08,0-0.08,0-0.16,0.08v0.16c0,0.08,0,0.48,0,1.04   c0.8,0.4,1.84,1.12,1.76,2.88c0,0,0,0.32-0.079,0.561l0,0l0.319,0.08c-0.72,0.239-1.439,0.319-2.16,0.399c0,0.08,0,0.08,0,0.16   c0.801-0.08,1.521-0.16,2.24-0.4l0.16,0.08l0.16,0.16l0.16-0.08l0.319-0.08l0.16-0.08l0.32-0.159l0.32-0.24L28.76,30v-0.08   c0.72-0.399,1.36-0.88,1.92-1.439l0.561,0.56c0-0.08,0.08-0.08,0.08-0.16l-0.561-0.56c0.88-0.88,1.601-2,2.08-3.12   c0.48-1.2,0.8-2.4,0.8-3.76h0.8c0-0.08,0-0.08,0-0.16H33.8L33.8,21.28z M29.16,16.24c0.16,0.16,0.319,0.4,0.479,0.56h-0.16h-0.08   l0.16,0.08l0.08-0.08c0.08,0.08,0.16,0.16,0.24,0.32H29.8v0.08h0.08l0.24,0.4h0.08c0,0.08,0.08,0.08,0.08,0.159v0.16l-0.16,0.16   l-0.08-0.16h-0.16l0.08,0.16l-0.08,0.08l0.24,0.08l0.08,0.16l0.239,0.08v0.08l0.16,0.08v0.319h0.08c0.08,0.16,0.16,0.4,0.16,0.561   l0,0l-0.08,0.16L30.6,19.76l-0.08,0.32l-0.239,0.16l-0.08-0.16l0.08-0.399l0.159-0.08l-0.479-0.32l-0.24,0.16l-0.24,0.319   l-0.239-0.159l-0.08-0.16l0.16-0.08l0.079,0.08h0.08v-0.16L29.32,19.2v0.08h-0.08l-0.08-0.16l-0.24-0.24l-0.32-0.239H28.28l0,0   c-0.16-0.32-0.4-0.561-0.641-0.881L29.16,16.24z M30.28,17.36L30.28,17.36L30.28,17.36C30.28,17.44,30.28,17.36,30.28,17.36z    M31,20l-0.08,0.16v0.08l-0.16,0.24v0.16h0.08L31,20.32v-0.16h0.08l0,0c0.08,0.32,0.08,0.72,0.08,1.04h-1.761H29.32v-0.16   l0.159-0.08l0.08-0.16h0.24v-0.08l-0.16-0.159l0.32-0.24h0.4l0.079-0.24L30.6,20l0.16-0.319l0.08-0.16c0,0.08,0,0.08,0,0.16L31,20   L31,20z M27.24,18.08l0.159-0.16c0.08,0.08,0.08,0.08,0.16,0.16l-0.16,0.16H27.24l-0.08-0.08L27.24,18.08L27.24,18.08z M27.24,19.2   l0.159-0.08l-0.239-0.16l0.16-0.16v-0.08l0.239-0.079l-0.16-0.24l-0.239,0.24V18.8L27,18.72h-0.16l-0.08-0.079l0,0l0.4-0.4l0,0   h0.319l0.08-0.16c0.16,0.16,0.32,0.4,0.4,0.561l0,0L27.8,18.96l-0.24-0.16h-0.08l0.08,0.16l0.08,0.08l-0.08,0.16v-0.08L27.24,19.2z    M28.76,25.681L28.36,26h-0.08v-0.08h-0.16L27.8,26l-0.24-0.08h-0.16l-0.159-0.16h-0.16L27,25.681h-0.16l-0.08-0.16h-0.08l0,0h0.08   v-0.08l0.24,0.08l0.08,0.08l0.319,0.08v0.079h0.24l0.32,0.08L28.04,26h0.16l0.16-0.16l0.079-0.239l0.16-0.48v-0.08l0.08-0.08   l0.08-0.24l-0.08-0.079l0.08-0.08l-0.08-0.24v-0.24l-0.16,0.08l-0.08,0.16H28.28v0.24l-0.16,0.159l-0.08-0.079h-0.16h-0.24l0,0   c0.08-0.08,0.08-0.16,0.16-0.16h0.08h0.16l0.16-0.16v-0.08h0.16l0.239-0.32l0.16-0.399l0.48-0.24v-0.16l-0.08-0.08v-0.08l0.16,0.08   l0.319,0.08l0.24-0.08l0.48-0.08l-0.08-0.399l-0.16-0.16h-0.24l-0.32-0.72h-0.08l-0.08-0.08l0.08-0.08l0,0h1.681   c0,1.92-0.8,3.68-2.08,4.96L29,26.4v-0.08L29.08,26L29,25.521l-0.08-0.24l-0.08,0.08l-0.16,0.16v0.16H28.76z M29,29.681L29,29.681   l0.08-0.16L29,29.28l0.32-0.24v-0.16l-0.24-0.08l0.24-0.399L29.56,28l-0.319-0.399h-0.08H29l-0.16-0.24h-0.08l0.08-0.24l0.08-0.24   C29,26.8,29,26.8,29.08,26.72l0.96,0.961l0,0l0,0l0.64,0.64C30.2,28.8,29.56,29.28,29,29.681z M30.84,28.16l-0.24-0.24v-0.08   l0.08-0.08L30.6,27.28v-0.16l-0.08-0.24l-0.08-0.08h0.08l-0.08-0.159H30.2V26.8l-0.08,0.08l0.08,0.16l-0.08,0.24l-0.08,0.08v0.08   l-0.88-0.88c1.359-1.36,2.16-3.2,2.16-5.12h2.319C33.64,24,32.6,26.4,30.84,28.16z M31.32,21.28c0-0.4-0.08-0.88-0.08-1.28   l0.08-0.16h0.079l0.16-0.56h-0.08V19.2H31.24l-0.08-0.08l-0.08,0.08l0.16,0.08h-0.08v0.08C31.08,19.12,31,18.96,31,18.72   l0.16-0.159v-0.24h-0.08L31,18.08L31.08,18l-0.16-0.16h-0.24l-0.08-0.08c-0.08-0.079-0.08-0.159-0.16-0.239h0.24l-0.08-0.08   l0.16-0.08v-0.08h-0.08l-0.16,0.08l-0.08-0.08l0.16-0.16l-0.08-0.08l-0.239,0.24l-0.16-0.08c-0.16-0.16-0.24-0.4-0.4-0.56v-0.08   l0,0c-0.16-0.16-0.32-0.4-0.479-0.561l0,0l0.159,0.24l0.08-0.32H29.32l0,0L29.8,15.44l0.32,0.319h0.319l0.08,0.16v0.24l0.641,0.4   h0.16l0.399,0.479l0.08,0.24l0.32,0.32h0.319l0.16-0.32c0.561,1.28,0.88,2.64,0.88,4H31.32L31.32,21.28z"/>
	<path fill="#1565C0" d="M24.6,28.72L24.6,28.72C24.68,28.72,24.68,28.72,24.6,28.72C24.68,28.72,24.68,28.72,24.6,28.72z"/>
	<polygon fill="#1565C0" points="13.88,27.2 13.8,27.12 13.72,26.96 13.64,26.96 13.8,27.12 13.8,27.2 13.88,27.28 13.96,27.44    14.04,27.44 13.96,27.28  "/>
	<path fill="#1565C0" d="M29.16,15.2L29.16,15.2l0.08,0.16h0.08L29.16,15.2z"/>
	<path fill="#1565C0" d="M22.68,18.96L22.68,18.96c-0.16,0.16-0.319,0.24-0.399,0.32c0,0.16,0.08,0.4,0.239,0.56   c0.08,0.08,0.16,0.16,0.24,0.24L23,20v-1.04h-0.08V18.8L23,18.72v-0.079l-0.08,0.079l-0.16,0.08L22.68,18.96z M22.76,19.2   L22.76,19.2L22.76,19.2L22.76,19.2z"/>
	<path fill="#1565C0" d="M25.72,30.08L25.72,30.08L25.72,30.08L25.72,30.08z"/>
	<polygon fill="#1565C0" points="25.96,18.48 25.88,18.561 25.8,18.561 25.64,18.88 25.8,18.88 25.8,18.72 25.96,18.561    26.12,18.48 26.04,18.4  "/>
	<path fill="#1565C0" d="M24.84,23.76v0.08v0.08c0.4-0.16,0.4-0.319,0.4-0.319c0-0.16-0.24-0.32-0.561-0.48c0,0.08,0,0.24,0,0.32   l0.08,0.08h-0.08c0,0.08,0,0.16,0,0.16h0.08L24.84,23.76z M25,23.36L25,23.36C25,23.36,25,23.44,25,23.36L25,23.36z"/>
	<path fill="#1565C0" d="M26.76,14.4c-0.64-0.24-1.2-0.4-1.92-0.48c0,0.08,0,0.08,0,0.16c0.64,0.08,1.2,0.24,1.84,0.48   C26.68,14.48,26.76,14.48,26.76,14.4z"/>
	<polygon fill="#1565C0" points="29.96,12.24 30.04,12.48 30.12,12.48 30.12,12.24 30.04,12.16 30.04,12.08 29.8,12 29.8,12.08    29.64,12 29.72,11.92 29.479,12.08 29.64,12.16  "/>
	<polygon fill="#1565C0" points="26.2,18.32 26.36,18.32 26.439,18.24 26.28,18.24 26.2,18.08 26.04,18.16 26.12,18.24 26.12,18.4     "/>
	<polygon fill="#1565C0" points="25.16,18.4 24.92,18.4 24.84,18.48 24.76,18.48 24.76,18.88 25,18.72  "/>
	<polygon fill="#1565C0" points="29.16,17.521 29.16,17.44 29.08,17.521 29.08,17.681  "/>
	<polygon fill="#1565C0" points="18.36,22.88 18.28,22.96 18.28,22.96 18.2,22.8 18.12,22.88 18.2,23.04 18.2,23.12 18.2,23.2    18.28,23.28 18.36,23.44 18.439,23.44 18.439,23.2 18.36,23.12  "/>
	<path fill="#1565C0" d="M21.96,22.16c-0.08,0-0.08,0-0.16-0.08v0.16L21.96,22.16z"/>
	<path fill="#1565C0" d="M17.96,15.601c0-0.08,0-0.16,0.08-0.24l-0.08-0.08c-0.08,0-0.16,0-0.24,0L17.96,15.601z"/>
	<polygon fill="#1565C0" points="29.08,18.24 29.16,18.24 29.24,18.16 29.32,18 29.24,18 29.16,18 29.08,17.76 29.08,17.84    29.08,18 29.08,18.08 29,18.08 28.84,18.16 28.84,18.32  "/>
	<polygon fill="#1565C0" points="30.6,22.32 30.28,22.4 30.36,22.561 30.6,22.561  "/>
	<polygon fill="#1565C0" points="28.6,18.48 28.68,18.4 28.439,18.4 28.36,18.48 28.439,18.561  "/>
	<polygon fill="#1565C0" points="29.399,17.601 29.56,17.681 29.72,17.681 29.56,17.601 29.56,17.521 29.56,17.36 29.479,17.28    29.399,17.28 29.32,17.28 29.16,17.36 29.399,17.521  "/>
	<path fill="#1565C0" d="M17,28.32L17.32,28l0.319,0.24l0.641-0.08l0.239-0.24h0.32h0.32l0.16-0.16v-0.159l-0.16-0.16l-0.24-0.4   l-0.24-0.08l-0.16-0.24l0.08-0.079c1.2,1.199,2.8,1.92,4.48,2.079c0-0.079,0-0.079,0-0.159c-1.601-0.16-3.12-0.88-4.32-2   l1.601-1.601c0.399,0.4,0.96,0.721,1.439,0.96c0-0.08,0-0.08,0.08-0.16c-0.48-0.239-0.96-0.56-1.36-0.96l1.601-1.6   c0.24,0.24,0.56,0.4,0.88,0.56v-0.159c-0.32-0.08-0.561-0.24-0.8-0.48l0.08-0.08h0.08l0.079-0.08h0.24l0.16-0.08H23v-0.319   l-0.48-0.16l0,0H22.28l-0.16,0.24l-0.08,0.239l0,0c-0.16-0.16-0.24-0.399-0.4-0.56l0.08-0.16c0,0-0.08,0-0.08-0.08v0.24   c0-0.08-0.08-0.08-0.08-0.16v-0.08c-0.16-0.08-0.319-0.16-0.399-0.24l-0.08,0.08l-0.16-0.08l-0.16,0.08l-0.08-0.16l0.08-0.079h0.16   c-0.48-0.4-0.8-0.881-0.96-1.521c-0.08-0.4-0.16-0.8-0.08-1.12l-0.24,0.08h-0.16c0.16-0.32,0.32-0.56,0.561-0.8   c0.08-0.24,0.16-0.4,0.32-0.561l0,0l-1.601-1.6c1.12-1.12,2.561-1.84,4.08-2.08c0-0.08,0-0.08,0-0.16   c-1.6,0.24-3.04,0.96-4.24,2.08L18.2,15.601l0,0c0,0.08-0.08,0.08-0.08,0.159l0.319,0.32c-1.359,1.36-2.079,3.2-2.079,5.2h-2.32   c0-2.561,0.96-4.96,2.8-6.8l0.64,0.64c0.08,0,0.08,0,0.16,0h0.08L17,14.4c0.479-0.48,1.04-0.96,1.6-1.28   c0-0.08,0.08-0.16,0.16-0.32c-0.72,0.4-1.28,0.881-1.92,1.44l-0.96-0.96c0,0.08-0.08,0.08-0.08,0.16l0.88,0.88   c-0.88,0.88-1.52,1.92-2.08,3.04c-0.479,1.2-0.8,2.56-0.8,3.84H12.36c0,0.08,0,0.08,0,0.16h1.52c0,1.04,0.16,2,0.48,2.96L14.2,24.4   l-0.48-0.24l-0.08,0.08l-0.16-0.08v0.16l0.08,0.16H13.32l-0.24-0.08v-0.16v-0.08H13v0.16v0.08h-0.08h-0.16l0.16,0.08h-0.16   l-0.08,0.08h0.08h-0.08v0.159l0.08,0.08l0.08,0.08h-0.08l0.08,0.16h0.08v0.08L13,25.2v0.08h-0.32l0.08,0.24L12.6,25.2v0.24   l0.16,0.319L12.84,26l0.32,0.72v-0.159l-0.24-0.641v-0.239l0.16-0.24L13.56,26l0.08-0.08l-0.16-0.319l0.08,0.08l0.16,0.239   L13.96,26l0.08,0.16h0.08L14.04,26l0.08-0.08l0.08,0.24l0.16,0.24h0.159l0.4,0.64l0.24,0.08l0.08-0.24l0.08,0.08l0.319,0.48   l0.4,0.08c0.24,0.319,0.479,0.56,0.72,0.88L16.36,28.8c0.079,0.08,0.079,0.08,0.159,0.08l0.4-0.399c0.88,0.88,1.92,1.6,3.04,2.08   c1.04,0.399,2.08,0.72,3.2,0.8c0-0.08,0-0.08,0-0.16C20.84,30.88,18.68,29.92,17,28.32z M17.24,22.48l-0.08,0.239l-0.24,0.08   l-0.08-0.08l-0.16-0.079v-0.08c-0.08-0.32-0.08-0.721-0.08-1.12h0.96v0.08l-0.16,0.239H17.32l-0.16,0.48L17.24,22.48z M17.88,26   L17.88,26l0.08-0.08L18.04,26H17.88z M18.52,26.561l-0.08-0.16C18.439,26.48,18.52,26.48,18.52,26.561L18.52,26.561z M18.68,26.4   c-0.16-0.16-0.24-0.32-0.399-0.48l0,0l0.08-0.239v-0.32l-0.24-0.4v-0.399l-0.08-0.24l0.08-0.08l-0.24-0.48v-0.159l-0.16-0.24h-0.16   h0.24l-0.08-0.08l-0.16-0.32L17.32,22.8l0.079-0.239l-0.079-0.32l0.159-0.32h0.32l0.08-0.16V21.44h0.16h0.16l0.16,0.08v-0.08H19   c0,0.16,0,0.319,0,0.479l0,0h-0.16l-0.16,0.24h0.16L19,22.08c0.16,1.04,0.64,2,1.36,2.8L18.68,26.4z M17.96,21.12l0.08-0.4   l0.32-0.159l0.399,0.08l0.08,0.159c0,0.16,0,0.32,0,0.48H18.2V21.2L17.96,21.12z M19.72,22.32l0.24,0.08l0.16,0.16l0.08-0.08   l0.239,0.16l0.08,0.159H20.36v0.08l0.159,0.08l0.16,0.16v-0.08v-0.16l0.08-0.16l0.08-0.079l-0.16-0.24l0.16,0.08l0.16,0.16   l0.08,0.239h0.16l-0.4,0.08L21,23.28h0.16v-0.16v-0.16h0.16l0.159-0.24l0.08-0.319h0.08l0.08-0.16c0.08,0.24,0.24,0.479,0.48,0.64   L20.6,24.48c-0.72-0.721-1.2-1.681-1.359-2.721h0.08l0.319,0.32L19.72,22.32z M19.399,19.36c0,0,0-0.08,0.08-0.08h0.08   L19.399,19.36L19.399,19.36z M18.6,16.24l1.601,1.6c-0.4,0.4-0.721,0.88-0.88,1.36h-0.08l0.08-0.08l-0.24,0.08l-0.16,0.08V19.2   l-0.24,0.08v0.08l0.16-0.08h0.24l0.24-0.08v0.08l-0.4,0.32l-0.08-0.08l-0.32,0.239l-0.239-0.079l-0.16,0.239l-0.32,0.641   l0.08,0.159l-0.24,0.32v0.24l0,0H16.6C16.52,19.36,17.24,17.601,18.6,16.24z M16.36,22.561h-0.08L16.2,22.4l-0.16,0.08v0.16   l-0.4,0.64h-0.08l-0.08,1.04L15.16,24.4h-0.08l-0.16,0.08H14.6l0,0c-0.319-0.96-0.479-1.92-0.479-2.96h2.319   c0,0.319,0,0.72,0.08,1.04l-0.159-0.08V22.561L16.36,22.561z M16.92,28.16c-0.16-0.16-0.32-0.32-0.48-0.56l0.16,0.08l0.08-0.08   l0.4,0.239h0.08L16.92,28.16z"/>
	<polygon fill="#1565C0" points="31,17.36 31.08,17.521 31.16,17.681 31.24,17.76 31.08,17.36  "/>
	<polygon fill="#1565C0" points="18.28,21.76 18.36,22.08 18.28,22.16 18.28,22.24 18.28,22.48 18.2,22.561 18.36,22.88 18.36,22.8    18.36,22.561 18.439,22.08 18.36,21.84  "/>
	<polygon fill="#1565C0" points="31.399,18.32 31.24,17.92 31.24,18 31.24,18.24 31.32,18.561 31.399,18.72 31.399,18.8    31.479,19.12 31.56,19.12 31.56,18.8 31.479,18.641  "/>
	<polygon fill="#1565C0" points="30.76,16.72 30.76,16.641 30.52,16.48 30.36,16.4 30.439,16.561 30.52,16.561 30.6,16.72    30.68,16.641  "/>
	<polygon fill="#1565C0" points="30.68,16.88 30.84,17.2 30.92,17.2 30.76,16.88  "/>
	<path fill="#1565C0" d="M24.68,27.521c0,0.239,0,0.479,0,0.8c0.641,0.32,1.2,0.72,1.44,1.68   C26.12,28.561,25.399,27.92,24.68,27.521 M21.64,13.04c0.32-0.399,0.721-0.72,1.2-0.88c0-0.479,0-0.96,0-1.36   c-0.8,0.16-1.2,0.48-1.36,0.561c-0.479,0.16-1.04,0.08-1.76,0.8c-0.08,0.16-0.399,0.48-0.64,0.8c-0.16,0.32-0.24,0.721-0.32,0.96   c-0.24,0.32-0.16,0.561-0.16,0.561v0.08c0,0.08-0.08,0.239-0.239,0.399c-0.24,0.24-0.48,0.4-0.881,0.32   C17.8,15.44,18.2,15.2,18.2,15.2s-0.08,0.24-0.16,0.64c0.32-0.64,0.56-0.96,0.72-1.12c0.16,0,0.4,0,1.04-0.319   C20.36,14,21.32,13.36,21.64,13.04z M20.439,12.72L19.96,13.28l-0.32-0.08l0.08-0.24l0.48-0.399H20.6L20.439,12.72z M26.2,22   c-0.48-0.319-1.04-0.56-1.44-0.8c0,0.64,0,1.12,0,1.52c0.561,0.24,0.88,0.48,0.88,0.801c0,0.319-0.319,0.56-0.96,0.8l0,0H24.6   c-0.16,0.08-0.319,0.08-0.479,0.16s-0.32,0.08-0.48,0.16C23.479,24.72,23.24,24.8,23.16,24.8c-1.04,0.48-1.04,1.12-0.96,1.681   c0.08,0.479,0.399,0.8,0.88,1.04c0-0.561,0-0.96,0-1.04c0-0.24,0.16-0.48,0.399-0.561c0.16-0.16,0.4-0.239,0.801-0.399   c0.479-0.16,0.88-0.32,1.6-0.561C27.479,24.48,27.479,22.96,26.2,22z M29,13.601c0-1.2-1.2-2.801-4-3.04c0,0.399,0,0.88,0,1.359   c0.16,0,0.32,0.08,0.399,0.08c1.36,0.32,1.921,1.04,1.921,1.84c0,0.721-0.641,1.601-2,2c-0.16,0-0.32,0.08-0.48,0.08l0,0L24.6,16   c-0.239,0.08-0.56,0.16-0.72,0.16c-0.24,0.08-0.4,0.08-0.56,0.16l-0.4,0.08l0,0c-0.32,0.08-0.56,0.16-0.8,0.24   c-1.521,0.72-2.08,1.92-1.681,3.279c0.24,0.8,0.641,1.44,1.921,1.84c0.239,0.08,0.479,0.16,0.8,0.24v-1.6   c-0.32-0.16-0.561-0.32-0.721-0.48C21.96,19.28,22.04,18.4,23.16,18l0,0h0.08c0,0,0,0,0.08,0c0.56-0.16,1.119-0.319,1.68-0.399   h0.08l0,0c0.8-0.16,1.52-0.4,2.16-0.721C28.2,16.32,29.16,15.36,29,13.601z M23.24,16c0.399-0.08,0.88-0.16,1.279-0.319   c0-0.48,0.16-6.24,0.16-6.48c0-0.88,0.8-3.2-0.8-3.2S23,8.4,23.08,9.2C23.16,9.521,23.24,15.521,23.24,16z M24.36,24.08   c0-0.08,0.079-5.84,0.079-6c-0.239,0-0.96,0.24-1.119,0.32c0,0.16,0.079,6.08,0.079,6.08s0.24-0.08,0.4-0.16   C24.04,24.24,24.28,24.16,24.36,24.08z M23.479,26.72c0,0.16,0.08,5.04,0.16,5.521c0.08,1.2,0.48,1.2,0.561,0.08   c0-0.32,0.16-6.08,0.16-6.24C23.8,26.24,23.479,26.4,23.479,26.72z"/>
	<path fill="#1565C0" d="M30.36,36.68c0,0,0.479-0.16,1.279-0.88c0.721-0.64,0.88-1.52,1.521-2.4C33.88,32.439,35.479,31,35.479,31   S35,33,34.52,33.96c-0.64,1.359-1.439,1.84-1.439,1.84s0.399,0.24,0.88,0c0.479-0.24,1.04-0.48,1.76-0.4s1.68,0.08,2.641-0.479   c0.96-0.561,1.76-1.12,1.76-1.12s-0.561,1.84-2.96,2.8c-1.521,0.641-3.28,0.641-3.84,0.32c-0.561-0.32-1.2-0.48-1.681-0.32   C31.24,36.84,30.36,36.68,30.36,36.68 M37.96,27c0,0-0.96,2-1.28,2.96c-0.319,0.96-0.399,2.479-0.56,3.2   c-0.16,0.72-0.48,1.04-0.48,1.04s3.04-0.24,4.48-1.28c2.319-1.601,2.72-4.32,2.72-4.32s-0.8,1.2-1.84,1.84   c-0.64,0.4-1.84,1.04-2.561,1.521c-0.64,0.479-0.8,1.12-1.119,0.96c-0.32-0.16,0.079-0.96,0.399-1.601   c0.24-0.56,0.4-1.359,0.24-1.92C37.96,28.76,37.96,27,37.96,27 M39.16,23.08c0,0-0.32,2-0.24,2.8s0.32,2.08,0.24,3.12   c-0.08,1.12-0.24,1.6-0.24,1.6s3.2-2,4-3.84c0.479-1.12,0.96-3.04,0.96-3.04s-0.16,0.32-0.64,0.96c-0.48,0.72-1.2,0.96-1.761,1.84   c-0.72,1.12-1.439,1.761-1.439,1.761s0.16-1.841,0.08-2.4C40.04,25.24,39.16,23.08,39.16,23.08 M39.08,18.6   c0,0,0.08,2.561,0.399,3.2c0.4,0.8,0.801,1.52,1.28,2.64c0.48,1.12,0.32,0.96,0.32,0.96s0.319-0.319,0.479-0.56   s1.2-1.12,1.681-2.88c0.479-1.76,0.08-4,0.08-4s-0.24,0.72-0.32,1.28c-0.16,0.64-0.88,1.52-1.12,2.319   c-0.24,0.88-0.24,1.44-0.4,1.44C41.32,23,41.08,22.439,41,21.88c0-0.48-0.72-1.36-1.28-2.24C39.399,18.92,39.08,18.6,39.08,18.6    M38.04,14.92c0,0,0.56,1.04,0.88,1.92c0.4,0.88,1.36,1.92,1.84,2.479c0.48,0.561,0.64,1.04,0.64,1.04s0.24-0.8,0.561-1.439   c0.64-1.12,0.56-1.44,0.64-2.88c0-1.44-1.359-3.44-1.359-3.44s0.159,0.72,0.239,1.2s-0.08,2.4-0.159,2.8   c-0.08,0.4,0.159,1.44-0.08,1.521c-0.24,0.08-0.96-1.2-1.521-1.84C39.24,15.64,38.04,14.92,38.04,14.92 M36.2,11.399   c0,0,0.319,1.2,1.199,1.761c0.48,0.319,1.761,1.279,2.32,1.68c0.561,0.4,0.8,0.8,0.8,0.8s0-3.04-0.239-4   c-0.32-0.96-1.841-2.16-1.841-2.16s0.24,0.721,0.48,1.04c0.24,0.4,0.24,1.2,0.56,2c0.32,0.8,0.561,1.2,0.32,1.28   c-0.16,0.08-0.72-0.32-1.04-0.72c-0.399-0.4-1.12-0.641-1.68-1.04C36.52,11.72,36.2,11.399,36.2,11.399 M34.92,8.12   c0,0,1.12,1.84,1.6,2.319c0.561,0.48,1.841,1.12,1.841,1.12S37.72,9.8,36.92,9.16C36.12,8.52,34.92,8.12,34.92,8.12 M11.32,37.64   c0,0,0.239,0.641,1.52,1.12c1.2,0.56,3.28,0.72,4.32,0.56C18.2,39.24,18.68,39,19.88,38.28c1.2-0.721,1.76-0.801,2.48-0.881   c0.72-0.08,0.72,0.08,0.72,0.08s-1.2,0.641-2.4,1.36c-1.12,0.8-2,1.6-2,1.6l0.48,0.48c0,0,0.16-0.24,1.279-1.36   c1.2-1.12,3.04-1.92,3.601-1.92c0.56,0,2.08,0.8,3.2,1.601C28.36,40.04,29,41,29,41l0.399-0.48c0,0-1.68-1.439-2.399-1.92   c-0.64-0.56-2-1.04-2-1.04s0.72-0.08,1.2,0c0.479,0,1.52,0.561,2.479,1.2s1.84,0.8,4.08,0.56C36.439,39,36.6,37.8,36.6,37.8   s-1.2,0.64-2.72,0.56c-1.04,0-2.96-0.64-4-0.96c-1.04-0.319-2-0.56-2.72-0.479c-1.44,0.08-3.28,0.399-3.28,0.399   S22.439,37.16,21.64,37s-2.16-0.08-4,0.399c-1.76,0.48-2.8,0.801-3.84,0.881C12.76,38.359,11.32,37.64,11.32,37.64 M7.64,33.72   c0,0,0.16,0.4,1.2,1.6c1.6,1.761,3.44,1.841,4.4,1.841c1.04,0,2.159-0.4,2.8-0.48c0.64-0.08,1.6,0,1.6,0s-0.72-0.32-1.439-0.96   c-0.721-0.56-0.561-1.28-1.601-2.56c-1.04-1.36-2.08-2.08-2.08-2.08s0.4,2.16,1.2,3.439c0.48,0.88,1.2,1.2,1.12,1.28   s-0.72,0.08-0.96-0.08c-0.24-0.08-0.88-0.32-1.6-0.4c-0.721-0.079-1.761,0.24-2.96-0.479C8.76,34.6,7.64,33.72,7.64,33.72    M4.76,28.68c0,0,0.72,1.68,1.521,2.96c0.8,1.28,2.88,2.08,3.6,2.32s2.24,0.32,2.24,0.32s-0.4-0.48-0.641-1.36   c-0.239-0.8-0.159-2.72-0.64-3.76c-0.56-1.2-0.96-1.92-0.96-1.92s0.08,0.64-0.08,1.04c-0.16,0.8,0,2.72,0.16,3.52   c0.16,0.72,0.64,1.2,0.32,1.36c-0.32,0.159-0.48-0.32-1.04-0.88c-0.48-0.561-2-1.04-2.96-1.841C5.479,29.56,4.76,28.68,4.76,28.68    M3.88,23.72c0,0,0.08,0.8,0.24,1.44c0.16,0.64,1.12,2.72,2.16,3.68s2.479,1.92,2.479,1.92s-0.08-0.8-0.24-1.44   c-0.159-0.64,0.24-1.92,0.32-3.039c0.08-1.12-0.16-3.04-0.16-3.04S7.72,25.08,7.56,26.6c-0.08,0.88,0.24,1.84,0,1.84   C7.24,28.52,6.36,26.68,5.96,26.2c-0.48-0.561-0.8-0.801-1.28-1.28C4.2,24.52,3.88,23.72,3.88,23.72 M4.28,18.12   c0,0-0.16,2.8,0.159,4.08C5,24.28,6.6,25.56,6.6,25.56s0.16-0.72,0.48-1.439c0.319-0.721,0.88-1.44,1.12-2   c0.399-1.12,0.56-3.2,0.56-3.2s-0.399,0.56-0.72,1.04C7.72,20.439,7.32,21,6.92,21.72c-0.32,0.8-0.4,1.44-0.72,1.521   c-0.48,0.079-0.08-0.721-0.48-1.681c-0.399-0.96-1.04-2-1.12-2.479C4.52,18.6,4.28,18.12,4.28,18.12 M6.439,12.68   c0,0-1.119,1.521-1.279,2.88C5,16.92,5.08,18.04,5.64,19c0.4,0.64,0.48,1.52,0.48,1.52s0.16-0.479,0.64-0.96   c0.48-0.479,1.28-1.2,1.84-2.16c0.561-0.96,1.04-2.239,1.04-2.239S8.76,15.64,8.2,16.12c-1.28,1.12-1.92,2.239-1.92,2.239   s-0.32-0.319-0.24-0.8c0.24-0.399,0.32-1.12,0.24-1.68c-0.08-0.48-0.24-0.8-0.08-1.44C6.28,13.8,6.439,12.68,6.439,12.68    M9.479,9.56c0,0-1.52,0.88-1.92,2c-0.319,0.88-0.16,1.76-0.319,2.641c-0.16,0.88,0.08,1.52,0.08,1.52s0.079-0.24,0.64-0.8   c0.56-0.561,1.36-0.88,1.92-1.28c1.28-0.88,1.84-2.24,1.84-2.24S11,12.04,10.6,12.28c-0.319,0.159-1.04,0.56-1.52,0.88   c-0.4,0.239-0.641,1.04-0.641,1.04S7.96,13.8,8.12,13.319C8.28,12.84,8.52,12.439,8.6,11.96c0.08-0.48,0.24-1.2,0.48-1.521   C9.24,10.12,9.479,9.56,9.479,9.56 M10.6,9.479C9.56,10.52,9.32,11.8,9.32,11.8s1.119-0.56,2.079-1.52c0.801-0.801,1.521-2,1.521-2   S11.16,8.92,10.6,9.479"/>
	<circle fill="none" stroke="#1565C0" stroke-width="2" stroke-miterlimit="10" cx="23.88" cy="21.2" r="12.8"/>
</g>
</svg>