<?xml version="1.0" encoding="utf-8"?><!-- Generator: Adobe Illustrator 15.0.0, SVG Export Plug-In . SVG Version: 6.00 Build 0)  --><!DOCTYPE svg PUBLIC "-//W3C//DTD SVG 1.1//EN" "http://www.w3.org/Graphics/SVG/1.1/DTD/svg11.dtd"><svg xmlns="http://www.w3.org/2000/svg" xmlns:xlink="http://www.w3.org/1999/xlink" version="1.1" x="0px" y="0px" width="528" height="528" viewBox="0 0 48 48" enable-background="new 0 0 48 48" xml:space="preserve">
<path fill="#455A64" d="M6,10c0-2.209,1.791-4,4-4h28c2.209,0,4,1.791,4,4v28c0,2.209-1.791,4-4,4H10c-2.209,0-4-1.791-4-4V10z"/>
<g>
	<path fill="#00E5FF" d="M24,29.934c-2.348,0-3.941-0.934-4.5-0.934c-1.381,0-2.5,1.119-2.5,2.5s1.766,2.25,2.844,3S22.555,37,24,37   s3.695-2.014,4.141-2.391C28.953,33.922,31,32.881,31,31.5S29.881,29,28.5,29C27.941,29,26.348,29.934,24,29.934z M27.193,30.809   c0.664-0.422,1.505-0.287,1.879,0.299c0.373,0.586,0.14,1.406-0.522,1.828c-0.663,0.422-1.504,0.289-1.878-0.297   C26.297,32.05,26.532,31.23,27.193,30.809z M21.328,32.637c-0.374,0.586-1.215,0.719-1.878,0.297   c-0.662-0.422-0.897-1.24-0.522-1.828c0.374-0.586,1.215-0.72,1.879-0.297C21.468,31.23,21.703,32.05,21.328,32.637z"/>
	
		<line fill="none" stroke="#00E5FF" stroke-width="2" stroke-linecap="square" stroke-linejoin="round" stroke-miterlimit="10" x1="24" y1="30" x2="24" y2="12"/>
	
		<line fill="none" stroke="#00E5FF" stroke-width="2" stroke-linecap="square" stroke-linejoin="round" stroke-miterlimit="10" x1="18" y1="13" x2="30" y2="13"/>
	
		<line fill="none" stroke="#00E5FF" stroke-width="2" stroke-linecap="square" stroke-linejoin="round" stroke-miterlimit="10" x1="16" y1="17" x2="32" y2="17"/>
	
		<line fill="none" stroke="#00E5FF" stroke-width="2" stroke-linecap="square" stroke-linejoin="round" stroke-miterlimit="10" x1="17" y1="21" x2="31" y2="21"/>
	
		<line fill="none" stroke="#00E5FF" stroke-width="2" stroke-linecap="square" stroke-linejoin="round" stroke-miterlimit="10" x1="19" y1="25" x2="21" y2="25"/>
	
		<line fill="none" stroke="#00E5FF" stroke-width="2" stroke-linecap="square" stroke-linejoin="round" stroke-miterlimit="10" x1="27" y1="25" x2="29" y2="25"/>
</g>
</svg>