<?xml version="1.0" encoding="utf-8"?><!-- Generator: Adobe Illustrator 15.0.0, SVG Export Plug-In . SVG Version: 6.00 Build 0)  --><!DOCTYPE svg PUBLIC "-//W3C//DTD SVG 1.1//EN" "http://www.w3.org/Graphics/SVG/1.1/DTD/svg11.dtd"><svg xmlns="http://www.w3.org/2000/svg" xmlns:xlink="http://www.w3.org/1999/xlink" version="1.1" x="0px" y="0px" width="48" height="48" viewBox="0 0 48 48" enable-background="new 0 0 48 48" xml:space="preserve">
<g>
	<path fill="#546E7A" d="M18.101,20.645c-0.577,0-1.125-0.147-1.548-0.358l0.895-1.789c0.409,0.192,1.188,0.389,1.658-0.553   c0.998-1.996,3.048-5.12,5.188-7.26c0.992-0.992,2.892-2.466,4.897-3.521c2.608-1.372,4.465-1.531,5.517-0.479l2.5,2.5   l-1.414,1.414l-2.5-2.5c-0.735-0.736-5.204,1.619-7.586,4c-1.895,1.895-3.854,4.824-4.813,6.74   C20.218,20.191,19.113,20.645,18.101,20.645z"/>
	<path fill="#546E7A" d="M5,41.604l1.326-1.373c0.391-0.392,0.961-0.35,1.352,0.041c0.391,0.392,0.453,0.981,0.063,1.373L6.358,43   L5,41.604z"/>
</g>
<path fill="#F06292" d="M9.975,32.727c0,0,7.117-8.766,13.27-14.919C29.411,11.639,35.182,7.31,35.238,7.268  c0.328-0.245,0.787-0.215,1.078,0.077l4.338,4.335c0.291,0.293,0.322,0.751,0.078,1.08c-0.043,0.057-4.373,5.828-10.541,11.995  c-6.152,6.151-14.834,13.198-14.918,13.269L9.975,32.727z"/>
<g>
	<path fill="#D81B60" d="M35.238,7.268c2.195-1.326,4.008-2.252,5.389-2.252c0.691,0,1.266,0.221,1.7,0.656   c1.549,1.549,0.038,4.385-1.595,7.088L35.238,7.268z"/>
	<path fill="#D81B60" d="M7.74,41.645c1.119-0.201,3.69-0.92,7.533-3.621l-5.299-5.297c-2.699,3.844-3.449,6.385-3.648,7.504   L7.74,41.645z"/>
</g>
</svg>