<?xml version="1.0" encoding="utf-8"?><!-- Generator: Adobe Illustrator 15.0.0, SVG Export Plug-In . SVG Version: 6.00 Build 0)  --><!DOCTYPE svg PUBLIC "-//W3C//DTD SVG 1.1//EN" "http://www.w3.org/Graphics/SVG/1.1/DTD/svg11.dtd"><svg xmlns="http://www.w3.org/2000/svg" xmlns:xlink="http://www.w3.org/1999/xlink" version="1.1" x="0px" y="0px" width="48" height="48" viewBox="0 0 48 48" enable-background="new 0 0 48 48" xml:space="preserve">
<rect x="7" y="41" fill="#EF6C00" width="36" height="2"/>
<g>
	<path fill="#FB8C00" d="M5.085,40.314c-0.217,0.744-0.013,1.547,0.536,2.098C6.056,42.846,6.744,43,7.242,43   c0.126,0,0.253-0.01,0.374-0.029c0.059-0.01,0.117-0.023,0.173-0.047l11.086-4.382l-9.422-9.288L5.085,40.314z"/>
	<polygon fill="#FF9800" points="10.841,23.259 24.703,37.107 28.88,32.938 15.017,19.086  "/>
</g>
<g>
	<polygon fill="#FFC107" points="9.304,29.633 18.405,38.729 24.703,37.107 10.841,23.259  "/>
	<path fill="#FFC107" d="M42.232,15.883L32.085,5.742c-0.987-0.988-2.722-0.989-3.715,0L15.017,19.086L28.88,32.938l13.354-13.344   C43.256,18.567,43.255,16.901,42.232,15.883z"/>
</g>
</svg>