<?xml version="1.0" encoding="utf-8"?><!-- Generator: Adobe Illustrator 15.0.0, SVG Export Plug-In . SVG Version: 6.00 Build 0)  --><!DOCTYPE svg PUBLIC "-//W3C//DTD SVG 1.1//EN" "http://www.w3.org/Graphics/SVG/1.1/DTD/svg11.dtd"><svg xmlns="http://www.w3.org/2000/svg" xmlns:xlink="http://www.w3.org/1999/xlink" version="1.1" x="0px" y="0px" width="48" height="48" viewBox="0 0 48 48" enable-background="new 0 0 48 48" xml:space="preserve">
<path fill="#FFC107" d="M6,42c4-2,6.609-7.154,7.87-11.334c1.445-4.797,2.939-9.756,10.387-10.158  c0.179-0.009,0.359,0.043,0.509,0.147l6.432,4.539c0.215,0.15,0.343,0.396,0.343,0.658C31.539,39.583,22.757,42,6,42z"/>
<path fill="#E91E63" d="M23.098,20.507c-0.033,0.067-0.073,0.133-0.087,0.209c-0.207,1.101,0.198,2.302,1.166,3.472  c1.581,1.903,4.28,3.098,6.304,3.098c0.229,0,0.449-0.019,0.654-0.058c0.213-0.039,0.389-0.17,0.51-0.348L42,6h-9.99L23.098,20.507z  "/>
</svg>