<?xml version="1.0" encoding="utf-8"?><!-- Generator: Adobe Illustrator 19.1.1, SVG Export Plug-In . SVG Version: 6.00 Build 0)  --><svg xmlns="http://www.w3.org/2000/svg" xmlns:xlink="http://www.w3.org/1999/xlink" version="1.1" x="0px" y="0px" viewBox="0 0 48 48" enable-background="new 0 0 48 48" xml:space="preserve" width="48" height="48">
<polygon fill="#EF6C00" points="39,8 9,8 3,20 3,40 45,40 45,20 "/>
<rect x="3" y="20" fill="#BF360C" width="42" height="20"/>
<path fill="#E3F2FD" d="M35,19.9c0,10-3.8,17.1-6.8,17.1c-2.7,0-2.7-1.7-4.2-1.7c-2.4,0-3.5-2.2-4.9-4.6C18,28.8,13,26.2,13,19.9  c0-2.6,5.3-6.9,11-6.9S35,16.9,35,19.9z"/>
<path fill="#BBDEFB" d="M13,20c0.1,6.3,5,8.8,6.1,10.7c1.4,2.4,2.6,4.6,4.9,4.6c1.6,0,1.5,1.7,4.2,1.7c3,0,6.7-7.1,6.8-17H13z"/>
<path fill="#FFC107" d="M28.2,38c-1.9,0-2.8-0.7-3.4-1.3c-0.4-0.3-0.5-0.4-0.8-0.4c-2.8,0-4.2-2.4-5.6-4.8l-0.2-0.3  c-0.2-0.4-0.7-0.9-1.4-1.5C14.9,27.8,12,25,12,19.9c0-3.3,6-7.9,12-7.9c5.8,0,12,4,12,7.9C36,29.5,32.4,38,28.2,38z M24,14  c-5.3,0-10,4-10,5.9c0,4.3,2.5,6.7,4.3,8.4c0.7,0.7,1.3,1.3,1.7,1.9l0.2,0.3c1.4,2.3,2.3,3.8,3.9,3.8c1.1,0,1.6,0.5,2.1,0.9  s0.9,0.8,2.1,0.8c2,0,5.8-6.1,5.8-16.1C34,17.7,29.2,14,24,14z M24,9c-1.7,0-3,0.7-3,1.5s1.3,1.5,3,1.5s3-0.7,3-1.5S25.7,9,24,9z"/>
<path fill="#1A237E" d="M24,29c-0.6,0-1-0.4-1-1v-7.5l-2.6-1.7c-0.5-0.3-0.6-0.9-0.3-1.4c0.3-0.5,0.9-0.6,1.4-0.3l3,2  c0.3,0.2,0.4,0.5,0.4,0.8v8C25,28.6,24.6,29,24,29z M24,31c-0.6,0-1,0.4-1,1c0,0.6,0.4,1,1,1s1-0.4,1-1S24.6,31,24,31z M24,14.5  c-0.6,0-1,0.2-1,0.5s0.4,0.5,1,0.5s1-0.2,1-0.5S24.6,14.5,24,14.5z M28,15.5c-0.6,0-1,0.2-1,0.5c0,0.3,0.4,0.5,1,0.5s1-0.2,1-0.5  S28.6,15.5,28,15.5z M20,15.5c-0.6,0-1,0.2-1,0.5c0,0.3,0.4,0.5,1,0.5s1-0.2,1-0.5S20.6,15.5,20,15.5z M31,17.5c-0.6,0-1,0.2-1,0.5  s0.4,0.5,1,0.5s1-0.2,1-0.5S31.6,17.5,31,17.5z M17,17.5c-0.6,0-1,0.2-1,0.5s0.4,0.5,1,0.5s1-0.2,1-0.5S17.6,17.5,17,17.5z M20,26  c-0.6,0-1,0.4-1,1s0.4,1,1,1s1-0.4,1-1S20.6,26,20,26z M16,21c-0.6,0-1,0.4-1,1s0.4,1,1,1s1-0.4,1-1S16.6,21,16,21z M28,33  c-0.6,0-1,0.4-1,1s0.4,1,1,1s1-0.4,1-1S28.6,33,28,33z M30,30c-0.6,0-1,0.4-1,1s0.4,1,1,1s1-0.4,1-1S30.6,30,30,30z M31,26  c-0.6,0-1,0.4-1,1s0.4,1,1,1s1-0.4,1-1S31.6,26,31,26z M32,21c-0.6,0-1,0.4-1,1s0.4,1,1,1c0.6,0,1-0.4,1-1S32.6,21,32,21z"/>
</svg>