<?xml version="1.0" encoding="utf-8"?><!-- Generator: Adobe Illustrator 15.0.0, SVG Export Plug-In . SVG Version: 6.00 Build 0)  --><!DOCTYPE svg PUBLIC "-//W3C//DTD SVG 1.1//EN" "http://www.w3.org/Graphics/SVG/1.1/DTD/svg11.dtd"><svg xmlns="http://www.w3.org/2000/svg" xmlns:xlink="http://www.w3.org/1999/xlink" version="1.1" x="0px" y="0px" width="48" height="48" viewBox="0 0 48 48" enable-background="new 0 0 48 48" xml:space="preserve">
<rect x="22" y="3" fill="#C62828" width="4" height="8"/>
<g>
	<rect x="9" y="28" fill="#455A64" width="30" height="2"/>
	
		<rect x="35.144" y="40.765" transform="matrix(0.9111 -0.4121 0.4121 0.9111 -14.412 18.6957)" fill="#455A64" width="2" height="4"/>
	
		<rect x="10.866" y="40.765" transform="matrix(-0.9111 -0.4121 0.4121 -0.9111 5.053 86.6199)" fill="#455A64" width="2" height="4"/>
</g>
<g>
	<path fill="#B0BEC5" d="M26.557,11c-0.918,0.98-2.16,1.65-3.557,1.841l11.541,28.816l1.825-0.831l0.253-4.306L26.557,11z"/>
	<path fill="#B0BEC5" d="M21.443,11.159C22.361,12.14,23.604,12.81,25,13L13.469,41.657l-1.825-0.831l-0.253-4.306L21.443,11.159z"/>
</g>
<path fill="#F44336" d="M24,7c-2.761,0-5,2.239-5,5c0,2.762,2.239,5,5,5s5-2.238,5-5C29,9.239,26.761,7,24,7z"/>
<path fill="#ECEFF1" d="M24,11c-0.552,0-1,0.448-1,1c0,0.553,0.448,1,1,1s1-0.447,1-1C25,11.448,24.552,11,24,11z"/>
<path fill="#78909C" d="M26,32c0,0.553-0.447,1-1,1h-2c-0.553,0-1-0.447-1-1v-6c0-0.553,0.447-1,1-1h2c0.553,0,1,0.447,1,1V32z"/>
</svg>