<?xml version="1.0" encoding="utf-8"?><!-- Generator: Adobe Illustrator 15.0.0, SVG Export Plug-In . SVG Version: 6.00 Build 0)  --><!DOCTYPE svg PUBLIC "-//W3C//DTD SVG 1.1//EN" "http://www.w3.org/Graphics/SVG/1.1/DTD/svg11.dtd"><svg xmlns="http://www.w3.org/2000/svg" xmlns:xlink="http://www.w3.org/1999/xlink" version="1.1" x="0px" y="0px" width="48" height="48" viewBox="0 0 48 48" enable-background="new 0 0 48 48" xml:space="preserve">
<path fill="#607D8B" d="M31.409,31.767l13.006-13.008c0.78-0.778,0.78-2.044,0-2.823L32.065,3.585c-0.78-0.779-2.045-0.779-2.826,0  L16.234,16.591L31.409,31.767z"/>
<path fill="#546E7A" d="M41.5,21.676l2.915-2.917c0.78-0.778,0.78-2.044,0-2.823L32.065,3.585c-0.78-0.779-2.045-0.779-2.826,0  L26.325,6.5L41.5,21.676z"/>
<path fill="#CFD8DC" d="M16.59,16.235L3.585,29.24c-0.779,0.781-0.779,2.045,0,2.824l12.35,12.351c0.78,0.78,2.045,0.78,2.826,0  l13.005-13.006L16.59,16.235z"/>
</svg>