<?xml version="1.0" encoding="utf-8"?><!-- Generator: Adobe Illustrator 15.0.0, SVG Export Plug-In . SVG Version: 6.00 Build 0)  --><!DOCTYPE svg PUBLIC "-//W3C//DTD SVG 1.1//EN" "http://www.w3.org/Graphics/SVG/1.1/DTD/svg11.dtd"><svg xmlns="http://www.w3.org/2000/svg" xmlns:xlink="http://www.w3.org/1999/xlink" version="1.1" x="0px" y="0px" width="48" height="48" viewBox="0 0 48 48" enable-background="new 0 0 48 48" xml:space="preserve">
<path fill="#E91E63" d="M29.563,13.563L40,24c0.375,0.344,0.855,3.186,0.855,4.886c0,0.987-0.196,2.312-0.406,3.712  C40.229,34.081,40,36.186,40,37.43c0,1.418,1.154,2.57,2.57,2.57c1.42,0,2.43-1.43,2.43-2.43l-0.001-9.353  C45.124,21.317,35.486,16.015,29.563,13.563z"/>
<path fill="#CFD8DC" d="M22,6L5.028,22.285C4.344,22.972,4,23.915,4,24.855c0,0.943,0.344,1.889,1.028,2.574l13.543,13.541  C19.256,41.656,20.113,42,21.144,42c0.941,0,1.885-0.344,2.571-1.027L40,24L22,6z"/>
<path fill="#546E7A" d="M25,20.002c0,0-9.347-0.501-13.072-2.374c-1.747-0.877-2.926-2.056-2.926-3.626l-0.006-0.105  c0-0.004,0.021-0.509,0.581-1.127c0.78-0.86,2.853-2.196,8.104-2.626l2.209-2.12c-5.928,0.165-9.896,1.311-11.794,3.402  c-1.07,1.179-1.108,2.287-1.095,2.604c0.012,2.269,1.406,3.889,3.413,5.051C15.262,21.886,25,22.002,25,22.002V20.002z"/>
</svg>