<?xml version="1.0" encoding="utf-8"?><!-- Generator: Adobe Illustrator 15.0.0, SVG Export Plug-In . SVG Version: 6.00 Build 0)  --><!DOCTYPE svg PUBLIC "-//W3C//DTD SVG 1.1//EN" "http://www.w3.org/Graphics/SVG/1.1/DTD/svg11.dtd"><svg xmlns="http://www.w3.org/2000/svg" xmlns:xlink="http://www.w3.org/1999/xlink" version="1.1" x="0px" y="0px" width="48" height="48" viewBox="0 0 48 48" enable-background="new 0 0 48 48" xml:space="preserve">
<g>
	<path fill="#CDDC39" d="M43.707,11.421c0.39,0.39,0.391,1.023,0,1.414L27,32.093l-9.548-9.712L36.165,5.293   c0.391-0.391,1.023-0.391,1.414,0L43.707,11.421z"/>
	<path fill="#CDDC39" d="M11.015,43c-0.062,0-0.118-0.01-0.178-0.035l-5.479-2.152c-0.151-0.06-0.265-0.194-0.301-0.357   c-0.031-0.164,0.017-0.332,0.134-0.45l4.153-4.227c0.091-0.092,0.214-0.144,0.341-0.144l0,0c0.131,0,0.254,0.052,0.345,0.144   l3.797,3.864c0.191,0.191,0.191,0.505,0,0.695l-2.473,2.52C11.263,42.951,11.14,43,11.015,43z"/>
</g>
<path fill="#37474F" d="M8.362,35.434l2.821-2.859l2.797-6.639l9.538,9.693l-6.587,2.795l-2.814,2.859L8.362,35.434z"/>
<polygon fill="#689F38" points="13.98,25.936 23.519,35.629 27,32.093 17.452,22.381 "/>
</svg>