<?xml version="1.0" encoding="utf-8"?><!-- Generator: Adobe Illustrator 15.0.0, SVG Export Plug-In . SVG Version: 6.00 Build 0)  --><!DOCTYPE svg PUBLIC "-//W3C//DTD SVG 1.1//EN" "http://www.w3.org/Graphics/SVG/1.1/DTD/svg11.dtd"><svg xmlns="http://www.w3.org/2000/svg" xmlns:xlink="http://www.w3.org/1999/xlink" version="1.1" x="0px" y="0px" width="48" height="48" viewBox="0 0 48 48" enable-background="new 0 0 48 48" xml:space="preserve">
<path fill="#CFD8DC" d="M40,17L8,17.004V43c0,1.657,1.343,3,3,3h26c1.657,0,3-1.343,3-3V17"/>
<path fill="#E91E63" d="M11.813,17v0.011c1.372,0.057,2.564,0.695,3.285,2.024c0.877,1.618,0.973,3.73,2.687,4.718  c2.395,1.38,3.575-0.442,5.594-1.128c2.352-0.799,3.803,1.333,4.487,3.135c0.663,1.746,0.958,3.848,1.135,5.865  c0.172,1.966,0.528,4.841,1.628,6.473c1.194,1.771,3.707,2.303,4.872,0.284C36.579,36.511,35.75,21.417,40,17  C36.417,17,11.813,17,11.813,17z"/>
<path fill="#546E7A" d="M42,18.831C42,9.551,33.925,2,24,2S6,9.551,6,18.831C6,18.861,6,26,6,26h2c0,0,0-7.139,0-7.169  C8,10.653,15.178,4,24,4c8.822,0,16,6.653,16,14.831C40,18.861,40,26,40,26h2C42,26,42,18.861,42,18.831z"/>
</svg>