<?xml version="1.0" encoding="utf-8"?><!-- Generator: Adobe Illustrator 15.0.0, SVG Export Plug-In . SVG Version: 6.00 Build 0)  --><!DOCTYPE svg PUBLIC "-//W3C//DTD SVG 1.1//EN" "http://www.w3.org/Graphics/SVG/1.1/DTD/svg11.dtd"><svg xmlns="http://www.w3.org/2000/svg" xmlns:xlink="http://www.w3.org/1999/xlink" version="1.1" x="0px" y="0px" width="48" height="48" viewBox="0 0 48 48" enable-background="new 0 0 48 48" xml:space="preserve">
<g>
	<polygon fill="#B0BEC5" points="42,12 39,12 39,9 36,9 36,6 42,6  "/>
	<polygon fill="#B0BEC5" points="9,12 6,12 6,6 12,6 12,9 9,9  "/>
	<polygon fill="#B0BEC5" points="42,36 39,36 39,39 36,39 36,42 42,42  "/>
	<polygon fill="#B0BEC5" points="9,36 6,36 6,42 12,42 12,39 9,39  "/>
	<rect x="6" y="16" fill="#B0BEC5" width="3" height="6"/>
	<rect x="6" y="26" fill="#B0BEC5" width="3" height="6"/>
	<rect x="39" y="16" fill="#B0BEC5" width="3" height="6"/>
	<rect x="39" y="26" fill="#B0BEC5" width="3" height="6"/>
	<rect x="26" y="6" fill="#B0BEC5" width="6" height="3"/>
	<rect x="16" y="6" fill="#B0BEC5" width="6" height="3"/>
	<rect x="26" y="39" fill="#B0BEC5" width="6" height="3"/>
	<rect x="16" y="39" fill="#B0BEC5" width="6" height="3"/>
</g>
<g>
	<polygon fill="#2196F3" points="35,13 24,13 35,24  "/>
	<path fill="#2196F3" d="M32.55,13.595c-0.512,0-1.022,0.195-1.413,0.586L25.172,20L28,22.828l5.964-5.819   c0.781-0.781,0.781-2.047,0-2.828C33.573,13.79,33.063,13.595,32.55,13.595z"/>
</g>
<rect x="6" y="24" fill="#1565C0" width="18" height="18"/>
</svg>