<?xml version="1.0" encoding="utf-8"?><!-- Generator: Adobe Illustrator 15.0.0, SVG Export Plug-In . SVG Version: 6.00 Build 0)  --><!DOCTYPE svg PUBLIC "-//W3C//DTD SVG 1.1//EN" "http://www.w3.org/Graphics/SVG/1.1/DTD/svg11.dtd"><svg xmlns="http://www.w3.org/2000/svg" xmlns:xlink="http://www.w3.org/1999/xlink" version="1.1" x="0px" y="0px" width="48" height="48" viewBox="0 0 48 48" enable-background="new 0 0 48 48" xml:space="preserve">
<g>
	<polygon fill="#2196F3" points="39.984,7 39.984,15.998 39.984,16 39.984,15.999 39.984,16 30.993,16  "/>
	<path fill="#2196F3" d="M10.044,29.461c0.518,1.318,1.222,2.542,2.069,3.648l-3.169,2.429c-1.075-1.401-1.966-2.952-2.622-4.621   L10.044,29.461z"/>
	<path fill="#2196F3" d="M18.533,37.948l-1.457,3.719c-1.602-0.635-3.104-1.468-4.459-2.49l2.396-3.194   C16.084,36.789,17.27,37.447,18.533,37.948z"/>
	<path fill="#2196F3" d="M24,39c0.319,0,0.631-0.027,0.945-0.048l0.252,3.987C24.799,42.964,24.404,43,24,43   c-0.768,0-1.519-0.063-2.262-0.15l0.477-3.969C22.801,38.951,23.395,39,24,39z"/>
	<path fill="#2196F3" d="M32.523,40.975c-0.892,0.447-1.821,0.83-2.785,1.135l-1.207-3.813c0.761-0.24,1.494-0.542,2.197-0.896   L32.523,40.975z"/>
	<path fill="#2196F3" d="M35.422,33.672l3.073,2.585c-0.653,0.771-1.367,1.49-2.134,2.147l-2.604-3.031   C34.361,34.855,34.907,34.277,35.422,33.672z"/>
	<path fill="#2196F3" d="M42.072,29.832c-0.32,0.984-0.715,1.938-1.184,2.845l-3.572-1.825c0.371-0.719,0.687-1.473,0.941-2.252   L42.072,29.832z"/>
	<path fill="#2196F3" d="M38.95,23.011l3.985-0.257C42.964,23.168,43,23.58,43,24c0,0.541-0.031,1.074-0.076,1.604l-3.984-0.342   C38.975,24.846,39,24.426,39,24C39,23.666,38.973,23.34,38.95,23.011z"/>
	<path fill="#2196F3" d="M24,5c6.389,0,12.038,3.18,15.484,8.028l-3.264,2.304C33.499,11.508,29.041,9,24,9C15.729,9,9,15.729,9,24   c0,0.42,0.029,0.833,0.063,1.245L5.08,25.576C5.037,25.057,5,24.532,5,24C5,13.523,13.523,5,24,5z"/>
</g>
</svg>