<?xml version="1.0" encoding="utf-8"?><!-- Generator: Adobe Illustrator 15.0.0, SVG Export Plug-In . SVG Version: 6.00 Build 0)  --><!DOCTYPE svg PUBLIC "-//W3C//DTD SVG 1.1//EN" "http://www.w3.org/Graphics/SVG/1.1/DTD/svg11.dtd"><svg xmlns="http://www.w3.org/2000/svg" xmlns:xlink="http://www.w3.org/1999/xlink" version="1.1" x="0px" y="0px" width="48" height="48" viewBox="0 0 48 48" enable-background="new 0 0 48 48" xml:space="preserve">
<g>
	<polygon fill="#B0BEC5" points="38,17 35,17 35,9 27,9 27,6 38,6  "/>
	<polygon fill="#B0BEC5" points="9,17 6,17 6,6 17,6 17,9 9,9  "/>
	<polygon fill="#B0BEC5" points="38,21 35,21 35,29 27,29 27,32 38,32  "/>
	<polygon fill="#B0BEC5" points="9,21 6,21 6,32 17,32 17,29 9,29  "/>
</g>
<path fill="#5E35B1" d="M39.9,42H23.1c-1.159,0-2.1-0.951-2.1-2.125v-12.75C21,25.951,21.94,25,23.1,25h16.8  c1.158,0,2.1,0.951,2.1,2.125v12.75C42,41.049,41.061,42,39.9,42"/>
<g>
	<path fill="#512DA8" d="M27,33.5c0-3.59,2.911-6.5,6.5-6.5c3.59,0,6.5,2.91,6.5,6.5S37.09,40,33.5,40C29.911,40,27,37.09,27,33.5"/>
	<path fill="#512DA8" d="M37.257,25l-0.981-1.531C36.086,23.176,35.77,23,35.432,23h-4.865c-0.338,0-0.654,0.176-0.842,0.469   L28.743,25H37.257z"/>
</g>
<path fill="#B388FF" d="M29,33.5c0-2.484,2.016-4.5,4.5-4.5s4.5,2.016,4.5,4.5S35.984,38,33.5,38S29,35.984,29,33.5"/>
<path fill="#C7A7FF" d="M35,33c-0.243,0-0.486-0.088-0.68-0.266c-0.312-0.289-0.59-0.442-0.867-0.42  c-0.389,0.017-0.703,0.348-0.707,0.351c-0.369,0.401-1,0.438-1.406,0.074c-0.408-0.363-0.453-0.98-0.096-1.394  c0.084-0.099,0.861-0.96,2.086-1.027c0.578-0.033,1.441,0.106,2.35,0.947c0.404,0.375,0.43,1.008,0.055,1.412  C35.537,32.893,35.27,33,35,33z"/>
<rect x="23" y="27" fill="#8668C5" width="4" height="2"/>
</svg>