<?xml version="1.0" encoding="utf-8"?><!-- Generator: Adobe Illustrator 15.0.0, SVG Export Plug-In . SVG Version: 6.00 Build 0)  --><!DOCTYPE svg PUBLIC "-//W3C//DTD SVG 1.1//EN" "http://www.w3.org/Graphics/SVG/1.1/DTD/svg11.dtd"><svg xmlns="http://www.w3.org/2000/svg" xmlns:xlink="http://www.w3.org/1999/xlink" version="1.1" x="0px" y="0px" width="48" height="48" viewBox="0 0 48 48" enable-background="new 0 0 48 48" xml:space="preserve">
<g>
	<path fill="#B0BEC5" d="M39,31c-0.552,0-1-0.447-1-1c0-6.345-4.016-12.028-9.993-14.145c-0.521-0.184-0.794-0.756-0.608-1.276   c0.185-0.52,0.756-0.792,1.275-0.608C35.449,16.368,40,22.81,40,30C40,30.553,39.553,31,39,31z"/>
	<path fill="#B0BEC5" d="M9,31c-0.553,0-1-0.447-1-1c0-7.077,4.456-13.484,11.088-15.943c0.518-0.194,1.094,0.071,1.285,0.59   c0.192,0.518-0.071,1.093-0.59,1.285C13.932,18.102,10,23.755,10,30C10,30.553,9.553,31,9,31z"/>
	<path fill="#B0BEC5" d="M44.667,15H29c-0.553,0-1-0.447-1-1s0.447-1,1-1h15.667c0.554,0,1,0.447,1,1S45.221,15,44.667,15z"/>
	<path fill="#B0BEC5" d="M19,15H5c-0.553,0-1-0.447-1-1s0.447-1,1-1h14c0.553,0,1,0.447,1,1S19.553,15,19,15z"/>
</g>
<g>
	<circle fill="#3F51B5" cx="43" cy="14" r="3"/>
	<circle fill="#3F51B5" cx="5" cy="14" r="3"/>
</g>
<g>
	<path fill="#2196F3" d="M44,40H33V29h11V40z"/>
	<path fill="#2196F3" d="M15,40H4V29h11V40z"/>
	<path fill="#2196F3" d="M29,19.917H18V9h11V19.917z"/>
</g>
</svg>