<?xml version="1.0" encoding="utf-8"?><!-- Generator: Adobe Illustrator 15.0.0, SVG Export Plug-In . SVG Version: 6.00 Build 0)  --><!DOCTYPE svg PUBLIC "-//W3C//DTD SVG 1.1//EN" "http://www.w3.org/Graphics/SVG/1.1/DTD/svg11.dtd"><svg xmlns="http://www.w3.org/2000/svg" xmlns:xlink="http://www.w3.org/1999/xlink" version="1.1" x="0px" y="0px" width="48" height="48" viewBox="0 0 48 48" enable-background="new 0 0 48 48" xml:space="preserve">
<path fill="#78909C" d="M46,32c0,1.104-0.896,2-2,2H4c-1.104,0-2-0.896-2-2V8c0-1.104,0.896-2,2-2h40c1.104,0,2,0.896,2,2V32z"/>
<rect x="10" y="10" fill="#37474F" width="32" height="20"/>
<path fill="#455A64" d="M2,10v20h8V10H2z M8,28H4v-4h4V28z M6,22c-1.104,0-2-0.896-2-2s0.896-2,2-2s2,0.896,2,2S7.104,22,6,22z   M8,16H4v-4h4V16z"/>
<g>
	<rect x="12" y="12" fill="#CFD8DC" width="1" height="2"/>
	<rect x="12" y="12" fill="#CFD8DC" width="2" height="1"/>
	<rect x="36" y="26" fill="#CFD8DC" width="1" height="2"/>
	<rect x="35" y="27" fill="#CFD8DC" width="2" height="1"/>
	<rect x="12" y="27" fill="#CFD8DC" width="2" height="1"/>
	<rect x="12" y="26" fill="#CFD8DC" width="1" height="2"/>
	<rect x="35" y="12" fill="#CFD8DC" width="2" height="1"/>
	<rect x="36" y="12" fill="#CFD8DC" width="1" height="2"/>
</g>
<path fill="#78909C" d="M20.201,20.787c0.391,0.391,0.391,1.023,0,1.414l0,0c-0.391,0.391-1.023,0.391-1.414,0l-1.414-1.414  c-0.391-0.391-0.391-1.023,0-1.414l0,0c0.39-0.391,1.023-0.391,1.414,0L20.201,20.787z"/>
<path fill="#64B5F6" d="M39.293,38.465l-2.828,2.828c0,0-11.314-11.313-12.729-12.728s-3.524-2.133-3.524-2.133l4.231-4.231  c0,0,0.707,2.121,2.121,3.536C27.979,27.151,39.293,38.465,39.293,38.465z"/>
<polygon fill="#1E88E5" points="18.08,21.494 20.201,26.444 24.443,22.201 19.494,20.08 "/>
<g>
	<polygon fill="#455A64" points="40,39.172 40,40.586 38.586,42 37.172,42 36.465,41.293 39.293,38.465  "/>
	<path fill="#37474F" d="M27.271,27.858c0.391,0.391,0.391,1.023,0,1.414l0,0c-0.391,0.391-1.023,0.391-1.414,0l-2.121-2.121   c-0.391-0.391-0.391-1.024,0-1.414l0,0c0.391-0.391,1.023-0.392,1.414,0L27.271,27.858z"/>
</g>
</svg>